<svg width="132" height="132" viewBox="0 0 132 132" fill="none" xmlns="http://www.w3.org/2000/svg">
<path d="M6.25698 94.0445C26.0406 82.8478 47.2107 59.2032 65.4434 30.3227C73.9461 45.4704 94.8631 76.3523 126.141 93.1805C130.56 83.4046 132.532 72.6923 131.877 61.9715C131.196 50.8328 127.702 40.0486 121.721 30.6271C115.74 21.2056 107.468 13.4544 97.6773 8.09833C87.8867 2.74225 76.8977 -0.043842 65.7378 0.000521631C54.5779 0.0448308 43.6114 2.91818 33.8637 8.35183C24.1159 13.7855 15.9053 21.6021 9.99937 31.0709C4.09343 40.5396 0.685082 51.3512 0.092973 62.4949C-0.484492 73.363 1.63503 84.2006 6.25698 94.0445Z" fill="#E95836"/>
<path d="M10.3611 101.806C29.0413 90.4633 48.6981 72.6997 65.7774 45.6462C73.8683 60.0602 93.2001 83.8761 122.004 100.649C110.375 119.463 89.5601 132 65.8165 132C42.563 132 22.1182 119.976 10.3611 101.806Z" fill="#24429A"/>
</svg>
