<svg width="26" height="26" viewBox="0 0 26 26" fill="none" xmlns="http://www.w3.org/2000/svg">
<path d="M0.989746 12.8374C0.989746 19.741 6.58619 25.3374 13.4897 25.3374C20.3933 25.3374 25.9897 19.741 25.9897 12.8374C25.9897 5.93384 20.3933 0.337402 13.4897 0.337402C6.58619 0.337402 0.989746 5.93384 0.989746 12.8374Z" fill="#61A8DE"/>
<path d="M19.0004 7.46162L5.79643 12.6071C5.36875 12.7737 5.39466 13.3875 5.8349 13.5174L9.19017 14.5082L10.4424 18.4816C10.5732 18.8966 11.0991 19.0224 11.4036 18.7115L13.1383 16.9403L16.5421 19.4387C16.9586 19.7444 17.5518 19.5173 17.6576 19.0115L19.9119 8.23357C20.0223 7.70564 19.5029 7.26578 19.0004 7.46162ZM17.345 9.85352L11.2118 15.2771C11.1507 15.3311 11.1118 15.406 11.1027 15.4871L10.8665 17.5862C10.8588 17.6546 10.763 17.6637 10.7426 17.5979L9.77105 14.4674C9.72655 14.3241 9.78457 14.1688 9.91208 14.0897L17.1547 9.5978C17.3213 9.49442 17.4918 9.72371 17.345 9.85352Z" fill="white"/>
</svg>
