<svg width="45" height="44" viewBox="0 0 45 44" fill="none" xmlns="http://www.w3.org/2000/svg">
<path d="M39.3906 24.9928L38.4053 19.9479C38.1358 18.5321 37.6705 17.4508 36.9826 16.6428C36.0958 15.6014 34.8522 15.0508 33.3855 15.0508H28.4822V8.11527C28.4822 7.15878 27.7121 6.38358 26.7618 6.38358H20.3753C18.6821 2.90059 15.125 0.49585 11.0198 0.49585C5.28047 0.49585 0.611084 5.19575 0.611084 10.9725V32.6274C0.611084 36.4009 3.62522 39.4774 7.35743 39.5504C8.06677 41.5679 9.98009 43.0175 12.2241 43.0175C14.467 43.0175 16.3793 41.5696 17.0893 39.5542H27.746C28.456 41.5696 30.3683 43.0175 32.6113 43.0175C34.8542 43.0175 36.7665 41.5696 37.4766 39.5542H42.9339C43.8842 39.5542 44.6544 38.7786 44.6544 37.8225V31.5884C44.6544 28.3638 42.3976 25.6601 39.3906 24.9928ZM33.3855 18.5142C33.9107 18.5142 34.6298 18.5142 35.027 20.6037C35.0273 20.6064 35.028 20.6094 35.0286 20.6125L35.87 24.9214H28.4822V18.5142H33.3855ZM11.0198 3.95922C14.8618 3.95922 17.9875 7.10534 17.9875 10.9725C17.9875 14.8398 14.8618 17.9859 11.0198 17.9859C7.17766 17.9859 4.05197 14.8398 4.05197 10.9725C4.05197 7.10534 7.17766 3.95922 11.0198 3.95922ZM12.2241 39.5542C11.2755 39.5542 10.5036 38.7773 10.5036 37.8225C10.5036 36.8673 11.2755 36.0908 12.2241 36.0908C13.1727 36.0908 13.9445 36.8673 13.9445 37.8225C13.9445 38.7773 13.1727 39.5542 12.2241 39.5542ZM32.6113 39.5542C31.6627 39.5542 30.8908 38.7773 30.8908 37.8225C30.8908 36.8673 31.6627 36.0908 32.6113 36.0908C33.5599 36.0908 34.3317 36.8673 34.3317 37.8225C34.3317 38.7773 33.5599 39.5542 32.6113 39.5542ZM41.2135 36.0908H37.4766C36.7665 34.075 34.8542 32.6274 32.6113 32.6274C30.3683 32.6274 28.456 34.075 27.746 36.0908H17.0893C16.3793 34.075 14.467 32.6274 12.2241 32.6274C9.98245 32.6274 8.07114 34.0736 7.35978 36.0874C5.52408 36.0167 4.05197 34.492 4.05197 32.6274V18.7486C5.89842 20.4261 8.34231 21.4492 11.0198 21.4492C16.759 21.4492 21.4284 16.7493 21.4284 10.9725C21.4284 10.5924 21.4076 10.217 21.3683 9.84695H25.0413V24.9214H9.21329C8.26301 24.9214 7.49285 25.6966 7.49285 26.6531C7.49285 27.6092 8.26301 28.3848 9.21329 28.3848H37.8586C38.0182 28.3848 38.1718 28.3611 38.3183 28.3202C39.9453 28.5076 41.2135 29.9014 41.2135 31.5884V36.0908ZM9.2237 10.9725V7.50918C9.2237 6.55269 9.99387 5.77749 10.9441 5.77749C11.8944 5.77749 12.6646 6.55269 12.6646 7.50918V9.24086H13.3528C14.303 9.24086 15.0732 10.0161 15.0732 10.9725C15.0732 11.929 14.303 12.7042 13.3528 12.7042H10.9441C9.99387 12.7042 9.2237 11.929 9.2237 10.9725Z" fill="white"/>
</svg>
