<svg width="36" height="36" viewBox="0 0 36 36" fill="none" xmlns="http://www.w3.org/2000/svg">
<path fill-rule="evenodd" clip-rule="evenodd" d="M17.6677 0.229492C14.2065 0.229492 10.8231 1.25606 7.94527 3.17896C5.06745 5.10187 2.82445 7.83449 1.49993 11.0322C0.175413 14.2298 -0.17112 17.7486 0.504114 21.1432C1.17935 24.5378 2.84603 27.6558 5.29343 30.1032C7.74082 32.5506 10.859 34.2181 14.2536 34.8933C17.6482 35.5686 21.1669 35.2216 24.3645 33.8971C27.5622 32.5726 30.2953 30.3291 32.2182 27.4513C34.1411 24.5735 35.1675 21.1904 35.1675 17.7293C35.165 13.0888 33.3205 8.63871 30.0392 5.35739C26.7579 2.07607 22.3081 0.231947 17.6677 0.229492ZM21.8099 10.0088C22.2002 9.91044 22.6081 9.90627 23.0005 9.99572C23.3928 10.0852 23.7584 10.2657 24.0674 10.5235C24.3157 10.7394 24.511 11.0092 24.6381 11.3126C24.7652 11.6161 24.8207 11.9453 24.8003 12.2737C24.7812 12.8514 24.539 13.3986 24.1247 13.8017C23.7103 14.2047 23.1559 14.4319 22.5779 14.435C22.0387 14.4633 21.5085 14.2893 21.0915 13.9464C20.6745 13.6035 20.4009 13.1167 20.3245 12.5823C20.2346 12.0476 20.3336 11.4978 20.6047 11.0281C20.8758 10.5585 21.3019 10.1984 21.8099 10.0088V10.0088ZM10.573 12.1701C10.5965 11.5948 10.8381 11.0506 11.2489 10.6471C11.6596 10.2437 12.2086 10.0119 12.7843 9.99874C13.3599 9.98563 13.9189 10.1924 14.3476 10.5768C14.7763 10.9611 15.0425 11.494 15.0921 12.0676C15.1026 12.3695 15.0533 12.6705 14.947 12.9532C14.8407 13.236 14.6794 13.4951 14.4725 13.7152C14.2656 13.9353 14.0172 14.1124 13.7415 14.236C13.4659 14.3596 13.1685 14.4269 12.8665 14.435C12.5642 14.4487 12.2622 14.3999 11.9797 14.2913C11.6972 14.1827 11.4402 14.0164 11.2248 13.8037C11.0095 13.591 10.8404 13.3369 10.7282 13.0558C10.616 12.7747 10.5632 12.4726 10.573 12.1701V12.1701ZM28.4959 25.9645C28.0956 25.8174 27.7667 25.5229 27.5767 25.1412C27.2678 24.5235 26.9477 24.0082 26.6502 23.4935C25.272 24.8509 23.5995 25.8728 21.7626 26.4792C18.9509 27.287 15.9594 27.2149 13.1898 26.2731C11.4787 25.7676 9.93711 24.8067 8.72936 23.4935C8.28465 24.1112 7.94496 24.8322 7.52394 25.4498C7.38797 25.6656 7.19345 25.838 6.96306 25.9474C6.73267 26.0568 6.4759 26.0981 6.22277 26.067C5.89827 26.0178 5.60094 25.8577 5.38148 25.6137C5.16202 25.3696 5.03406 25.0569 5.01943 24.729C5.01863 24.3963 5.12351 24.0725 5.31897 23.8032C6.22827 22.2591 7.13345 20.715 8.03452 19.1709C8.18103 18.8769 8.42778 18.6445 8.73023 18.5164C9.03269 18.3884 9.37093 18.3728 9.68399 18.4722C9.99704 18.5716 10.2643 18.7792 10.4375 19.0583C10.6107 19.3373 10.6785 19.6695 10.6286 19.9942C10.5367 20.3199 10.401 20.6309 10.2251 20.92C10.9513 21.9612 11.9519 22.7815 13.1156 23.2885C15.5414 24.3811 18.2795 24.5639 20.829 23.8032C22.5422 23.3514 24.0535 22.3353 25.1195 20.92C24.9384 20.6001 24.8121 20.2522 24.7458 19.8906C24.7303 19.5747 24.8191 19.2624 24.9986 19.002C25.1782 18.7415 25.4384 18.548 25.7392 18.4501C26.0453 18.3575 26.3746 18.3798 26.6656 18.5124C26.9566 18.645 27.1894 18.8791 27.3203 19.1709C28.1953 20.612 29.0631 22.1555 29.936 23.6996C30.1861 24.0233 30.3176 24.4236 30.3087 24.8326C30.2853 25.0366 30.2162 25.2329 30.1065 25.4066C29.9969 25.5802 29.8494 25.726 29.6752 25.8348C29.501 25.9436 29.3045 26.0125 29.1003 26.0349C28.8962 26.0572 28.6896 26.033 28.4959 25.9645V25.9645Z" fill="white"/>
</svg>
