<svg width="45" height="53" viewBox="0 0 45 53" fill="none" xmlns="http://www.w3.org/2000/svg">
<path fill-rule="evenodd" clip-rule="evenodd" d="M7.81367 26.5064C7.81367 18.5595 10.2223 13.425 13.9866 13.425C17.7509 13.425 20.174 18.5595 20.174 26.5064C20.174 34.4534 17.7654 39.5879 14.001 39.5879C10.2367 39.5879 7.81367 34.4534 7.81367 26.5064ZM14.001 36.6889C15.0539 36.6889 15.8471 34.9581 16.1356 34.2082C16.8856 32.2755 17.3038 29.5352 17.3038 26.5064C17.3038 23.4776 16.8856 20.7373 16.1356 18.8047C15.8471 18.0691 15.0539 16.324 14.001 16.324C12.9482 16.324 12.1549 18.0547 11.8665 18.8047C11.1165 20.7373 10.6982 23.4776 10.6982 26.5064C10.6982 29.5352 11.1021 32.2755 11.852 34.2082C12.1405 34.9581 12.9482 36.6889 14.001 36.6889Z" fill="#24429A"/>
<path fill-rule="evenodd" clip-rule="evenodd" d="M30.9189 0.718566C34.5102 0.718566 37.7986 3.531 40.1639 8.6655C42.3561 13.4394 43.5677 19.771 43.5677 26.5064C43.5677 33.2274 42.3417 39.5734 40.1062 44.3618C37.712 49.4963 34.4092 52.2943 30.8035 52.2943L14.9674 52.3232C14.6356 52.3664 14.3183 52.3953 13.9866 52.3953C10.3809 52.3953 7.07811 49.554 4.69835 44.3906C2.49167 39.5879 1.26574 33.2419 1.26574 26.5064C1.26574 19.771 2.47725 13.425 4.69835 8.62223C7.07811 3.45889 10.3809 0.617607 13.9866 0.617607C14.3183 0.617607 14.6501 0.646452 14.9674 0.689721L30.9189 0.718566ZM14.3616 49.4819H14.4337C16.6692 49.2223 18.9192 46.9579 20.6499 43.1936C22.6979 38.7514 23.8229 32.838 23.8229 26.5064C23.8229 20.1749 22.6979 14.2471 20.6499 9.81932C18.8038 5.8098 16.3664 3.50216 13.9866 3.50216C11.6069 3.50216 9.16941 5.79537 7.32329 9.81932C5.27526 14.2615 4.15029 20.1749 4.15029 26.5064C4.15029 32.838 5.27526 38.7658 7.32329 43.1936C9.18383 47.2031 11.6068 49.5107 13.9722 49.5107H14.102C14.1885 49.4963 14.2751 49.4819 14.3616 49.4819ZM27.0806 42.2775C27.1054 42.2558 27.1301 42.2342 27.1546 42.2128C27.5007 41.9244 27.8757 41.5926 27.9767 41.3475C28.0344 41.1744 27.9911 40.684 27.9478 40.3234C27.8757 39.66 27.8036 38.91 28.0199 38.1168C28.2219 37.3812 28.669 36.7899 29.0728 36.2851C29.1032 36.2445 29.1343 36.2035 29.1654 36.1624C29.3999 35.8528 29.6404 35.5352 29.6786 35.3187C29.7196 35.1411 29.6051 34.7173 29.5071 34.3543C29.5017 34.3343 29.4964 34.3144 29.4911 34.2947L29.482 34.2608C29.3111 33.6201 29.1178 32.8959 29.217 32.088C29.3031 31.3131 29.6749 30.6666 30.0054 30.0918L30.0103 30.0833C30.0371 30.0335 30.0647 29.983 30.0923 29.9322C30.2732 29.6005 30.4593 29.2594 30.4718 29.0593C30.4851 28.8727 30.3261 28.4768 30.188 28.1332C30.1767 28.105 30.1655 28.0771 30.1545 28.0497C30.1447 28.0258 30.1349 28.0018 30.125 27.9777C29.8725 27.3617 29.592 26.6774 29.592 25.8863C29.592 25.0665 29.8931 24.3472 30.1522 23.7282L30.1545 23.7229C30.1655 23.6955 30.1767 23.6676 30.188 23.6393C30.326 23.2958 30.4851 22.8998 30.4718 22.7133C30.4574 22.4681 30.2266 22.0642 30.0103 21.6892C29.9946 21.6608 29.9789 21.6322 29.963 21.6034C29.6567 21.048 29.313 20.4249 29.217 19.6845C29.1167 18.8817 29.3156 18.1358 29.4879 17.4895L29.4911 17.4778C29.4964 17.4582 29.5017 17.4383 29.5071 17.4182C29.6051 17.0552 29.7196 16.6315 29.6786 16.4538C29.6404 16.2373 29.3999 15.9198 29.1654 15.6101C29.1343 15.569 29.1032 15.528 29.0728 15.4875C28.6834 14.9827 28.2363 14.3913 28.0199 13.6558C27.8036 12.8769 27.8757 12.1125 27.9478 11.4491C27.9911 11.0885 28.0488 10.5981 27.9767 10.4251C27.8798 10.1897 27.5171 9.87462 27.1947 9.5946C27.1813 9.58291 27.1679 9.57127 27.1546 9.55971C27.1301 9.53829 27.1054 9.51675 27.0806 9.49506C26.637 9.10791 26.141 8.67511 25.8133 8.07417C25.4383 7.3963 25.3085 6.67516 25.2075 6.04056C25.2005 6.00022 25.1933 5.95754 25.1858 5.91345C25.1318 5.59491 25.0654 5.20268 24.9767 5.08866C24.5873 4.62713 23.7508 4.1656 23.0874 3.80503C22.9969 3.7598 22.9103 3.71456 22.8278 3.67138C22.7524 3.63196 22.6802 3.59426 22.6114 3.55985L19.9865 3.54543C21.2124 4.84347 22.323 6.54536 23.2893 8.63666C25.496 13.4394 26.7219 19.7854 26.7219 26.5209C26.7219 33.2563 25.5104 39.6023 23.2893 44.4051C22.323 46.482 21.2124 48.1694 20.0009 49.4675H20.7941C20.8025 49.4564 20.8113 49.4447 20.8205 49.4326C20.8591 49.382 20.9034 49.3238 20.9384 49.2655C20.9505 49.2483 20.9626 49.231 20.9748 49.2137C21.3396 48.694 21.7363 48.1289 22.3085 47.78C22.7845 47.5204 23.2893 47.3185 23.8229 47.1887C23.8458 47.1817 23.8688 47.1748 23.8918 47.1678C24.3467 47.0304 24.812 46.8898 24.9767 46.6839C25.0617 46.5706 25.1467 46.0818 25.2044 45.7501L25.2075 45.732C25.2139 45.697 25.2202 45.6617 25.2266 45.6262C25.3364 45.0179 25.459 44.3388 25.8133 43.6984C26.141 43.0974 26.637 42.6646 27.0806 42.2775ZM30.2091 45.75L30.2122 45.732C30.2186 45.697 30.2249 45.6617 30.2313 45.6262C30.3411 45.0179 30.4636 44.3388 30.818 43.6984C31.1457 43.0974 31.6417 42.6646 32.0853 42.2775C32.1101 42.2558 32.1348 42.2342 32.1593 42.2128C32.5054 41.9244 32.8804 41.5926 32.9814 41.3475C33.0391 41.1744 32.9958 40.684 32.9525 40.3234C32.8804 39.66 32.8083 38.91 33.0246 38.1168C33.2266 37.3812 33.6737 36.7899 34.0775 36.2851C34.1079 36.2445 34.139 36.2035 34.1701 36.1624C34.4046 35.8528 34.6451 35.5352 34.6832 35.3187C34.7243 35.1411 34.6098 34.7173 34.5118 34.3543C34.5064 34.3342 34.501 34.3144 34.4958 34.2947L34.4867 34.2609C34.3158 33.6201 34.1225 32.8959 34.2217 32.088C34.3078 31.3131 34.6796 30.6666 35.0101 30.0918L35.015 30.0833C35.0418 30.0335 35.0693 29.983 35.097 29.9322C35.2779 29.6006 35.464 29.2594 35.4765 29.0593C35.4898 28.8727 35.3307 28.4767 35.1927 28.1332C35.1814 28.1049 35.1702 28.0771 35.1592 28.0497C35.1494 28.0258 35.1396 28.0018 35.1297 27.9777C34.8772 27.3617 34.5967 26.6774 34.5967 25.8863C34.5967 25.0665 34.8978 24.3472 35.1569 23.7282L35.1592 23.7229C35.1702 23.6955 35.1814 23.6676 35.1927 23.6394C35.3307 23.2958 35.4898 22.8998 35.4765 22.7133C35.4621 22.4681 35.2313 22.0642 35.015 21.6892C34.9993 21.6608 34.9836 21.6322 34.9677 21.6034C34.6614 21.048 34.3177 20.4249 34.2217 19.6845C34.1214 18.8817 34.3203 18.1358 34.4926 17.4895L34.4958 17.4778C34.501 17.4582 34.5064 17.4383 34.5118 17.4182C34.6098 17.0552 34.7243 16.6315 34.6832 16.4538C34.6451 16.2373 34.4046 15.9198 34.1701 15.6101C34.139 15.569 34.1079 15.528 34.0775 15.4875C33.6881 14.9827 33.241 14.3913 33.0246 13.6558C32.8206 12.9076 32.886 12.1851 32.9425 11.5608C32.9459 11.5232 32.9492 11.486 32.9525 11.4491C32.9958 11.0885 33.0535 10.5981 32.9814 10.4251C32.8848 10.2044 32.5245 9.89142 32.2031 9.61223C32.1884 9.59946 32.1738 9.58675 32.1593 9.57413C32.1348 9.55271 32.1101 9.53117 32.0852 9.50948C31.6417 9.12233 31.1457 8.68953 30.818 8.08859C30.443 7.41072 30.3132 6.68958 30.2122 6.05498C30.2052 6.01466 30.198 5.97198 30.1905 5.9279C30.1366 5.60936 30.0701 5.21711 29.9814 5.10308C29.592 4.64155 28.7555 4.18003 28.0921 3.81946C28.0415 3.79186 27.9923 3.76574 27.9442 3.74014C27.8414 3.68547 27.7432 3.63321 27.6449 3.57427H27.4142C27.8017 4.18329 27.9236 4.87201 28.0348 5.5002C28.0395 5.52659 28.0441 5.55287 28.0488 5.57903C28.1209 6.01172 28.193 6.4444 28.3372 6.70401C28.4382 6.87708 28.7555 7.15111 29.0295 7.38188C29.0505 7.40018 29.0717 7.41863 29.0931 7.43722C29.6443 7.91686 30.3122 8.49804 30.6593 9.38664C30.9743 10.1886 30.8913 11.0189 30.8195 11.7365L30.818 11.752C30.7747 12.1847 30.7314 12.6173 30.8035 12.8769C30.8556 13.0463 31.0843 13.3451 31.2981 13.6246C31.321 13.6545 31.3437 13.6842 31.366 13.7135C31.8131 14.276 32.3468 14.9827 32.5343 15.8913C32.7067 16.7535 32.4926 17.5441 32.3056 18.2346L32.3035 18.2422C32.1881 18.6605 32.0727 19.0931 32.1016 19.3383C32.1278 19.5348 32.3204 19.8739 32.496 20.183C32.5138 20.2143 32.5314 20.2453 32.5487 20.2758C32.8948 20.8816 33.3275 21.646 33.3852 22.5546C33.4283 23.4166 33.1136 24.1784 32.8403 24.8401L32.8371 24.8478L32.8244 24.8792C32.6693 25.2595 32.5054 25.6617 32.5054 25.8863C32.5054 26.1108 32.6693 26.513 32.8244 26.8933L32.8371 26.9247C33.1256 27.5881 33.4429 28.3381 33.3852 29.2179C33.3275 30.1266 32.8948 30.891 32.5487 31.4967C32.3468 31.8429 32.1304 32.2179 32.1016 32.4342C32.0727 32.6938 32.1881 33.112 32.3035 33.5302C32.3078 33.5465 32.3121 33.5628 32.3164 33.5791C32.5007 34.2728 32.7034 35.0357 32.5343 35.8812C32.3484 36.7821 31.808 37.4845 31.3771 38.0447L31.366 38.0591C31.1208 38.3619 30.8612 38.6937 30.8035 38.8956C30.7314 39.1408 30.7747 39.5879 30.818 40.0206L30.8211 40.0525C30.8925 40.7799 30.972 41.5901 30.6593 42.4003C30.3122 43.2889 29.6443 43.8701 29.0931 44.3497C29.0717 44.3683 29.0505 44.3868 29.0295 44.4051C29.0053 44.4257 28.9808 44.4465 28.9562 44.4672C28.6893 44.6934 28.4165 44.9244 28.3372 45.0829C28.193 45.3425 28.1209 45.7752 28.0488 46.2079C27.9911 46.6694 27.8757 47.1166 27.7315 47.5637C28.0921 47.4194 28.4526 47.2896 28.8276 47.1887C28.8505 47.1817 28.8735 47.1748 28.8965 47.1678C29.3514 47.0304 29.8167 46.8898 29.9814 46.6839C30.0664 46.5706 30.1514 46.0817 30.2091 45.75ZM31.0487 49.4242C33.3564 49.28 35.6928 47.0012 37.4957 43.1503C39.5581 38.7225 40.6831 32.8236 40.6831 26.5064C40.6831 20.1749 39.5726 14.2615 37.5534 9.86259C36.1688 6.84823 34.4525 4.8002 32.6641 3.97811C32.866 4.4829 32.9958 5.01655 33.0679 5.56461C33.14 5.99729 33.2121 6.42997 33.3564 6.68958C33.4573 6.86266 33.7746 7.13669 34.0486 7.36745C34.0696 7.38576 34.0908 7.4042 34.1122 7.4228C34.6634 7.90244 35.3313 8.48362 35.6784 9.37222C35.9935 10.1885 35.9104 11.0189 35.8386 11.7365L35.8371 11.752C35.7938 12.1847 35.7505 12.6173 35.8226 12.8769C35.8748 13.0463 36.1034 13.3452 36.3172 13.6246C36.3401 13.6545 36.3628 13.6842 36.3851 13.7135C36.8322 14.276 37.3659 14.9827 37.5534 15.8913C37.7258 16.7535 37.5117 17.5441 37.3247 18.2346L37.3226 18.2422C37.2072 18.6605 37.0919 19.0931 37.1207 19.3383C37.1469 19.5348 37.3396 19.8739 37.5152 20.183C37.5329 20.2143 37.5506 20.2453 37.5678 20.2758C37.9139 20.8816 38.3466 21.646 38.4043 22.5546C38.4474 23.4166 38.1327 24.1784 37.8595 24.8401L37.8563 24.8478L37.8434 24.8793C37.6884 25.2596 37.5245 25.6617 37.5245 25.8863C37.5245 26.1108 37.6884 26.513 37.8434 26.8933L37.8563 26.9247C38.1447 27.5881 38.462 28.3381 38.4043 29.2179C38.3466 30.1266 37.9139 30.891 37.5678 31.4967C37.3659 31.8429 37.1495 32.2179 37.1207 32.4342C37.0919 32.6938 37.2072 33.1121 37.3226 33.5303L37.3356 33.5791C37.5198 34.2728 37.7225 35.0357 37.5534 35.8812C37.3675 36.7821 36.8271 37.4845 36.3962 38.0447L36.3851 38.0591C36.1399 38.3619 35.8803 38.6937 35.8226 38.8956C35.7505 39.1408 35.7938 39.5879 35.8371 40.0206L35.8402 40.0526C35.9116 40.7799 35.9911 41.5901 35.6784 42.4003C35.3313 43.2889 34.6634 43.8701 34.1122 44.3497C34.0908 44.3683 34.0696 44.3868 34.0486 44.4051C34.0244 44.4257 33.9999 44.4464 33.9754 44.4672C33.7084 44.6933 33.4356 44.9244 33.3564 45.0829C33.2121 45.3425 33.14 45.7752 33.0679 46.2079L33.0634 46.2339C32.9347 46.9778 32.787 47.8314 32.2025 48.53C31.8852 48.905 31.4958 49.2078 31.0487 49.4242Z" fill="#24429A"/>
<path fill-rule="evenodd" clip-rule="evenodd" d="M40.6552 8.43916L40.6555 8.43975C42.888 13.3013 44.1086 19.7139 44.1086 26.5064C44.1086 33.2853 42.8733 39.7136 40.5964 44.5906C38.1687 49.7969 34.7248 52.8348 30.8045 52.8353M30.8035 52.8353L15.0026 52.864C14.6695 52.9066 14.3379 52.9362 13.9866 52.9362C10.0623 52.9362 6.61899 49.8502 4.20708 44.6171L4.20681 44.6165C1.9602 39.7268 0.724792 33.3 0.724792 26.5064C0.724792 19.7141 1.94539 13.2865 4.20722 8.39549C6.61913 3.16256 10.0624 0.0766602 13.9866 0.0766602C14.3358 0.0766602 14.68 0.105868 15.004 0.148839L30.9189 0.177619H30.9194C34.8279 0.177881 38.257 3.2334 40.6552 8.43916M30.9189 0.718566C34.5102 0.718566 37.7986 3.531 40.1639 8.6655C42.3561 13.4394 43.5677 19.771 43.5677 26.5064C43.5677 33.2274 42.3417 39.5734 40.1062 44.3618C37.712 49.4963 34.4092 52.2943 30.8035 52.2943L14.9674 52.3232C14.6356 52.3664 14.3183 52.3953 13.9866 52.3953C10.3809 52.3953 7.07811 49.554 4.69835 44.3906C2.49167 39.5879 1.26574 33.2419 1.26574 26.5064C1.26574 19.771 2.47725 13.425 4.69835 8.62223C7.07811 3.45889 10.3809 0.617607 13.9866 0.617607C14.3183 0.617607 14.6501 0.646452 14.9674 0.689721L30.9189 0.718566ZM20.1584 42.9676L20.1587 42.9671C22.1658 38.6135 23.282 32.7819 23.282 26.5064C23.282 20.2306 22.1657 14.385 20.1589 10.0464L20.1585 10.0456C19.2546 8.08233 18.2195 6.56687 17.1463 5.5498C16.0721 4.53181 14.9943 4.0431 13.9866 4.0431C12.978 4.0431 11.9001 4.52906 10.8266 5.54471C9.75383 6.55968 8.71883 8.07474 7.81497 10.0449L7.81455 10.0458C5.80738 14.3994 4.69124 20.231 4.69124 26.5064C4.69124 32.7822 5.80747 38.6277 7.81418 42.9663C8.72561 44.9304 9.76107 46.4463 10.8312 47.4637C11.9024 48.4821 12.9729 48.9698 13.9722 48.9698H14.0573C14.1363 48.9569 14.2462 48.9409 14.3616 48.9409H14.4012C15.3496 48.8219 16.3533 48.2749 17.3467 47.2714C18.3485 46.2593 19.3113 44.8102 20.1584 42.9676ZM14.4337 49.4819H14.3616C14.2751 49.4819 14.1885 49.4963 14.102 49.5107H13.9722C11.6068 49.5107 9.18383 47.2031 7.32329 43.1936C5.27526 38.7658 4.15029 32.838 4.15029 26.5064C4.15029 20.1749 5.27526 14.2615 7.32329 9.81932C9.16941 5.79537 11.6069 3.50216 13.9866 3.50216C16.3664 3.50216 18.8038 5.8098 20.6499 9.81932C22.6979 14.2471 23.8229 20.1749 23.8229 26.5064C23.8229 32.838 22.6979 38.7514 20.6499 43.1936C18.9192 46.9579 16.6692 49.2223 14.4337 49.4819ZM26.8033 41.8014L26.8083 41.7972C26.9794 41.6547 27.1438 41.5127 27.2751 41.3814C27.3403 41.3161 27.3912 41.2596 27.428 41.2125C27.4426 41.1939 27.4531 41.179 27.4606 41.1678C27.4612 41.1605 27.4617 41.1516 27.4622 41.1411C27.4645 41.0878 27.4639 41.0171 27.4598 40.9315C27.4517 40.7609 27.4317 40.5627 27.4107 40.3879L27.4104 40.3849L27.41 40.3819C27.3382 39.7207 27.2518 38.8772 27.4981 37.9744L27.4983 37.9736C27.7316 37.1237 28.2419 36.4579 28.6452 35.9537C28.6747 35.9143 28.7046 35.8749 28.7338 35.8363L28.7342 35.8358C28.8544 35.677 28.9604 35.5366 29.0418 35.4111C29.1152 35.298 29.1388 35.2409 29.1444 35.2272C29.1458 35.2239 29.1461 35.2231 29.1458 35.2247L29.1461 35.2233C29.1459 35.2176 29.1455 35.2079 29.1442 35.1938C29.1403 35.1512 29.1309 35.0918 29.1151 35.0151C29.0834 34.8608 29.035 34.6808 28.9849 34.4953L28.9684 34.4342L28.9519 34.3724C28.7845 33.7454 28.5685 32.9363 28.6797 32.0251C28.779 31.1388 29.1983 30.41 29.5194 29.8517L29.5376 29.8201C29.5641 29.771 29.5911 29.7215 29.6174 29.6732L30.0923 29.9322L30.0637 29.9847C30.0457 30.0178 30.0278 30.0507 30.0103 30.0833L30.0054 30.0918C29.6749 30.6666 29.3031 31.3131 29.217 32.088C29.1178 32.8959 29.3111 33.6201 29.482 34.2608L29.4911 34.2947L29.5071 34.3543C29.6051 34.7173 29.7196 35.1411 29.6786 35.3187C29.6404 35.5352 29.3999 35.8528 29.1654 36.1624C29.1463 36.1876 29.1273 36.2127 29.1084 36.2377C29.0965 36.2535 29.0846 36.2693 29.0728 36.2851C28.669 36.7899 28.2219 37.3812 28.0199 38.1168C27.8036 38.91 27.8757 39.66 27.9478 40.3234C27.9911 40.684 28.0344 41.1744 27.9767 41.3475C27.8757 41.5926 27.5007 41.9244 27.1546 42.2128L27.0806 42.2775L26.7249 41.8699C26.74 41.8567 26.755 41.8436 26.7698 41.8306C26.7794 41.8223 26.7889 41.814 26.7983 41.8057L26.8033 41.8014ZM25.8133 43.6984C26.141 43.0974 26.637 42.6646 27.0806 42.2775L26.7249 41.8699L26.7022 41.8897C26.2709 42.266 25.7134 42.7524 25.339 43.4381C24.942 44.1565 24.8063 44.9092 24.6991 45.5036L24.6943 45.5301C24.6879 45.5657 24.6816 45.6006 24.6753 45.6352L24.6749 45.6372L24.6714 45.6574C24.6421 45.8258 24.6085 46.0188 24.5724 46.1828C24.5564 46.2559 24.5415 46.3156 24.5283 46.3602C24.5268 46.3611 24.5252 46.3621 24.5236 46.363C24.4826 46.3876 24.4229 46.4168 24.3409 46.4498C24.1741 46.517 23.969 46.5794 23.7354 46.65L23.7252 46.6531C23.7102 46.6576 23.6952 46.6621 23.6802 46.6667C23.2552 46.7711 22.8485 46.9171 22.4604 47.0976C22.9256 46.3436 23.3663 45.5218 23.7797 44.6333L23.7803 44.6321C26.0422 39.7411 27.2628 33.3134 27.2628 26.5209C27.2628 19.7273 26.0274 13.3005 23.7808 8.41081L23.7803 8.40975C23.0056 6.73309 22.1343 5.28967 21.1772 4.09292L22.4799 4.10008C22.5109 4.11613 22.5431 4.133 22.5771 4.15077L22.5788 4.15162C22.658 4.19302 22.7452 4.23865 22.837 4.28467C23.1678 4.46447 23.5235 4.65993 23.8431 4.86457C24.1473 5.05926 24.383 5.2402 24.5279 5.39743C24.5388 5.43025 24.552 5.4787 24.5667 5.54379C24.5972 5.67866 24.6249 5.84088 24.6524 6.00377C24.6596 6.04628 24.6668 6.08884 24.6739 6.12941C24.7749 6.76375 24.9152 7.56755 25.3391 8.33448C25.7134 9.02016 26.2709 9.50657 26.7022 9.88286L26.7249 9.90262C26.7498 9.92435 26.7742 9.94566 26.7984 9.96682L26.799 9.96736L26.8399 10.003C27.0045 10.1459 27.1605 10.2818 27.2876 10.4089C27.3503 10.4717 27.3988 10.5254 27.4336 10.5697C27.4498 10.5902 27.4604 10.6056 27.4671 10.6158C27.4676 10.6214 27.4681 10.6282 27.4685 10.6362C27.4711 10.6844 27.4703 10.7512 27.4655 10.8359C27.4558 11.0055 27.4327 11.2015 27.4107 11.3846L27.4104 11.3876L27.41 11.3906C27.3383 12.0504 27.2514 12.9103 27.4987 13.8006L27.4998 13.8045L27.501 13.8084C27.7491 14.6521 28.2573 15.316 28.6423 15.815C28.6725 15.8552 28.7031 15.8957 28.733 15.9351L28.7342 15.9367C28.8544 16.0956 28.9604 16.2359 29.0418 16.3614C29.1152 16.4745 29.1388 16.5317 29.1444 16.5453C29.1458 16.5487 29.1461 16.5494 29.1458 16.5478L29.1461 16.5492C29.1459 16.555 29.1455 16.5646 29.1442 16.5787C29.1403 16.6213 29.1309 16.6807 29.1151 16.7574C29.0834 16.9117 29.035 17.0917 28.9849 17.2772L28.9687 17.3372L28.9684 17.3384L28.9573 17.3801C28.7888 18.0113 28.5668 18.8436 28.6803 19.7516L28.6804 19.7528L28.6806 19.754C28.7898 20.5968 29.1758 21.2964 29.4743 21.8374L29.4893 21.8647C29.5052 21.8935 29.5208 21.9218 29.5363 21.9499L29.5389 21.9548L29.5417 21.9596C29.6517 22.1502 29.7534 22.328 29.83 22.4859C29.8679 22.564 29.8952 22.6283 29.9128 22.6793C29.9236 22.7106 29.9284 22.7301 29.9305 22.7397C29.9294 22.7463 29.9276 22.7567 29.9243 22.7716C29.9148 22.8146 29.8982 22.8725 29.8737 22.9456C29.8244 23.0929 29.7566 23.2622 29.6861 23.4377C29.6812 23.4499 29.6763 23.4621 29.6714 23.4742C29.6655 23.4888 29.6597 23.5034 29.6539 23.5178L29.6533 23.5193L29.6533 23.5194L29.6412 23.5482C29.3879 24.1529 29.0511 24.9573 29.0511 25.8863C29.0511 26.7845 29.3661 27.5527 29.6126 28.1539L29.6245 28.1828C29.6341 28.2062 29.6436 28.2294 29.653 28.2525C29.6582 28.2656 29.6636 28.2788 29.6689 28.2921C29.6746 28.3063 29.6803 28.3206 29.6861 28.3349C29.7566 28.5103 29.8244 28.6797 29.8737 28.8269C29.8982 28.9 29.9148 28.9579 29.9243 29.001C29.927 29.0131 29.9287 29.0223 29.9298 29.0288C29.9279 29.0359 29.9249 29.0463 29.9201 29.0606C29.9067 29.1002 29.8854 29.1524 29.8549 29.218C29.7928 29.3511 29.71 29.5034 29.6174 29.6732L30.0923 29.9322C30.2732 29.6005 30.4593 29.2594 30.4718 29.0593C30.4851 28.8727 30.3261 28.4768 30.188 28.1332C30.1767 28.105 30.1655 28.0771 30.1545 28.0497C30.1447 28.0258 30.1349 28.0018 30.125 27.9777C29.8725 27.3617 29.592 26.6774 29.592 25.8863C29.592 25.0665 29.8931 24.3472 30.1522 23.7282L30.1545 23.7229C30.1653 23.6958 30.1764 23.6683 30.1876 23.6404L30.188 23.6393C30.326 23.2958 30.4851 22.8998 30.4718 22.7133C30.4574 22.4681 30.2266 22.0642 30.0103 21.6892C29.9946 21.6608 29.9789 21.6322 29.963 21.6034C29.6567 21.048 29.313 20.4249 29.217 19.6845C29.1167 18.8817 29.3156 18.1358 29.4879 17.4895L29.4911 17.4778L29.5071 17.4182C29.6051 17.0552 29.7196 16.6315 29.6786 16.4538C29.6404 16.2373 29.3999 15.9198 29.1654 15.6101L29.165 15.6096C29.134 15.5687 29.1031 15.5279 29.0728 15.4875C28.6834 14.9827 28.2363 14.3913 28.0199 13.6558C27.8036 12.8769 27.8757 12.1125 27.9478 11.4491C27.9911 11.0885 28.0488 10.5981 27.9767 10.4251C27.8798 10.1897 27.5171 9.87462 27.1947 9.5946L27.1546 9.55971C27.1311 9.53916 27.1074 9.5185 27.0836 9.49771L27.081 9.49544L27.0808 9.49525L27.0806 9.49506C26.637 9.10791 26.141 8.67511 25.8133 8.07417C25.4383 7.3963 25.3085 6.67516 25.2075 6.04056C25.2005 6.00022 25.1933 5.95754 25.1858 5.91345C25.1318 5.59491 25.0654 5.20268 24.9767 5.08866C24.5873 4.62713 23.7508 4.1656 23.0874 3.80503C22.9969 3.7598 22.9103 3.71456 22.8278 3.67138C22.7524 3.63196 22.6802 3.59426 22.6114 3.55985L19.9865 3.54543C20.1508 3.71939 20.313 3.90061 20.4731 4.08905C21.5075 5.30665 22.4525 6.82564 23.2893 8.63666C25.496 13.4394 26.7219 19.7854 26.7219 26.5209C26.7219 33.2563 25.5104 39.6023 23.2893 44.4051C22.6255 45.8317 21.8937 47.0745 21.1078 48.1337C20.9815 48.3039 20.8538 48.4694 20.7247 48.6302C20.644 48.7308 20.5626 48.8296 20.4808 48.9265C20.3227 49.1138 20.1627 49.2941 20.0009 49.4675H20.7941C20.8025 49.4564 20.8113 49.4447 20.8205 49.4326C20.8591 49.382 20.9034 49.3238 20.9384 49.2655L20.9748 49.2137C21.0351 49.1277 21.0964 49.0404 21.1592 48.9531C21.2764 48.79 21.399 48.6268 21.5311 48.4711C21.7557 48.2063 22.0079 47.9633 22.3085 47.78C22.7845 47.5204 23.2893 47.3185 23.8229 47.1887L23.8918 47.1678C24.3467 47.0304 24.812 46.8898 24.9767 46.6839C25.0617 46.5706 25.1467 46.0818 25.2044 45.7501L25.2075 45.732L25.2266 45.6262C25.3364 45.0179 25.459 44.3388 25.8133 43.6984ZM24.5177 5.37022C24.5177 5.37022 24.5182 5.37111 24.5191 5.37316C24.5182 5.37129 24.5177 5.37022 24.5177 5.37022ZM29.6796 45.6373L29.68 45.6352C29.6863 45.6006 29.6926 45.5657 29.699 45.5301L29.7038 45.5036C29.7698 45.1378 29.8465 44.712 29.9884 44.2711C29.808 44.4449 29.6315 44.5984 29.4732 44.736L29.4482 44.7578L29.0931 44.3497C29.6443 43.8701 30.3122 43.2889 30.6593 42.4003C30.972 41.5901 30.8925 40.7799 30.8211 40.0525L30.818 40.0206C30.7747 39.5879 30.7314 39.1408 30.8035 38.8956C30.8612 38.6937 31.1208 38.3619 31.366 38.0591L31.3771 38.0447C31.808 37.4845 32.3484 36.7821 32.5343 35.8812C32.7034 35.0357 32.5007 34.2728 32.3164 33.5791L32.3035 33.5302C32.1881 33.112 32.0727 32.6938 32.1016 32.4342C32.1304 32.2179 32.3468 31.8429 32.5487 31.4967C32.8948 30.891 33.3275 30.1266 33.3852 29.2179C33.4429 28.3381 33.1256 27.5881 32.8371 26.9247L32.8244 26.8933C32.6693 26.513 32.5054 26.1108 32.5054 25.8863C32.5054 25.6617 32.6693 25.2595 32.8244 24.8792L32.8371 24.8478L32.8403 24.8401C33.1136 24.1784 33.4283 23.4166 33.3852 22.5546C33.3275 21.646 32.8948 20.8816 32.5487 20.2758C32.5314 20.2453 32.5138 20.2143 32.496 20.183C32.3204 19.8739 32.1278 19.5348 32.1016 19.3383C32.0727 19.0931 32.1881 18.6605 32.3035 18.2422L32.3056 18.2346C32.4926 17.5441 32.7067 16.7535 32.5343 15.8913C32.3468 14.9827 31.8131 14.276 31.366 13.7135C31.3437 13.6842 31.321 13.6545 31.2981 13.6246C31.0843 13.3451 30.8556 13.0463 30.8035 12.8769C30.7314 12.6173 30.7747 12.1847 30.818 11.752L30.8195 11.7365C30.8913 11.0189 30.9743 10.1886 30.6593 9.38664C30.3122 8.49804 29.6443 7.91686 29.0931 7.43722C29.0717 7.41863 29.0505 7.40018 29.0295 7.38188C28.7555 7.15111 28.4382 6.87708 28.3372 6.70401C28.193 6.4444 28.1209 6.01172 28.0488 5.57903L28.0348 5.5002C27.9628 5.09358 27.8864 4.66159 27.7363 4.24228C27.7284 4.22033 27.7204 4.19841 27.7121 4.17653C27.6911 4.12105 27.6688 4.06583 27.6449 4.01096C27.6095 3.92948 27.5707 3.84876 27.528 3.7691C27.4928 3.70338 27.455 3.63839 27.4142 3.57427H27.6449C27.7432 3.63321 27.8414 3.68547 27.9442 3.74014L27.9444 3.74023L27.9448 3.74045C27.9927 3.76595 28.0417 3.79198 28.0921 3.81946C28.1174 3.83321 28.1429 3.84711 28.1687 3.86116C28.8187 4.21524 29.6069 4.65916 29.9814 5.10308C30.0701 5.21711 30.1366 5.60936 30.1905 5.9279C30.198 5.97198 30.2052 6.01466 30.2122 6.05498C30.3132 6.68958 30.443 7.41072 30.818 8.08859C31.1457 8.68953 31.6417 9.12233 32.0852 9.50948L31.7296 9.91704L31.7069 9.89728C31.5705 9.77827 31.4215 9.64824 31.2696 9.50437C31.5048 10.3241 31.4235 11.1343 31.3616 11.7517L31.3562 11.8058C31.3342 12.0263 31.3145 12.2249 31.308 12.3994C31.3019 12.5657 31.3102 12.6661 31.3212 12.7175C31.3242 12.7239 31.3307 12.737 31.3424 12.7576C31.364 12.7954 31.3948 12.8435 31.4352 12.9019C31.5167 13.0199 31.6187 13.1534 31.7277 13.2959C31.7494 13.3242 31.7713 13.3529 31.7929 13.3812C32.2397 13.9434 32.8485 14.7376 33.064 15.782L33.0644 15.7836L33.0647 15.7852C33.2622 16.7728 33.0195 17.6685 32.8368 18.3424L32.8253 18.3849L32.825 18.3861C32.7668 18.5971 32.7137 18.7936 32.6781 18.9651C32.6427 19.1358 32.6363 19.23 32.6381 19.2667C32.6398 19.2728 32.6443 19.2889 32.655 19.3171C32.6712 19.3594 32.6951 19.413 32.7274 19.4781C32.7927 19.6098 32.8767 19.758 32.9664 19.9158C32.9839 19.9466 33.0016 19.9778 33.019 20.0085C33.0192 20.0089 33.0194 20.0093 33.0196 20.0097L33.0265 20.0216C33.3667 20.617 33.8589 21.4782 33.9251 22.5203L33.9253 22.524L33.9255 22.5276C33.9747 23.5116 33.6202 24.3693 33.3538 25.0138L33.3403 25.0465L33.3403 25.0466L33.3381 25.052L33.3372 25.0542L33.3253 25.0834C33.2463 25.2771 33.1729 25.4577 33.1185 25.6165C33.0916 25.695 33.0722 25.7601 33.0599 25.8121C33.0483 25.861 33.0466 25.8836 33.0464 25.8863L33.0464 25.8866C33.0468 25.8904 33.0487 25.9131 33.0599 25.9604C33.0722 26.0124 33.0916 26.0775 33.1185 26.156C33.1729 26.3148 33.2463 26.4954 33.3253 26.6892L33.3357 26.7148C33.6205 27.3699 33.992 28.2296 33.925 29.2528C33.8587 30.2946 33.3667 31.1556 33.0265 31.7508L33.0172 31.7672L33.0159 31.7693C32.9136 31.9446 32.8174 32.111 32.743 32.2582C32.7061 32.3311 32.6785 32.3919 32.6596 32.4405C32.6457 32.4765 32.6402 32.4967 32.6384 32.5038C32.6358 32.5486 32.643 32.6453 32.6779 32.8118C32.7134 32.9813 32.7661 33.1732 32.8249 33.3864L32.8257 33.389L32.8482 33.4739C33.0281 34.1506 33.2586 35.0178 33.0647 35.9873L33.0644 35.9889L33.064 35.9906C32.8529 37.014 32.2479 37.8 31.8259 38.3484L31.7907 38.3942L31.7865 38.3994C31.664 38.5507 31.5481 38.6969 31.4569 38.8265C31.4115 38.8909 31.3768 38.945 31.3523 38.9884C31.3298 39.0281 31.3232 39.046 31.3232 39.046L31.3231 39.0462L31.3225 39.0482C31.3129 39.0807 31.3011 39.1781 31.3081 39.3679C31.3145 39.5444 31.3342 39.7471 31.3562 39.9667L31.3563 39.9677L31.3631 40.0367C31.4249 40.6654 31.5032 41.4616 31.2681 42.284C31.4205 42.1395 31.5701 42.009 31.7069 41.8896L31.7296 41.8699L32.0853 42.2775C31.6417 42.6646 31.1457 43.0974 30.818 43.6984C30.4636 44.3388 30.3411 45.0179 30.2313 45.6262L30.222 45.678C30.2187 45.6961 30.2155 45.7141 30.2122 45.732L30.2091 45.75L30.209 45.7502C30.1514 46.0819 30.0664 46.5706 29.9814 46.6839C29.8167 46.8898 29.3514 47.0304 28.8965 47.1678C28.8735 47.1748 28.8505 47.1817 28.8276 47.1887C28.6722 47.2305 28.5192 47.2773 28.3677 47.3281C28.1537 47.3997 27.9426 47.4792 27.7315 47.5637C27.8013 47.3473 27.8643 47.1309 27.9174 46.9129C27.9739 46.6804 28.019 46.4461 28.0488 46.2079C28.1209 45.7752 28.193 45.3425 28.3372 45.0829C28.4165 44.9244 28.6893 44.6934 28.9562 44.4672C28.9808 44.4465 29.0053 44.4257 29.0295 44.4051C29.0505 44.3868 29.0717 44.3683 29.0931 44.3497L29.4482 44.7578C29.4268 44.7764 29.4058 44.7947 29.385 44.8128L29.3825 44.815L29.3799 44.8172C29.3552 44.8382 29.3303 44.8593 29.3059 44.88C29.1693 44.9957 29.047 45.0995 28.9488 45.1927C28.9004 45.2387 28.8646 45.2758 28.8398 45.3046C28.8263 45.3203 28.8195 45.3296 28.817 45.3331L28.8158 45.3354L28.8101 45.3456C28.7754 45.4081 28.7348 45.5217 28.693 45.7025C28.6531 45.8749 28.6202 46.0702 28.5841 46.2862C28.5658 46.431 28.5423 46.5738 28.5147 46.7148C28.569 46.6989 28.6237 46.6834 28.6787 46.6685C28.6992 46.6623 28.7197 46.6561 28.7401 46.65C28.9737 46.5794 29.1788 46.517 29.3456 46.4498C29.4276 46.4168 29.4873 46.3876 29.5283 46.363C29.5299 46.3621 29.5315 46.3611 29.533 46.3602C29.5462 46.3156 29.5611 46.2559 29.5771 46.1828C29.6132 46.0187 29.6468 45.8258 29.6761 45.6574L29.6796 45.6373ZM34.6832 35.3187C34.6451 35.5352 34.4046 35.8528 34.1701 36.1624C34.139 36.2035 34.1079 36.2445 34.0775 36.2851C33.6737 36.7899 33.2266 37.3812 33.0246 38.1168C32.8083 38.91 32.8804 39.66 32.9525 40.3234C32.9958 40.684 33.0391 41.1744 32.9814 41.3475C32.8804 41.5926 32.5054 41.9244 32.1593 42.2128C32.1351 42.2339 32.1108 42.2552 32.0863 42.2766L32.0853 42.2775L31.7296 41.8699C31.7545 41.8482 31.7789 41.8269 31.8031 41.8057L31.808 41.8014L31.813 41.7972C31.9841 41.6547 32.1485 41.5127 32.2798 41.3814C32.345 41.3161 32.3959 41.2596 32.4327 41.2125C32.4473 41.1938 32.4578 41.179 32.4653 41.1677C32.4658 41.1605 32.4664 41.1516 32.4669 41.1411C32.4692 41.0878 32.4685 41.0171 32.4645 40.9315C32.4563 40.7609 32.4364 40.5627 32.4154 40.3879L32.4151 40.3849L32.4147 40.3819C32.3429 39.7207 32.2565 38.8772 32.5027 37.9744L32.503 37.9736C32.7363 37.1237 33.2466 36.458 33.6498 35.9537C33.6686 35.9287 33.6875 35.9036 33.7063 35.8788C33.7172 35.8644 33.7281 35.85 33.7389 35.8358C33.8591 35.677 33.9651 35.5366 34.0465 35.4111C34.1199 35.298 34.1435 35.2409 34.1491 35.2272C34.1505 35.2239 34.1508 35.2231 34.1505 35.2247L34.1508 35.2233C34.1506 35.2175 34.1502 35.2079 34.1489 35.1938C34.145 35.1512 34.1356 35.0918 34.1198 35.0151C34.0881 34.8608 34.0397 34.6808 33.9896 34.4953L33.9731 34.4342L33.9566 34.3724C33.7893 33.7455 33.5733 32.9364 33.6844 32.0253C33.7837 31.1389 34.2029 30.41 34.5241 29.8517L34.5423 29.8202C34.5683 29.772 34.5948 29.7234 34.6207 29.6759L34.6221 29.6732L35.097 29.9322C35.0779 29.9673 35.0588 30.0022 35.0401 30.0369L35.0272 30.0607L35.015 30.0833L35.0101 30.0918C34.6796 30.6666 34.3078 31.3131 34.2217 32.088C34.1225 32.8959 34.3158 33.6201 34.4867 34.2609L34.4958 34.2947L34.5118 34.3543C34.6098 34.7173 34.7243 35.1411 34.6832 35.3187ZM35.4765 29.0593C35.464 29.2594 35.2779 29.6006 35.097 29.9322L34.6221 29.6732C34.7147 29.5034 34.7975 29.3512 34.8596 29.218C34.8901 29.1524 34.9114 29.1003 34.9248 29.0606C34.9296 29.0463 34.9326 29.0359 34.9345 29.0288C34.9334 29.0223 34.9317 29.0131 34.929 29.001C34.9195 28.9579 34.9029 28.9 34.8784 28.8269C34.8291 28.6796 34.7612 28.5103 34.6908 28.3348L34.6893 28.3312C34.6787 28.3048 34.6681 28.2784 34.6576 28.2523C34.6482 28.2293 34.6388 28.2062 34.6292 28.1828L34.6173 28.1539C34.3708 27.5527 34.0558 26.7845 34.0558 25.8863C34.0558 24.9573 34.3926 24.1529 34.6459 23.5482L34.658 23.5194L34.658 23.5193L34.6586 23.5178C34.6692 23.4913 34.68 23.4645 34.6907 23.4377C34.7612 23.2622 34.8291 23.0929 34.8784 22.9456C34.9029 22.8725 34.9195 22.8146 34.929 22.7716C34.9323 22.7568 34.9341 22.7463 34.9352 22.7397C34.9331 22.7301 34.9283 22.7106 34.9175 22.6793C34.8998 22.6283 34.8726 22.564 34.8347 22.4859C34.7581 22.328 34.6564 22.1502 34.5464 21.9596L34.5436 21.9548L34.541 21.9499C34.5323 21.9341 34.5235 21.9182 34.5146 21.9021L34.479 21.8374C34.1805 21.2964 33.7945 20.5968 33.6853 19.754L33.6851 19.7528L33.685 19.7516C33.5715 18.8436 33.7935 18.0113 33.962 17.3801L33.9734 17.3372L33.9896 17.2773C34.0396 17.0918 34.0881 16.9118 34.1198 16.7574C34.1356 16.6807 34.145 16.6213 34.1489 16.5787C34.1502 16.5646 34.1506 16.555 34.1508 16.5492L34.1505 16.5478C34.1508 16.5494 34.1505 16.5487 34.1491 16.5453C34.1435 16.5317 34.1199 16.4745 34.0465 16.3614C33.9651 16.2359 33.8591 16.0956 33.7388 15.9367L33.7384 15.9361C33.7083 15.8963 33.6774 15.8556 33.6469 15.815C33.262 15.316 32.7538 14.6521 32.5057 13.8084L32.5042 13.8033L32.5027 13.7981C32.2729 12.9555 32.3458 12.1509 32.4013 11.5391L32.4037 11.5121C32.4071 11.4744 32.4105 11.4376 32.4137 11.4012L32.4144 11.3929L32.4154 11.3846C32.4374 11.2015 32.4605 11.0055 32.4701 10.8359C32.475 10.7512 32.4758 10.6844 32.4732 10.6362C32.4729 10.6309 32.4726 10.6262 32.4723 10.622C32.4657 10.6126 32.4564 10.6002 32.4437 10.5845C32.4083 10.5408 32.3593 10.4877 32.2962 10.4253C32.1687 10.2991 32.0123 10.163 31.8484 10.0206L31.8037 9.98179L31.803 9.98123C31.7878 9.96793 31.7725 9.95457 31.7571 9.94108L31.7296 9.91704L32.0852 9.50948C32.1101 9.53117 32.1348 9.55271 32.1593 9.57413L32.2031 9.61223C32.5245 9.89142 32.8848 10.2044 32.9814 10.4251C33.0535 10.5981 32.9958 11.0885 32.9525 11.4491C32.9492 11.486 32.9459 11.5232 32.9425 11.5608C32.886 12.1851 32.8206 12.9076 33.0246 13.6558C33.241 14.3913 33.6881 14.9827 34.0775 15.4875C34.1077 15.5278 34.1386 15.5685 34.1695 15.6094L34.1701 15.6101C34.4046 15.9198 34.6451 16.2373 34.6832 16.4538C34.7243 16.6315 34.6098 17.0552 34.5118 17.4182L34.4958 17.4778L34.4926 17.4895C34.3203 18.1358 34.1214 18.8817 34.2217 19.6845C34.3177 20.4249 34.6614 21.048 34.9677 21.6034C34.9836 21.6322 34.9993 21.6608 35.015 21.6892C35.2313 22.0642 35.4621 22.4681 35.4765 22.7133C35.4898 22.8998 35.3308 23.2957 35.1927 23.6393L35.1927 23.6394C35.1814 23.6676 35.1702 23.6955 35.1592 23.7229L35.1569 23.7282C34.8978 24.3472 34.5967 25.0665 34.5967 25.8863C34.5967 26.6774 34.8772 27.3617 35.1297 27.9777L35.1592 28.0497C35.1702 28.0771 35.1814 28.1049 35.1927 28.1332C35.3307 28.4767 35.4898 28.8727 35.4765 29.0593ZM29.9831 7.51078C29.8234 7.02192 29.743 6.54847 29.6786 6.14392C29.6715 6.10332 29.6643 6.06075 29.6571 6.01822C29.6296 5.85533 29.6019 5.6931 29.5714 5.55822C29.5567 5.49314 29.5435 5.44468 29.5326 5.41185C29.3876 5.25463 29.1519 5.07369 28.8478 4.87899C28.707 4.78885 28.5593 4.7005 28.4097 4.61447C28.4749 4.88247 28.5204 5.13951 28.5614 5.37177L28.568 5.40868C28.5725 5.43415 28.5769 5.45931 28.5814 5.48433L28.5819 5.48722L28.5824 5.4901C28.6191 5.71037 28.6524 5.90925 28.693 6.08443C28.733 6.25734 28.7719 6.36886 28.8056 6.43286C28.8094 6.43823 28.8226 6.45643 28.8517 6.4888C28.8866 6.52756 28.9328 6.57416 28.9896 6.62772C29.1037 6.73527 29.2411 6.85286 29.378 6.9681L29.3815 6.97109L29.385 6.97414C29.4058 6.99225 29.4268 7.01052 29.4482 7.02916L29.4732 7.05088C29.6299 7.1872 29.8045 7.3391 29.9831 7.51078ZM29.5224 5.38464C29.5224 5.38464 29.5229 5.38554 29.5238 5.38759C29.5229 5.38572 29.5224 5.38464 29.5224 5.38464ZM33.0679 46.2079L33.0634 46.2339C32.9347 46.9778 32.787 47.8314 32.2025 48.53C32.1732 48.5647 32.1432 48.5988 32.1126 48.6323C31.8127 48.9603 31.4544 49.2279 31.0487 49.4242C31.5079 49.3955 31.9683 49.2823 32.4254 49.0889C34.2651 48.3107 36.0516 46.2348 37.4957 43.1503C39.5581 38.7225 40.6831 32.8236 40.6831 26.5064C40.6831 20.1749 39.5726 14.2615 37.5534 9.86259C36.3521 7.24735 34.9012 5.35948 33.3701 4.36853C33.1364 4.2173 32.9009 4.08696 32.6641 3.97811C32.7601 4.21809 32.8398 4.4646 32.9047 4.71608C32.9764 4.99356 33.0301 5.2771 33.0679 5.56461C33.14 5.99729 33.2121 6.42997 33.3564 6.68958C33.4573 6.86266 33.7746 7.13669 34.0486 7.36745C34.0694 7.38553 34.0903 7.40375 34.1114 7.42212L34.1122 7.4228C34.6634 7.90244 35.3313 8.48362 35.6784 9.37222C35.9935 10.1885 35.9104 11.0189 35.8386 11.7365L35.8371 11.752C35.7938 12.1847 35.7505 12.6173 35.8226 12.8769C35.8748 13.0463 36.1034 13.3452 36.3172 13.6246L36.3537 13.6723C36.3643 13.6861 36.3747 13.6998 36.3851 13.7135C36.8322 14.276 37.3659 14.9827 37.5534 15.8913C37.7258 16.7535 37.5117 17.5441 37.3247 18.2346L37.3226 18.2422C37.2072 18.6605 37.0919 19.0931 37.1207 19.3383C37.1469 19.5348 37.3396 19.8739 37.5152 20.183L37.5452 20.2359C37.5528 20.2493 37.5603 20.2626 37.5678 20.2758C37.9139 20.8816 38.3466 21.646 38.4043 22.5546C38.4474 23.4166 38.1327 24.1784 37.8595 24.8401L37.8563 24.8478L37.8434 24.8793L37.8434 24.8794C37.6884 25.2597 37.5245 25.6617 37.5245 25.8863C37.5245 26.1108 37.6884 26.5129 37.8434 26.8931L37.8563 26.9247C38.1447 27.5881 38.462 28.3381 38.4043 29.2179C38.3466 30.1266 37.9139 30.891 37.5678 31.4967C37.3659 31.8429 37.1495 32.2179 37.1207 32.4342C37.0919 32.6938 37.2072 33.1121 37.3226 33.5303L37.3356 33.5791C37.5198 34.2728 37.7225 35.0357 37.5534 35.8812C37.3675 36.7821 36.8271 37.4845 36.3962 38.0447L36.3851 38.0591C36.1399 38.3619 35.8803 38.6937 35.8226 38.8956C35.7505 39.1408 35.7938 39.5879 35.8371 40.0206L35.8402 40.0526C35.9116 40.7799 35.9911 41.5901 35.6784 42.4003C35.3313 43.2889 34.6634 43.8701 34.1122 44.3497L34.1075 44.3538C34.0877 44.371 34.0681 44.3881 34.0486 44.4051C34.0244 44.4257 33.9999 44.4464 33.9754 44.4672C33.7084 44.6933 33.4356 44.9244 33.3564 45.0829C33.2121 45.3425 33.14 45.7752 33.0679 46.2079ZM34.325 44.88C34.1884 44.9957 34.0661 45.0995 33.968 45.1927C33.9195 45.2387 33.8837 45.2758 33.8589 45.3046C33.8454 45.3203 33.8386 45.3296 33.8361 45.3331L33.8349 45.3354L33.8292 45.3456C33.7946 45.4081 33.7539 45.5217 33.7121 45.7025C33.6715 45.8777 33.6382 46.0766 33.6015 46.2968L33.6012 46.2985L33.5894 46.3668C33.5031 46.8667 33.3955 47.4892 33.1123 48.0939C33.4355 47.8729 33.7601 47.6052 34.0841 47.2897C35.1222 46.2789 36.123 44.8065 37.0058 42.9209C39.0262 38.5829 40.1422 32.767 40.1422 26.5064C40.1422 20.2296 39.04 14.398 37.0617 10.0883C36.0122 7.80326 34.7957 6.1465 33.5543 5.16615C33.5726 5.272 33.5889 5.37822 33.603 5.48469C33.6391 5.70137 33.6721 5.89722 33.7121 6.07001C33.7521 6.24291 33.791 6.35443 33.8247 6.41843C33.8285 6.4238 33.8417 6.442 33.8708 6.47438C33.9057 6.51314 33.9519 6.55974 34.0087 6.6133C34.1228 6.72085 34.2602 6.83844 34.3971 6.95368L34.4006 6.95666L34.4041 6.95971C34.4249 6.97782 34.4459 6.9961 34.4673 7.01473L34.4923 7.03645C35.0329 7.50667 35.7865 8.16226 36.1823 9.17539L36.1827 9.17641L36.1831 9.17743C36.5448 10.1147 36.4506 11.0551 36.3806 11.7536L36.3753 11.8058C36.3533 12.0263 36.3336 12.2249 36.3272 12.3994C36.321 12.5657 36.3293 12.6661 36.3403 12.7175C36.3433 12.7239 36.3498 12.737 36.3615 12.7576C36.3832 12.7954 36.4139 12.8435 36.4543 12.9019C36.5358 13.0199 36.6379 13.1535 36.7469 13.2959L36.7715 13.3281C36.785 13.3458 36.7986 13.3635 36.812 13.3812C37.2588 13.9433 37.8677 14.7376 38.0832 15.782L38.0835 15.7836L38.0838 15.7852C38.2813 16.7728 38.0386 17.6685 37.8559 18.3424L37.8444 18.3848L37.8441 18.3861C37.7859 18.5971 37.7328 18.7936 37.6972 18.9651C37.6618 19.1358 37.6554 19.23 37.6573 19.2667C37.6589 19.2728 37.6634 19.2889 37.6742 19.3171C37.6903 19.3594 37.7142 19.413 37.7465 19.4781C37.8119 19.6098 37.8959 19.758 37.9855 19.9158C37.9966 19.9353 38.0078 19.955 38.0189 19.9745C38.0253 19.9859 38.0317 19.9973 38.0381 20.0086C38.0383 20.0089 38.0385 20.0093 38.0387 20.0096L38.0456 20.0217C38.3858 20.617 38.878 21.4782 38.9442 22.5203L38.9444 22.524L38.9446 22.5276C38.9938 23.5116 38.6393 24.3693 38.373 25.0138L38.3594 25.0466L38.3594 25.0467L38.3572 25.052L38.3562 25.0545L38.3444 25.0834C38.2654 25.2772 38.192 25.4578 38.1376 25.6165C38.1107 25.695 38.0913 25.7601 38.079 25.8121C38.0674 25.861 38.0658 25.8836 38.0655 25.8863L38.0655 25.8866C38.0659 25.8904 38.0678 25.9131 38.079 25.9604C38.0913 26.0124 38.1107 26.0775 38.1376 26.156C38.192 26.3148 38.2654 26.4953 38.3444 26.6891L38.3548 26.7147C38.6396 27.3698 39.0111 28.2295 38.9441 29.2528M34.325 44.88C34.3376 44.8693 34.3504 44.8585 34.3632 44.8476C34.3751 44.8375 34.3871 44.8274 34.399 44.8172L34.4016 44.815L34.4041 44.8128C34.4249 44.7947 34.4459 44.7764 34.4673 44.7578L34.4923 44.7361C35.0329 44.2659 35.7865 43.6103 36.1823 42.5971L36.1827 42.5961L36.1831 42.5951C36.5423 41.6644 36.4518 40.7444 36.3822 40.0367L36.3754 39.9678L36.3753 39.9667C36.3534 39.7471 36.3336 39.5444 36.3272 39.3679C36.3202 39.1781 36.3321 39.0807 36.3416 39.0482L36.3422 39.0462L36.3424 39.0457C36.3415 39.0488 36.3471 39.0313 36.3714 38.9884C36.3959 38.945 36.4306 38.8909 36.476 38.8265C36.5672 38.6969 36.6831 38.5507 36.8056 38.3994L36.8098 38.3942L36.8249 38.3745L36.845 38.3484C37.267 37.8001 37.872 37.014 38.0832 35.9906L38.0835 35.9889L38.0838 35.9873C38.2777 35.0178 38.0472 34.1507 37.8673 33.4739L37.8448 33.389L37.8441 33.3865C37.7853 33.1732 37.7325 32.9813 37.697 32.8118C37.6621 32.6454 37.6549 32.5487 37.6575 32.5039C37.6593 32.4967 37.6648 32.4765 37.6788 32.4405C37.6976 32.3919 37.7253 32.3311 37.7621 32.2582C37.8365 32.111 37.9328 31.9446 38.0351 31.7693L38.0363 31.7672L38.0456 31.7509C38.3858 31.1556 38.8778 30.2946 38.9441 29.2528M15.6313 34.0125C16.3488 32.1635 16.7629 29.4957 16.7629 26.5064C16.7629 23.5174 16.3489 20.8499 15.6315 19.001C15.4927 18.647 15.2405 18.0731 14.9103 17.5965C14.7451 17.3581 14.5748 17.1653 14.4077 17.0364C14.242 16.9085 14.1084 16.8649 14.001 16.8649C13.8924 16.8649 13.7583 16.9087 13.593 17.0354C13.4262 17.1633 13.2561 17.3547 13.0912 17.5919C12.7613 18.0665 12.5092 18.6405 12.3713 18.9989L12.3711 18.9996L12.3708 19.0004C11.6533 20.8493 11.2392 23.5171 11.2392 26.5064C11.2392 29.4981 11.6394 32.165 12.3563 34.0125L12.3566 34.0132L12.3569 34.014C12.4939 34.37 12.7492 34.9441 13.0826 35.4189C13.2492 35.6562 13.4211 35.8481 13.5895 35.9765C13.7567 36.1039 13.8921 36.1479 14.001 36.1479C14.1096 36.1479 14.2437 36.1042 14.409 35.9774C14.5759 35.8495 14.7459 35.6581 14.9108 35.421C15.2408 34.9463 15.4929 34.3723 15.6307 34.014L15.6313 34.0125ZM16.1356 18.8047C16.8856 20.7373 17.3038 23.4776 17.3038 26.5064C17.3038 29.5352 16.8856 32.2755 16.1356 34.2082C15.8471 34.9581 15.0539 36.6889 14.001 36.6889C12.9482 36.6889 12.1405 34.9581 11.852 34.2082C11.1021 32.2755 10.6982 29.5352 10.6982 26.5064C10.6982 23.4776 11.1165 20.7373 11.8665 18.8047C12.1549 18.0547 12.9482 16.324 14.001 16.324C15.0539 16.324 15.8471 18.0691 16.1356 18.8047ZM8.99915 16.7551C10.1174 14.3813 11.8089 12.884 13.9866 12.884C16.1638 12.884 17.859 14.3807 18.981 16.7544C20.1039 19.1301 20.7149 22.4885 20.7149 26.5064C20.7149 30.5239 20.1076 33.8822 18.9885 36.2578C17.8702 38.6315 16.1787 40.1288 14.001 40.1288C11.8238 40.1288 10.1287 38.6321 9.00666 36.2584C7.88371 33.8827 7.27272 30.5243 7.27272 26.5064C7.27272 22.4889 7.88 19.1307 8.99915 16.7551ZM13.9866 13.425C10.2223 13.425 7.81367 18.5595 7.81367 26.5064C7.81367 34.4534 10.2367 39.5879 14.001 39.5879C17.7654 39.5879 20.174 34.4534 20.174 26.5064C20.174 18.5595 17.7509 13.425 13.9866 13.425Z" fill="#24429A"/>
</svg>
