<svg width="36" height="36" viewBox="0 0 36 36" fill="none" xmlns="http://www.w3.org/2000/svg">
<path d="M17.9 35.8887C27.5649 35.8887 35.4 28.0537 35.4 18.3887C35.4 8.72369 27.5649 0.888672 17.9 0.888672C8.23498 0.888672 0.399963 8.72369 0.399963 18.3887C0.399963 28.0537 8.23498 35.8887 17.9 35.8887Z" fill="white"/>
<path fill-rule="evenodd" clip-rule="evenodd" d="M17.2389 26.064H18.6125C18.6125 26.064 19.0274 26.0184 19.2392 25.7901C19.4342 25.5804 19.4279 25.1868 19.4279 25.1868C19.4279 25.1868 19.4011 23.3437 20.2565 23.0723C21.0997 22.805 22.1825 24.8536 23.3301 25.6413C24.198 26.2374 24.8575 26.1067 24.8575 26.1067L27.9262 26.064C27.9262 26.064 29.5315 25.9651 28.7703 24.7029C28.7079 24.5997 28.327 23.7692 26.4887 22.0628C24.5646 20.2769 24.8222 20.5658 27.14 17.4765C28.5516 15.5951 29.116 14.4465 28.9397 13.9545C28.7716 13.486 27.7334 13.6098 27.7334 13.6098L24.2782 13.6313C24.2782 13.6313 24.0221 13.5964 23.8321 13.71C23.6465 13.8213 23.527 14.0809 23.527 14.0809C23.527 14.0809 22.9801 15.5368 22.2508 16.7749C20.7122 19.3875 20.0971 19.5254 19.8456 19.3632C19.2607 18.9851 19.4067 17.8443 19.4067 17.0338C19.4067 14.502 19.7907 13.4464 18.6589 13.1731C18.2834 13.0823 18.007 13.0224 17.0465 13.0127C15.8136 13 14.7701 13.0165 14.1793 13.306C13.7862 13.4985 13.483 13.9274 13.6677 13.952C13.896 13.9826 14.4133 14.0915 14.6875 14.4649C15.0415 14.9465 15.0291 16.0284 15.0291 16.0284C15.0291 16.0284 15.2324 19.0088 14.5539 19.3791C14.0882 19.633 13.4493 19.1146 12.0777 16.7443C11.3748 15.5302 10.8442 14.1882 10.8442 14.1882C10.8442 14.1882 10.7419 13.9374 10.5594 13.8032C10.3379 13.6407 10.0284 13.5889 10.0284 13.5889L6.74511 13.6104C6.74511 13.6104 6.25223 13.6242 6.07129 13.8385C5.91032 14.0291 6.0585 14.4234 6.0585 14.4234C6.0585 14.4234 8.629 20.4373 11.5395 23.4679C14.2083 26.2465 17.2389 26.064 17.2389 26.064Z" fill="#24429A"/>
</svg>
