<svg width="57" height="55" viewBox="0 0 57 55" fill="none" xmlns="http://www.w3.org/2000/svg">
<path fill-rule="evenodd" clip-rule="evenodd" d="M27.8086 4.33305C26.8094 4.3469 25.9366 4.83732 25.4143 5.67849L25.3995 5.70197L22.0888 10.8837C21.4468 11.8885 20.1117 12.1826 19.1068 11.5406C18.102 10.8986 17.8079 9.56357 18.4499 8.55871L21.754 3.38737C23.0503 1.30981 25.2902 0.0494031 27.7486 0.0153234C30.2105 -0.0179989 32.4916 1.1842 33.8446 3.23363L44.1811 18.9137L45.4581 11.9239C45.6723 10.751 46.7971 9.9734 47.97 10.188C49.143 10.4024 49.9202 11.527 49.7059 12.7L48.3419 20.1663C47.7731 23.2882 45.0401 25.4822 41.9727 25.4822C41.5887 25.4822 41.1999 25.4479 40.8089 25.3766L40.785 25.3721L33.3526 23.9314C32.1819 23.7045 31.4168 22.5716 31.6438 21.401C31.8708 20.2304 33.0039 19.4657 34.1743 19.6923L40.3059 20.8808L30.2403 5.61153C29.695 4.78561 28.8054 4.31704 27.8086 4.33305ZM19.9931 19.3437C19.368 15.8304 16.003 13.4799 12.4901 14.0999L4.89995 15.3981C3.72469 15.5991 2.9348 16.7148 3.13582 17.8902C3.33683 19.0656 4.4528 19.8551 5.62796 19.6543L12.2652 18.5191L1.80877 35.3553C0.430325 37.5749 0.362707 40.2584 1.62798 42.5335C2.90797 44.835 5.25698 46.2092 7.91162 46.2092H17.2518C18.4443 46.2092 19.4108 45.2426 19.4108 44.0502C19.4108 42.8577 18.4443 41.8912 17.2518 41.8912H7.91162C6.84725 41.8912 5.90903 41.3467 5.40184 40.4348C5.16545 40.0097 4.69948 38.8857 5.47714 37.6336L15.8806 20.8821L17.1507 28.0197C17.3368 29.0657 18.2471 29.8009 19.2738 29.8009C19.3993 29.8009 19.5266 29.7897 19.6545 29.7671C20.8285 29.5582 21.6109 28.4372 21.4021 27.2632L19.9931 19.3437ZM54.9275 35.1941L50.8985 29.0481C50.2446 28.0509 48.9063 27.7726 47.9091 28.4261C46.9118 29.0799 46.6335 30.4183 47.2871 31.4155L51.3199 37.5674C51.8959 38.4399 51.9445 39.5099 51.4497 40.4294C50.9452 41.367 50.0024 41.9268 48.9276 41.9268H29.1792L34.4498 36.736C35.2994 35.8993 35.3099 34.5323 34.4732 33.6827C33.6366 32.8332 32.2696 32.8226 31.4199 33.6594L25.7456 39.2477C24.5114 40.4717 23.8319 42.1005 23.8319 43.8339C23.8319 45.5673 24.5114 47.1961 25.7412 48.4157L31.2291 53.8907C31.6505 54.3111 32.2023 54.5212 32.754 54.5212C33.3073 54.5212 33.8608 54.3097 34.2825 53.887C35.1246 53.0428 35.123 51.6758 34.2788 50.8336L29.6789 46.2447H48.9275C51.5777 46.2447 54.0012 44.8004 55.2523 42.4754C56.5127 40.1334 56.3899 37.4093 54.9275 35.1941Z" fill="#24429A"/>
</svg>
