<svg width="36" height="36" viewBox="0 0 36 36" fill="none" xmlns="http://www.w3.org/2000/svg">
<path fill-rule="evenodd" clip-rule="evenodd" d="M21.4557 17.7296C21.4435 18.3865 21.2383 19.0249 20.8656 19.5652C20.493 20.1055 19.9695 20.5236 19.361 20.7665C18.7525 21.0095 18.086 21.067 17.4452 20.9314C16.8044 20.7957 16.2177 20.4734 15.759 20.0045C15.3002 19.5356 14.9897 18.9408 14.8664 18.2955C14.7432 17.6502 14.8127 16.9823 15.0662 16.3765C15.3197 15.7706 15.7459 15.2534 16.2913 14.8897C16.8368 14.5259 17.4772 14.3326 18.1321 14.3327C19.0206 14.3449 19.8684 14.7088 20.4908 15.345C21.1133 15.9813 21.4601 16.8381 21.4557 17.7296V17.7296ZM25.9059 11.7592C25.744 11.3309 25.4892 10.9435 25.1599 10.6263C24.8462 10.2909 24.4514 10.0435 24.0137 9.90648C23.4186 9.69786 22.7921 9.5926 22.1616 9.59685C20.8216 9.4835 19.4761 9.44953 18.1321 9.49432C16.7877 9.44951 15.4419 9.48348 14.1015 9.59685C13.4728 9.59292 12.848 9.69819 12.2545 9.90648C11.8165 10.0432 11.4213 10.2907 11.1074 10.6263C10.7785 10.9439 10.5238 11.3312 10.3614 11.7592C10.145 12.389 10.029 13.0484 10.0176 13.7145C9.96939 14.7439 9.95914 15.0531 9.95914 17.7296C9.95914 20.406 9.96939 20.7152 10.0176 21.7447C10.029 22.4107 10.145 23.0702 10.3614 23.6999C10.5238 24.1279 10.7785 24.5152 11.1074 24.8329C11.4211 25.1682 11.8159 25.4156 12.2535 25.5527C12.8487 25.7613 13.4752 25.8665 14.1056 25.8623C15.4457 25.9756 16.7911 26.0096 18.1352 25.9648C19.4795 26.0096 20.8254 25.9757 22.1657 25.8623C22.7962 25.8665 23.4227 25.7613 24.0179 25.5527C24.444 25.3922 24.8323 25.1448 25.1581 24.8258C25.4838 24.5069 25.7399 24.1235 25.91 23.6999C26.1264 23.0702 26.2424 22.4107 26.2537 21.7447C26.302 20.7152 26.3122 20.406 26.3122 17.7296C26.3122 15.0531 26.302 14.7439 26.2537 13.7145C26.2426 13.0483 26.1262 12.3888 25.909 11.7592H25.9059ZM18.1321 22.8766C17.1169 22.8786 16.124 22.5784 15.2789 22.0141C14.4339 21.4497 13.7747 20.6463 13.3848 19.7059C12.9949 18.7656 12.8918 17.7304 13.0886 16.7313C13.2854 15.7322 13.7732 14.8143 14.4904 14.0935C15.2075 13.3726 16.1216 12.8815 17.1171 12.6821C18.1126 12.4826 19.1448 12.5843 20.0828 12.9736C21.0209 13.3629 21.8228 14.0219 22.387 14.8685C22.9512 15.7152 23.2524 16.7111 23.2524 17.7296C23.2562 18.4057 23.1264 19.0754 22.8706 19.7009C22.6147 20.3264 22.2379 20.8951 21.7618 21.3737C21.2857 21.8523 20.7198 22.2316 20.0968 22.4896C19.4738 22.7475 18.806 22.8791 18.1321 22.8766ZM23.4555 13.6119C23.1371 13.5966 22.8363 13.4603 22.614 13.2309C22.3917 13.0016 22.2645 12.6963 22.2581 12.3765C22.2534 12.2158 22.2809 12.0558 22.3389 11.906C22.397 11.7562 22.4844 11.6202 22.596 11.5049C22.7076 11.3896 22.8411 11.298 22.9887 11.2355C23.1363 11.1729 23.2948 11.14 23.455 11.14C23.6152 11.14 23.7738 11.1729 23.9214 11.2355C24.0689 11.298 24.2025 11.3896 24.3141 11.5049C24.4257 11.6202 24.5131 11.7562 24.5711 11.906C24.6292 12.0558 24.6567 12.2158 24.652 12.3765C24.6459 12.6962 24.5189 13.0016 24.2967 13.2309C24.0746 13.4603 23.7739 13.5966 23.4555 13.6119V13.6119ZM18.1321 0.229658C14.6788 0.214578 11.2988 1.22823 8.42021 3.14195C5.54161 5.05568 3.29398 7.78379 1.96204 10.9801C0.630109 14.1765 0.273809 17.6966 0.938284 21.0962C1.60276 24.4959 3.25811 27.6214 5.69462 30.0764C8.13114 32.5314 11.2392 34.2062 14.625 34.8877C18.0108 35.5691 21.5221 35.2268 24.714 33.9045C27.9059 32.5823 30.6347 30.3391 32.5548 27.4597C34.475 24.5802 35.5 21.194 35.5 17.7296C35.5058 15.4362 35.0611 13.1643 34.1913 11.0435C33.3214 8.9226 32.0435 6.99483 30.4306 5.36965C28.8177 3.74447 26.9014 2.45358 24.7911 1.57171C22.6809 0.689835 20.4181 0.233843 18.1321 0.229658ZM28.0443 21.8472C28.0363 22.6916 27.8796 23.5284 27.5815 24.3182C27.324 24.977 26.9312 25.5738 26.4286 26.0704C25.926 26.567 25.3249 26.9521 24.6643 27.2003C23.9098 27.5628 23.0799 27.7393 22.2437 27.715C21.1796 27.715 20.84 27.8175 18.1321 27.8175C15.4242 27.8175 15.0835 27.715 14.0195 27.715C13.1832 27.7393 12.3533 27.5628 11.5989 27.2003C10.9253 26.9765 10.3183 26.5866 9.83292 26.0674C9.34011 25.5643 8.94944 24.9708 8.68265 24.3182C8.38416 23.5285 8.22715 22.6917 8.21886 21.8472C8.1696 20.8178 8.15831 20.509 8.15831 17.7296C8.15831 14.9502 8.1696 14.6413 8.21886 13.6119C8.22688 12.7675 8.38354 11.9307 8.68162 11.141C8.94841 10.4881 9.33948 9.89453 9.83292 9.39178C10.3183 8.87253 10.9253 8.48267 11.5989 8.25883C12.3533 7.89629 13.1832 7.71983 14.0195 7.74412C15.0835 7.74412 15.4232 7.64159 18.1321 7.64159C20.841 7.64159 21.1796 7.74412 22.2437 7.74412C23.0799 7.71983 23.9098 7.89629 24.6643 8.25883C25.338 8.48287 25.9454 8.87269 26.4313 9.39178C26.9241 9.89484 27.3147 10.4884 27.5815 11.141C27.8796 11.9307 28.0363 12.7675 28.0443 13.6119C28.0936 14.6413 28.1048 14.9502 28.1048 17.7296C28.1048 20.509 28.0936 20.8178 28.0443 21.8472Z" fill="white"/>
</svg>
