<svg width="45" height="43" viewBox="0 0 45 43" fill="none" xmlns="http://www.w3.org/2000/svg">
<path d="M36.5521 15.6891C36.5946 15.2482 36.6164 14.8012 36.6164 14.3493C36.6164 6.71052 30.4017 0.49585 22.7629 0.49585C15.1241 0.49585 8.90942 6.71052 8.90942 14.3493C8.90942 14.7767 8.9289 15.1996 8.967 15.6172C4.00182 17.7255 0.510742 22.6507 0.510742 28.376C0.510742 36.0148 6.72542 42.2295 14.3642 42.2295C17.4803 42.2295 20.3594 41.1952 22.6763 39.4521C24.9932 41.1952 27.8723 42.2295 30.9884 42.2295C32.9515 42.2295 34.8495 41.8267 36.6295 41.0323C37.5028 40.6425 37.8948 39.6185 37.505 38.7452C37.1153 37.8719 36.0913 37.4799 35.2179 37.8696C33.8851 38.4644 32.4621 38.7661 30.9884 38.7661C28.8467 38.7661 26.8544 38.1147 25.199 36.9998C27.0876 34.6318 28.2177 31.6334 28.2177 28.376C28.2177 27.9486 28.1982 27.5257 28.1601 27.1081C31.6632 25.6207 34.4324 22.731 35.7596 19.1476C39.0949 20.8789 41.3785 24.3658 41.3785 28.376C41.3785 29.8778 41.0656 31.3257 40.4485 32.6797C40.0519 33.5499 40.4358 34.577 41.306 34.9736C42.1763 35.3703 43.2033 34.9863 43.6 34.1161C44.424 32.3081 44.8419 30.3769 44.8419 28.376C44.8419 22.7149 41.4287 17.8361 36.5521 15.6891ZM14.3642 38.7661C8.63512 38.7661 3.97411 34.1051 3.97411 28.376C3.97411 24.3076 6.32462 20.7778 9.73889 19.0733C11.0345 22.634 13.751 25.5181 17.1992 27.0362C17.1567 27.4772 17.1349 27.9241 17.1349 28.376C17.1349 31.6334 18.265 34.6318 20.1537 36.9998C18.4983 38.1147 16.5059 38.7661 14.3642 38.7661ZM17.9917 23.5778C15.7455 22.4117 13.9762 20.4495 13.0604 18.0673C13.4876 18.0136 13.9227 17.9859 14.3642 17.9859C16.5059 17.9859 18.4983 18.6372 20.1537 19.7522C19.2426 20.8946 18.508 22.1837 17.9917 23.5778ZM22.6763 34.6035C21.372 32.8669 20.5983 30.7101 20.5983 28.376C20.5983 28.2618 20.6002 28.148 20.6038 28.0348C21.3075 28.1453 22.0287 28.2028 22.7629 28.2028C23.4373 28.2028 24.1006 28.1543 24.7496 28.0607C24.7527 28.1654 24.7543 28.2705 24.7543 28.376C24.7543 30.7101 23.9806 32.8669 22.6763 34.6035ZM21.2943 24.636C21.641 23.7405 22.1083 22.9046 22.6763 22.1485C23.2489 22.9109 23.7192 23.7542 24.0668 24.6581C23.6396 24.7117 23.2044 24.7395 22.7629 24.7395C22.2645 24.7395 21.7742 24.7041 21.2943 24.636ZM27.3882 23.652C26.8706 22.2295 26.1263 20.9149 25.199 19.7522C26.8544 18.6372 28.8467 17.9859 30.9884 17.9859C31.4868 17.9859 31.9771 18.0212 32.457 18.0893C31.5187 20.5128 29.6967 22.4996 27.3882 23.652ZM33.1475 14.6906C32.4438 14.58 31.7226 14.5225 30.9884 14.5225C27.8723 14.5225 24.9932 15.5568 22.6763 17.2999C20.3594 15.5568 17.4803 14.5225 14.3642 14.5225C13.6898 14.5225 13.0265 14.571 12.3776 14.6646C12.3744 14.5599 12.3728 14.4548 12.3728 14.3493C12.3728 8.62023 17.0338 3.95922 22.7629 3.95922C28.492 3.95922 33.153 8.62023 33.153 14.3493C33.153 14.4635 33.1511 14.5773 33.1475 14.6906Z" fill="white"/>
</svg>
