<svg width="36" height="36" viewBox="0 0 36 36" fill="none" xmlns="http://www.w3.org/2000/svg">
<path fill-rule="evenodd" clip-rule="evenodd" d="M18.4065 14.7264C18.999 14.7203 19.5765 14.5393 20.0662 14.2056C20.556 13.872 20.936 13.4008 21.1585 12.8516C21.3811 12.3024 21.4361 11.6988 21.3168 11.1184C21.1974 10.5379 20.909 10.0063 20.4878 9.58939C20.0666 9.17253 19.5315 8.88974 18.9499 8.77637C18.3682 8.66299 17.7661 8.72415 17.2192 8.95232C16.6722 9.18049 16.2051 9.56547 15.8765 10.0586C15.5479 10.5517 15.3725 11.1305 15.3724 11.7231C15.3787 12.5229 15.7014 13.288 16.2699 13.8507C16.8384 14.4134 17.6066 14.7284 18.4065 14.7264ZM18.3899 0.229492C14.9287 0.229492 11.5453 1.25633 8.66748 3.17924C5.78964 5.10215 3.54664 7.83473 2.22211 11.0324C0.897592 14.2301 0.551043 17.749 1.22628 21.1437C1.90152 24.5383 3.5682 27.6567 6.0156 30.1041C8.463 32.5515 11.5812 34.218 14.9758 34.8933C18.3705 35.5685 21.8891 35.2218 25.0868 33.8972C28.2845 32.5727 31.0176 30.3295 32.9405 27.4517C34.8634 24.5738 35.8898 21.1909 35.8898 17.7298C35.8843 13.0898 34.0385 8.64118 30.7574 5.36045C27.4763 2.07972 23.0277 0.234425 18.3878 0.229492H18.3899ZM18.4147 5.51011C20.0573 5.55785 21.6165 6.24472 22.7606 7.42436C23.9046 8.604 24.5433 10.1839 24.5407 11.8272C24.5091 13.0387 24.1206 14.2141 23.4239 15.2057C22.7273 16.1974 21.7534 16.9606 20.6244 17.4011C19.4954 17.8416 18.2615 17.939 17.0773 17.6812C15.8931 17.4234 14.8114 16.822 13.9677 15.952C13.124 15.0821 12.5558 13.9824 12.3344 12.7909C12.113 11.5994 12.2482 10.3697 12.723 9.25468C13.1979 8.13969 13.9913 7.18935 15.0038 6.52336C16.0163 5.85737 17.2029 5.50461 18.4147 5.51011ZM25.3173 20.3185C24.573 21.1003 23.6605 21.7015 22.6489 22.078C21.6642 22.392 20.6488 22.6008 19.6201 22.6999C19.7218 22.8436 19.831 22.9812 19.9473 23.1135C21.3493 24.4597 22.7576 25.91 24.1555 27.3597C24.3763 27.5446 24.5275 27.7993 24.5839 28.0817C24.6404 28.3641 24.5989 28.6573 24.4662 28.9129C24.3286 29.2125 24.1105 29.4672 23.8363 29.6501C23.562 29.8329 23.2423 29.9366 22.9129 29.9484C22.7206 29.94 22.5325 29.8892 22.3621 29.7997C22.1917 29.7102 22.0432 29.5842 21.9271 29.4306C20.8689 28.3952 19.7909 27.359 18.7544 26.22C18.452 25.9094 18.3081 26.0129 18.0409 26.22C16.9764 27.359 15.8954 28.3947 14.8071 29.5338C14.5928 29.7399 14.3178 29.8716 14.0228 29.909C13.7279 29.9463 13.4288 29.8873 13.17 29.7411C12.8777 29.6318 12.6276 29.4323 12.4558 29.1718C12.2841 28.9112 12.1995 28.6027 12.2142 28.291C12.2527 27.8937 12.4372 27.5247 12.7319 27.2555C14.1195 25.8058 15.5029 24.4597 16.8863 23.1135C17.0016 22.9847 17.1056 22.8467 17.197 22.6999C15.381 22.6077 13.6294 21.9966 12.15 20.9394C11.9688 20.8358 11.7824 20.6283 11.6178 20.5248C11.3171 20.2763 11.1272 19.919 11.09 19.5307C11.0527 19.1425 11.171 18.7549 11.4189 18.4538C11.5171 18.3011 11.6444 18.17 11.7936 18.0665C11.9428 17.963 12.1109 17.8896 12.2883 17.8511C12.4657 17.8126 12.649 17.8096 12.8277 17.842C13.0063 17.8744 13.1768 17.9418 13.3294 18.0402C13.4858 18.0641 13.6306 18.1368 13.7436 18.2475C15.0892 19.174 16.6804 19.6781 18.314 19.6966C19.9477 19.715 21.5498 19.2466 22.916 18.3506C23.1606 18.1186 23.4745 17.9727 23.8097 17.936C24.1067 17.8228 24.4351 17.8243 24.7315 17.9391C25.028 18.0538 25.2713 18.2742 25.4147 18.558C25.6171 18.8123 25.7191 19.1324 25.7011 19.4569C25.6832 19.7815 25.5466 20.0881 25.3173 20.3185Z" fill="white"/>
</svg>
