<svg width="27" height="25" viewBox="0 0 27 25" fill="none" xmlns="http://www.w3.org/2000/svg">
<path d="M25.4666 19.7738L21.597 15.9038C20.8262 15.1361 19.5499 15.1594 18.7523 15.9573L16.8027 17.9064C16.6796 17.8385 16.5521 17.7676 16.418 17.6924C15.1869 17.0103 13.502 16.0753 11.7289 14.3009C9.95052 12.5228 9.0147 10.8352 8.33047 9.60332C8.25827 9.47281 8.18909 9.34698 8.12078 9.22749L9.4292 7.92101L10.0725 7.27695C10.8713 6.47791 10.8933 5.20188 10.1244 4.43199L6.25476 0.56152C5.4858 -0.20729 4.20884 -0.183967 3.41002 0.615078L2.31943 1.71193L2.34923 1.74152C1.98354 2.20813 1.67796 2.7463 1.45056 3.32665C1.24093 3.87907 1.11042 4.40622 1.05075 4.93445C0.539789 9.1704 2.47549 13.0417 7.72874 18.2951C14.9903 25.5561 20.8422 25.0076 21.0947 24.9808C21.6445 24.9151 22.1714 24.7837 22.7069 24.5758C23.2823 24.351 23.8201 24.0459 24.2864 23.681L24.3102 23.7021L25.4151 22.6203C26.2122 21.8214 26.2352 20.5449 25.4666 19.7738Z" fill="#E95836"/>
</svg>
