<svg width="26" height="26" viewBox="0 0 26 26" fill="none" xmlns="http://www.w3.org/2000/svg">
<path d="M13.4478 24.7735C6.82034 24.7735 1.44775 19.4009 1.44775 12.7735C1.44775 6.14608 6.82034 0.773499 13.4478 0.773499C20.0752 0.773499 25.4478 6.14608 25.4478 12.7735C25.4478 19.4009 20.0752 24.7735 13.4478 24.7735Z" stroke="white"/>
<path d="M18.7711 16.0092L17.0497 14.2876C16.7069 13.9462 16.1391 13.9565 15.7843 14.3115L14.9171 15.1785C14.8623 15.1483 14.8056 15.1168 14.7459 15.0833C14.1983 14.7799 13.4487 14.3639 12.66 13.5746C11.8689 12.7836 11.4526 12.0329 11.1482 11.4849C11.1161 11.4269 11.0854 11.3709 11.055 11.3178L11.637 10.7366L11.9232 10.4501C12.2785 10.0946 12.2883 9.52701 11.9462 9.18453L10.2249 7.46278C9.88282 7.12079 9.31478 7.13116 8.95943 7.48661L8.47429 7.97453L8.48755 7.98769C8.32487 8.19526 8.18894 8.43466 8.08778 8.69283C7.99453 8.93857 7.93647 9.17306 7.90993 9.40804C7.68263 11.2924 8.54371 13.0145 10.8806 15.3514C14.1108 18.5814 16.714 18.3374 16.8263 18.3255C17.0709 18.2963 17.3053 18.2378 17.5435 18.1453C17.7994 18.0453 18.0387 17.9096 18.2461 17.7473L18.2567 17.7567L18.7482 17.2754C19.1028 16.92 19.113 16.3522 18.7711 16.0092Z" fill="white"/>
</svg>
