<svg width="36" height="36" viewBox="0 0 36 36" fill="none" xmlns="http://www.w3.org/2000/svg">
<path d="M18.2997 0.229492C27.9653 0.229492 35.7998 8.06511 35.7998 17.7296C35.7998 27.394 27.9653 35.2295 18.2997 35.2295C8.63422 35.2295 0.799805 27.3939 0.799805 17.7296C0.799805 8.06523 8.63434 0.229492 18.2997 0.229492Z" fill="white"/>
<path d="M17.8776 14.4497C18.431 14.4497 18.8642 14.2735 19.1814 14.0231C19.4964 13.7716 19.6539 13.4293 19.6539 12.9896V10.3361C19.6539 9.9456 19.4932 9.6229 19.1726 9.37468C18.8499 9.12635 18.4376 9.00284 17.9323 9.00284C17.38 9.00284 16.9381 9.11986 16.611 9.35498C16.2829 9.59118 16.1188 9.9062 16.1188 10.3054V12.9676C16.1188 13.405 16.2785 13.7507 16.5978 14.0099C16.9172 14.2692 17.345 14.4497 17.8776 14.4497ZM17.2991 10.4346C17.2991 10.3339 17.3516 10.2531 17.4555 10.1885C17.5605 10.1262 17.6962 10.0955 17.8624 10.0955C18.044 10.0955 18.1906 10.1262 18.3011 10.1885C18.4127 10.2531 18.4674 10.334 18.4674 10.4346V12.9568C18.4674 13.0815 18.4127 13.1799 18.3033 13.251C18.1939 13.321 18.0473 13.3571 17.8624 13.3571C17.682 13.3571 17.542 13.3232 17.4446 13.2521C17.3484 13.1831 17.2991 13.0847 17.2991 12.9568V10.4346ZM21.5396 14.4464C21.7342 14.4464 21.9322 14.3348 22.1379 14.2233C22.3457 14.1095 22.5436 13.9432 22.734 13.7268V14.3163H23.7676V8.99515H22.734V13.0344C22.6378 13.1492 22.5306 13.2444 22.4158 13.3198C22.2987 13.3942 22.2025 13.4325 22.1271 13.4325C22.0297 13.4325 21.9586 13.4051 21.917 13.3472C21.8733 13.2915 21.8493 13.2006 21.8493 13.0759V8.99623H20.8179V13.4424C20.8179 13.7596 20.8802 13.997 20.9994 14.1545C21.1206 14.3129 21.3 14.4464 21.5396 14.4464ZM24.5452 16.646H12.0545C10.0683 16.646 8.45932 18.1937 8.45932 20.1001V23.0204C8.45932 24.9279 10.0683 26.4756 12.0545 26.4756H24.5451C26.5302 26.4756 28.1402 24.9279 28.1402 23.0204V20.1001C28.1403 18.1936 26.5303 16.646 24.5452 16.646ZM13.9127 19.61H12.8081V24.1841H11.7396V19.61H10.6349V18.8302H13.9129C13.9127 18.8302 13.9127 19.61 13.9127 19.61ZM17.2093 24.2476H16.0577V23.7729C15.8433 23.9479 15.6235 24.0824 15.3916 24.1721C15.163 24.2662 14.9398 24.311 14.7233 24.311C14.4565 24.311 14.2574 24.2465 14.1218 24.1164C13.9883 23.9884 13.9195 23.796 13.9195 23.5388V19.9273H15.0712V23.2403C15.0712 23.3431 15.0952 23.4153 15.1412 23.4612C15.1915 23.5082 15.2713 23.529 15.3786 23.529C15.4617 23.529 15.5711 23.4994 15.7001 23.4382C15.8302 23.378 15.9495 23.3014 16.0578 23.2063V19.9261H17.2095C17.2093 19.9261 17.2093 24.2476 17.2093 24.2476ZM21.569 23.4251C21.569 23.7084 21.4792 23.9238 21.3011 24.0759C21.1249 24.2279 20.8647 24.3022 20.5289 24.3022C20.3047 24.3022 20.1056 24.2738 19.9328 24.2159C19.7589 24.1579 19.5948 24.0682 19.4461 23.9446V24.2508H18.2965V18.8302H19.4461V20.577C19.6014 20.4567 19.7643 20.3626 19.9338 20.2992C20.1077 20.2347 20.2827 20.204 20.4589 20.204C20.8187 20.204 21.0932 20.2883 21.2824 20.4578C21.4738 20.6284 21.569 20.8789 21.569 21.2059C21.569 21.2058 21.569 23.4251 21.569 23.4251ZM25.9506 22.2055H23.8288V22.9864C23.8288 23.2041 23.8637 23.355 23.937 23.4403C24.0114 23.5246 24.1372 23.5661 24.3133 23.5661C24.4993 23.5661 24.6262 23.5301 24.7005 23.459C24.7727 23.3867 24.8121 23.2303 24.8121 22.9853V22.7972H25.9529V23.0094C25.9529 23.4337 25.8162 23.7532 25.534 23.9686C25.2562 24.1829 24.8405 24.2901 24.2882 24.2901C23.7906 24.2901 23.399 24.1763 23.1135 23.9489C22.8292 23.7236 22.6848 23.4086 22.6848 23.0105V21.1488C22.6848 20.7912 22.8423 20.4959 23.1573 20.2695C23.4712 20.0442 23.8737 19.9315 24.3713 19.9315C24.8788 19.9315 25.2693 20.0366 25.5427 20.2455C25.8151 20.4544 25.9507 20.7562 25.9507 21.1479C25.9506 21.1479 25.9506 22.2055 25.9506 22.2055ZM13.2938 14.4618H14.5986V11.2822L16.1178 6.79785H14.7911L13.9839 9.86259H13.9007L13.0542 6.79785H11.7384L13.2936 11.4255C13.2938 11.4255 13.2938 14.4618 13.2938 14.4618ZM19.9218 20.8383L19.6801 20.8777L19.445 20.9991V23.4907C19.5369 23.5552 19.6276 23.6044 19.7152 23.6317L19.9897 23.6744C20.1297 23.6744 20.2314 23.647 20.297 23.5891C20.3615 23.5333 20.3954 23.4414 20.3954 23.3156V21.2495C20.3954 21.1128 20.3571 21.011 20.2762 20.9422C20.1931 20.8734 20.0761 20.8383 19.9218 20.8383Z" fill="#24429A"/>
<path d="M24.3745 20.6562C24.1973 20.6562 24.0715 20.6935 23.9939 20.77C23.9174 20.8433 23.8802 20.968 23.8802 21.1419V21.5597H24.8612V21.1419C24.8612 20.968 24.8208 20.8444 24.7442 20.77C24.6687 20.6935 24.543 20.6562 24.3745 20.6562Z" fill="white"/>
</svg>
