<svg width="56" height="47" viewBox="0 0 56 47" fill="none" xmlns="http://www.w3.org/2000/svg">
<path d="M50.2232 23.6647L48.9782 17.3306C48.6388 15.5607 48.0535 14.2096 47.1884 13.1995C46.0732 11.8983 44.5091 11.2103 42.6643 11.2103H39.3105V2.54416C39.3105 1.349 38.3418 0.380371 37.1467 0.380371H2.52609C1.33094 0.380371 0.362305 1.349 0.362305 2.54416V39.6641C0.362305 40.8588 1.33094 41.8279 2.52609 41.8279H8.84883C9.74181 44.3462 12.1469 46.1555 14.9679 46.1555C17.7888 46.1555 20.1939 44.3462 21.0869 41.8279H34.4897C35.3827 44.3462 37.7878 46.1555 40.6087 46.1555C44.1883 46.1555 47.1001 43.2432 47.1001 39.6641C47.1001 36.0845 44.1883 33.1727 40.6087 33.1727C37.7878 33.1727 35.3827 34.9815 34.4897 37.5003H21.0869C20.1939 34.9815 17.7888 33.1727 14.9679 33.1727C12.1469 33.1727 9.74181 34.9815 8.84883 37.5003H4.68988V27.7633H47.6411C47.7687 27.7633 47.8929 27.7497 48.0142 27.7286C48.1393 27.751 48.2674 27.7633 48.3984 27.7633C50.0686 27.7633 51.4277 29.122 51.4277 30.7926V39.6641C51.4277 40.8588 52.3963 41.8279 53.5915 41.8279C54.7866 41.8279 55.7553 40.8588 55.7553 39.6641V30.7926C55.7553 27.3656 53.4 24.4783 50.2232 23.6647ZM40.6087 37.5003C41.8018 37.5003 42.7725 38.4706 42.7725 39.6641C42.7725 40.8571 41.8018 41.8279 40.6087 41.8279C39.4157 41.8279 38.445 40.8571 38.445 39.6641C38.445 38.4706 39.4157 37.5003 40.6087 37.5003ZM14.9679 37.5003C16.1609 37.5003 17.1317 38.4706 17.1317 39.6641C17.1317 40.8571 16.1609 41.8279 14.9679 41.8279C13.7748 41.8279 12.8041 40.8571 12.8041 39.6641C12.8041 38.4706 13.7748 37.5003 14.9679 37.5003ZM42.6643 15.5379C43.3249 15.5379 44.2293 15.5379 44.7284 18.1488C44.7292 18.1522 44.7301 18.156 44.7305 18.1598L45.7676 23.4357H39.3105V15.5379H42.6643ZM4.68988 4.70794H34.9829V23.4357H30.6553V10.1174C30.6553 8.92226 29.6867 7.95363 28.4915 7.95363C27.2964 7.95363 26.3278 8.92226 26.3278 10.1174V23.4357H22.0002V10.1174C22.0002 8.92226 21.0315 7.95363 19.8364 7.95363C18.6412 7.95363 17.6726 8.92226 17.6726 10.1174V23.4357H13.345V10.1174C13.345 8.92226 12.3764 7.95363 11.1812 7.95363C9.98609 7.95363 9.01745 8.92226 9.01745 10.1174V23.4357H4.68988V4.70794Z" fill="#24429A"/>
</svg>
