<svg width="25" height="26" viewBox="0 0 25 26" fill="none" xmlns="http://www.w3.org/2000/svg">
<path d="M0 12.8374C0 19.741 5.59644 25.3374 12.5 25.3374C19.4036 25.3374 25 19.741 25 12.8374C25 5.93384 19.4036 0.337402 12.5 0.337402C5.59644 0.337402 0 5.93384 0 12.8374Z" fill="#7D3DAF"/>
<path d="M19.197 9.0753L19.1928 9.05858C18.8545 7.69115 17.3296 6.22383 15.9292 5.91857L15.9134 5.91532C13.6483 5.4832 11.3516 5.4832 9.08696 5.91532L9.07069 5.91857C7.67075 6.22383 6.14581 7.69115 5.80709 9.05858L5.80338 9.0753C5.3852 10.985 5.3852 12.9216 5.80338 14.8312L5.80709 14.8479C6.02144 15.7133 6.71079 16.6183 7.54289 17.2436C8.26516 17.7864 8.89088 18.5648 8.89088 19.4683C8.89088 20.0208 9.56414 20.2921 9.947 19.8935L10.7953 19.0117C11.2385 18.5509 11.8608 18.3151 12.5002 18.3151C13.6404 18.3151 14.7811 18.2073 15.9134 17.9912L15.9292 17.988C17.3296 17.6827 18.8545 16.2154 19.1928 14.848L19.197 14.8313C19.6151 12.9216 19.6151 10.985 19.197 9.0753ZM17.9731 14.5543C17.7473 15.4464 16.5894 16.5555 15.6695 16.7604C14.4651 16.9894 13.2512 17.0873 12.0385 17.0537C12.0143 17.0531 11.9912 17.0624 11.9743 17.0797C11.8064 17.2521 10.891 18.1918 10.8468 18.2372C10.8454 18.2386 10.8444 18.2396 10.843 18.241L9.64405 19.4715C9.55624 19.5631 9.40198 19.5008 9.40198 19.3744V16.8458C9.40198 16.804 9.37215 16.7685 9.33112 16.7605C9.33089 16.7604 9.33066 16.7604 9.33043 16.7603C8.41045 16.5554 7.25304 15.4463 7.02676 14.5542C6.65041 12.8281 6.65041 11.0783 7.02676 9.35218C7.25304 8.46008 8.41045 7.35099 9.33043 7.14609C11.4338 6.74604 13.5665 6.74604 15.6695 7.14609C16.5899 7.35099 17.7473 8.46008 17.9731 9.35218C18.3499 11.0783 18.3499 12.8282 17.9731 14.5543Z" fill="white"/>
<path d="M14.5012 15.7207C14.3598 15.6778 14.225 15.6489 14.0998 15.597C12.8028 15.0588 11.609 14.3646 10.6634 13.3003C10.1257 12.6951 9.70485 12.0119 9.34908 11.2888C9.18037 10.9459 9.03819 10.5896 8.89327 10.2356C8.76113 9.91274 8.95577 9.57923 9.16072 9.33599C9.35303 9.10772 9.6005 8.93301 9.8685 8.80426C10.0777 8.70376 10.284 8.7617 10.4368 8.93901C10.7671 9.32233 11.0704 9.72526 11.3161 10.1696C11.4671 10.4429 11.4257 10.777 11.1519 10.963C11.0854 11.0082 11.0247 11.0612 10.9628 11.1123C10.9084 11.157 10.8572 11.2022 10.82 11.2628C10.7519 11.3737 10.7486 11.5044 10.7925 11.625C11.1301 12.5528 11.6991 13.2742 12.6329 13.6628C12.7824 13.7249 12.9324 13.7973 13.1046 13.7773C13.3929 13.7436 13.4862 13.4273 13.6883 13.2621C13.8857 13.1007 14.1381 13.0985 14.3508 13.2331C14.5636 13.3678 14.7698 13.5123 14.9748 13.6584C15.176 13.8018 15.3764 13.9421 15.562 14.1055C15.7405 14.2627 15.8019 14.4689 15.7014 14.6822C15.5175 15.0729 15.2497 15.3979 14.8635 15.6054C14.7545 15.6639 14.6242 15.6828 14.5012 15.7207C14.3598 15.6777 14.6242 15.6828 14.5012 15.7207Z" fill="white"/>
<path d="M12.5039 8.35758C14.2005 8.40511 15.594 9.53106 15.8926 11.2084C15.9435 11.4942 15.9616 11.7864 15.9842 12.0765C15.9938 12.1985 15.9247 12.3144 15.793 12.316C15.657 12.3176 15.5958 12.2038 15.587 12.0819C15.5695 11.8404 15.5574 11.598 15.5241 11.3585C15.3485 10.0947 14.3407 9.04905 13.0827 8.82468C12.8934 8.7909 12.6996 8.78202 12.5079 8.76191C12.3867 8.74917 12.2279 8.74183 12.201 8.59115C12.1785 8.46482 12.2851 8.36422 12.4054 8.35776C12.4381 8.35595 12.471 8.35744 12.5039 8.35758C14.2005 8.40511 12.471 8.35744 12.5039 8.35758Z" fill="white"/>
<path d="M15.0821 11.6992C15.0793 11.7204 15.0779 11.7702 15.0654 11.8171C15.0204 11.9873 14.7622 12.0086 14.7027 11.8368C14.6851 11.7858 14.6824 11.7278 14.6824 11.673C14.6818 11.3138 14.6036 10.9551 14.4224 10.6426C14.2362 10.3215 13.9516 10.0515 13.6178 9.88819C13.4159 9.78942 13.1977 9.72804 12.9764 9.69145C12.8798 9.67548 12.782 9.66577 12.6849 9.65226C12.5672 9.63591 12.5043 9.56092 12.5099 9.44498C12.5151 9.33633 12.5945 9.25818 12.713 9.26486C13.1024 9.28697 13.4784 9.37106 13.8246 9.55424C14.5285 9.92677 14.9306 10.5148 15.048 11.3C15.0533 11.3356 15.0618 11.3708 15.0645 11.4065C15.0712 11.4947 15.0753 11.583 15.0821 11.6992C15.0793 11.7204 15.0753 11.583 15.0821 11.6992Z" fill="white"/>
<path d="M14.0267 11.6594C13.8847 11.662 13.8088 11.5834 13.7941 11.4533C13.784 11.3626 13.7759 11.2707 13.7543 11.1824C13.7116 11.0086 13.6192 10.8476 13.4729 10.741C13.4039 10.6907 13.3256 10.6541 13.2437 10.6305C13.1396 10.6004 13.0314 10.6087 12.9275 10.5832C12.8147 10.5556 12.7523 10.4643 12.7701 10.3584C12.7862 10.2622 12.8799 10.187 12.9852 10.1946C13.6429 10.2421 14.1131 10.5821 14.1802 11.3562C14.1849 11.4108 14.1905 11.4685 14.1783 11.5208C14.1576 11.6102 14.0913 11.6551 14.0267 11.6594C13.8847 11.662 14.0913 11.6551 14.0267 11.6594Z" fill="white"/>
</svg>
