<svg width="56" height="56" viewBox="0 0 56 56" fill="none" xmlns="http://www.w3.org/2000/svg">
<path d="M35.5238 16.2649C35.5238 17.4598 34.555 18.4286 33.3601 18.4286H25.895C24.6996 18.4286 23.7308 17.4598 23.7308 16.2649C23.7308 15.0699 24.6996 14.1011 25.895 14.1011H33.3601C34.555 14.1011 35.5238 15.0699 35.5238 16.2649ZM20.433 10.4867C19.4558 9.79859 18.1061 10.0328 17.418 11.01L14.3294 15.3954L12.7185 13.7685C11.8778 12.9197 10.5079 12.9125 9.65868 13.7533C8.8095 14.594 8.80273 15.9643 9.64346 16.8135L12.0887 19.2829C12.0997 19.2939 12.1103 19.3049 12.1217 19.3154C12.7498 19.9233 13.591 20.2614 14.4575 20.2614C14.531 20.2614 14.605 20.2593 14.6785 20.2542C15.6232 20.1917 16.5029 19.728 17.0925 18.9828C17.117 18.9511 17.1411 18.9194 17.1639 18.8864L20.9563 13.5018C21.6444 12.5245 21.4098 11.1749 20.433 10.4867ZM33.3601 27.1982H25.895C24.6996 27.1982 23.7308 28.1665 23.7308 29.3619C23.7308 30.5568 24.6996 31.5256 25.895 31.5256H33.3601C34.555 31.5256 35.5238 30.5568 35.5238 29.3619C35.5238 28.1665 34.555 27.1982 33.3601 27.1982ZM20.433 23.5837C19.4558 22.8956 18.1061 23.1298 17.418 24.107L14.3294 28.4924L12.7185 26.8655C11.8778 26.0163 10.5079 26.0096 9.65868 26.8503C8.8095 27.691 8.80273 29.0614 9.64346 29.9105L12.0887 32.3799C12.0997 32.3909 12.1103 32.4019 12.1217 32.4124C12.7498 33.0203 13.591 33.3584 14.4575 33.3584C14.531 33.3584 14.605 33.3563 14.6785 33.3512C15.6232 33.2887 16.5029 32.825 17.0925 32.0798C17.117 32.0481 17.1411 32.0164 17.1639 31.9834L20.9563 26.5988C21.6444 25.6215 21.4098 24.2715 20.433 23.5837ZM55.7647 8.46923V15.3933C55.7647 20.1659 51.8819 24.0483 47.1097 24.0483H44.287V36.3819C44.287 37.5773 43.3182 38.5461 42.1233 38.5461C40.9283 38.5461 39.9595 37.5773 39.9595 36.3819V8.46923C39.9595 7.18468 40.2698 5.97198 40.8159 4.89878H9.01704C6.63096 4.89878 4.68955 6.84019 4.68955 9.22627V47.3093C4.68955 49.6953 6.63096 51.6368 9.01704 51.6368H35.6321C38.0181 51.6368 39.9595 49.6953 39.9595 47.3093C39.9595 46.1143 40.9283 45.1455 42.1233 45.1455C43.3182 45.1455 44.287 46.1143 44.287 47.3093C44.287 52.0818 40.4042 55.9642 35.6321 55.9642H9.01704C4.24488 55.9642 0.362061 52.0818 0.362061 47.3093V9.22627C0.362061 4.45411 4.24488 0.571289 9.01704 0.571289H47.9657C47.9991 0.571289 48.0321 0.574671 48.065 0.576361C52.3287 0.682034 55.7647 4.18063 55.7647 8.46923ZM51.4372 8.46923C51.4372 6.50035 49.8357 4.89878 47.8668 4.89878H47.8575C45.8886 4.89878 44.287 6.50035 44.287 8.46923V19.7208H47.1097C49.4958 19.7208 51.4372 17.7794 51.4372 15.3933V8.46923ZM33.3601 40.1806H25.895C24.6996 40.1806 23.7308 41.1494 23.7308 42.3444C23.7308 43.5397 24.6996 44.5085 25.895 44.5085H33.3601C34.555 44.5085 35.5238 43.5397 35.5238 42.3444C35.5238 41.1494 34.555 40.1806 33.3601 40.1806ZM20.433 36.5666C19.4558 35.8785 18.1061 36.1127 17.418 37.0895L14.3294 41.4753L12.7185 39.8484C11.8778 38.9992 10.5079 38.9924 9.65868 39.8332C8.8095 40.6739 8.80273 42.0443 9.64346 42.8934L12.0887 45.3628C12.0997 45.3738 12.1103 45.3843 12.1217 45.3953C12.7498 46.0032 13.591 46.3413 14.4575 46.3413C14.531 46.3413 14.605 46.3392 14.6785 46.3341C15.6232 46.2711 16.5029 45.8079 17.0925 45.0623C17.117 45.031 17.1411 44.9988 17.1639 44.9663L20.9563 39.5812C21.6444 38.6044 21.4098 37.2543 20.433 36.5666Z" fill="#24429A"/>
</svg>
