<svg width="57" height="56" viewBox="0 0 57 56" fill="none" xmlns="http://www.w3.org/2000/svg">
<path d="M47.4626 0.571289H22.4709C20.0987 0.571289 17.8077 1.55936 16.179 3.28321L3.99963 15.4368C2.00616 17.0237 0.724792 19.4689 0.724792 22.2092V47.3091C0.724792 52.0817 4.60735 55.9642 9.37994 55.9642H34.3717C36.8296 55.9642 39.0496 54.9326 40.6268 53.2819C40.6403 53.2688 40.6551 53.2578 40.6686 53.2443L53.5892 40.4403L53.6002 40.4289C55.2235 38.7959 56.1177 36.6288 56.1177 34.3264V9.22644C56.1177 4.45385 52.2352 0.571289 47.4626 0.571289ZM37.9901 14.3498C36.8884 13.8405 35.6632 13.554 34.3717 13.554H27.5596L36.399 4.89886H47.4512L37.9901 14.3498ZM19.2598 6.32223L19.311 6.2694C20.1384 5.38572 21.2605 4.89886 22.4709 4.89886H30.2136L21.3737 13.554H12.0133L19.2598 6.32223ZM51.7902 34.3264C51.7902 35.475 51.3452 36.5565 50.5367 37.3722L43.0268 44.8148V40.8177C43.0268 39.6226 42.0582 38.6539 40.863 38.6539C39.6679 38.6539 38.6993 39.6226 38.6993 40.8177V47.3091C38.6993 49.6952 36.7578 51.6367 34.3717 51.6367H9.37994C6.99386 51.6367 5.05237 49.6952 5.05237 47.3091V22.2092C5.05237 19.8231 6.99386 17.8816 9.37994 17.8816H19.9825V27.835C19.9825 29.0302 20.9511 29.9988 22.1463 29.9988C23.3414 29.9988 24.3101 29.0302 24.3101 27.835V17.8816H34.3717C36.7578 17.8816 38.6993 19.8231 38.6993 22.2092V29.9988C38.6993 31.1939 39.6679 32.1626 40.863 32.1626C42.0582 32.1626 43.0268 31.1939 43.0268 29.9988V22.2092C43.0268 20.3015 42.4052 18.5371 41.3554 17.1048L51.2801 7.1907C51.6051 7.798 51.7902 8.49067 51.7902 9.22644V34.3264ZM34.3717 40.8177V45.1453C34.3717 46.3405 33.403 47.3091 32.2079 47.3091C31.0127 47.3091 30.0441 46.3405 30.0441 45.1453V40.8177C30.0441 39.6226 31.0127 38.6539 32.2079 38.6539C33.403 38.6539 34.3717 39.6226 34.3717 40.8177Z" fill="#24429A"/>
</svg>
