<svg width="36" height="36" viewBox="0 0 36 36" fill="none" xmlns="http://www.w3.org/2000/svg">
<path d="M16.7185 10.4346C16.7185 10.3339 16.771 10.2531 16.8749 10.1885C16.9799 10.1262 17.1156 10.0956 17.2819 10.0956C17.4634 10.0956 17.61 10.1262 17.7205 10.1885C17.8322 10.2531 17.8868 10.334 17.8868 10.4346V12.9568C17.8868 13.0815 17.8322 13.1799 17.7227 13.251C17.6133 13.321 17.4668 13.3571 17.2819 13.3571C17.1014 13.3571 16.9614 13.3232 16.864 13.2521C16.7678 13.1831 16.7185 13.0847 16.7185 12.9568V10.4346Z" fill="white"/>
<path d="M13.3322 19.6101H12.2275V24.1842H11.159V19.6101H10.0543V18.8302H13.3323L13.3322 19.6101Z" fill="white"/>
<path d="M16.6288 24.2476H15.4771V23.7729C15.2628 23.9479 15.0429 24.0824 14.811 24.1721C14.5824 24.2662 14.3593 24.311 14.1428 24.311C13.8759 24.311 13.6769 24.2465 13.5412 24.1164C13.4077 23.9884 13.3389 23.796 13.3389 23.5389V19.9274H14.4906V23.2403C14.4906 23.3431 14.5146 23.4154 14.5606 23.4612C14.611 23.5082 14.6907 23.529 14.798 23.529C14.8812 23.529 14.9905 23.4995 15.1195 23.4382C15.2496 23.378 15.369 23.3015 15.4772 23.2063V19.9262H16.6289L16.6288 24.2476Z" fill="white"/>
<path fill-rule="evenodd" clip-rule="evenodd" d="M20.9884 23.4251C20.9884 23.7084 20.8987 23.9238 20.7205 24.0759C20.5444 24.2279 20.2841 24.3022 19.9483 24.3022C19.7241 24.3022 19.5251 24.2738 19.3522 24.2159C19.1783 24.158 19.0142 24.0682 18.8655 23.9446V24.2508H17.7159V18.8302H18.8655V20.577C19.0208 20.4567 19.1837 20.3626 19.3533 20.2992C19.5271 20.2347 19.7021 20.204 19.8783 20.204C20.2381 20.204 20.5126 20.2883 20.7018 20.4578C20.8932 20.6284 20.9884 20.8789 20.9884 21.2059V23.4251ZM19.3412 20.8383L19.0995 20.8777L18.8644 20.9992V23.4907C18.8997 23.5155 18.9349 23.538 18.9697 23.5579C19.0256 23.5898 19.0807 23.6149 19.1346 23.6317L19.4091 23.6744C19.5491 23.6744 19.6509 23.647 19.7164 23.5891C19.7809 23.5333 19.8148 23.4414 19.8148 23.3156V21.2495C19.8148 21.1128 19.7766 21.011 19.6957 20.9422C19.6125 20.8734 19.4955 20.8383 19.3412 20.8383Z" fill="white"/>
<path fill-rule="evenodd" clip-rule="evenodd" d="M25.3701 22.2055H23.2482V22.9864C23.2482 23.2041 23.2831 23.355 23.3564 23.4403C23.4308 23.5246 23.5566 23.5661 23.7327 23.5661C23.9187 23.5661 24.0456 23.5301 24.1199 23.459C24.1921 23.3868 24.2316 23.2303 24.2316 22.9854V22.7972H25.3723V23.0094C25.3723 23.4337 25.2356 23.7532 24.9534 23.9686C24.6756 24.1829 24.2599 24.2901 23.7076 24.2901C23.21 24.2901 22.8184 24.1763 22.533 23.9489C22.2486 23.7236 22.1042 23.4086 22.1042 23.0105V21.1488C22.1042 20.7912 22.2617 20.4959 22.5767 20.2695C22.8906 20.0443 23.2931 19.9316 23.7908 19.9316C24.2982 19.9316 24.6887 20.0366 24.9622 20.2455C25.2345 20.4544 25.3702 20.7562 25.3702 21.1479L25.3701 22.2055ZM23.4134 20.7699C23.491 20.6933 23.6168 20.6561 23.794 20.6561C23.9624 20.6561 24.0881 20.6933 24.1636 20.7699C24.2402 20.8442 24.2807 20.9679 24.2807 21.1417V21.5596H23.2996V21.1417C23.2996 20.9679 23.3369 20.8431 23.4134 20.7699Z" fill="white"/>
<path fill-rule="evenodd" clip-rule="evenodd" d="M17.7192 0.229492C27.3847 0.229492 35.2192 8.06511 35.2192 17.7296C35.2192 27.394 27.3847 35.2295 17.7192 35.2295C8.05365 35.2295 0.219238 27.3939 0.219238 17.7296C0.219238 8.06523 8.05377 0.229492 17.7192 0.229492ZM17.297 14.4497C17.8504 14.4497 18.2836 14.2735 18.6008 14.0232C18.9158 13.7716 19.0733 13.4293 19.0733 12.9896V10.3361C19.0733 9.94562 18.9126 9.62291 18.592 9.37469C18.2693 9.12636 17.857 9.00285 17.3517 9.00285C16.7994 9.00285 16.3575 9.11987 16.0305 9.35499C15.7023 9.59119 15.5382 9.9062 15.5382 10.3054V12.9676C15.5382 13.405 15.6979 13.7507 16.0172 14.0099C16.3366 14.2692 16.7644 14.4497 17.297 14.4497ZM20.959 14.4464C21.1463 14.4464 21.3367 14.343 21.5341 14.2359L21.5573 14.2233C21.7651 14.1095 21.963 13.9433 22.1534 13.7268V14.3163H23.187V8.99516H22.1534V13.0344C22.0572 13.1492 21.95 13.2444 21.8352 13.3198C21.7181 13.3942 21.6219 13.4325 21.5464 13.4325C21.4492 13.4325 21.3781 13.4051 21.3365 13.3472C21.2927 13.2915 21.2687 13.2007 21.2687 13.0759V8.99625H20.2372V13.4424C20.2372 13.7596 20.2996 13.997 20.4188 14.1545C20.54 14.3129 20.7194 14.4464 20.959 14.4464ZM23.9646 16.646H11.4739C9.48767 16.646 7.87872 18.1937 7.87872 20.1001V23.0204C7.87872 24.928 9.48767 26.4756 11.4739 26.4756H23.9645C25.9496 26.4756 27.5596 24.928 27.5596 23.0204V20.1001C27.5598 18.1936 25.9497 16.646 23.9646 16.646ZM12.7132 14.4618H14.0181V11.2822L15.5373 6.79786H14.2105L13.4033 9.86259H13.3201L12.4736 6.79786H11.1578L12.7131 11.4255L12.7132 14.4618Z" fill="white"/>
</svg>
