<svg width="45" height="45" viewBox="0 0 45 45" fill="none" xmlns="http://www.w3.org/2000/svg">
<path fill-rule="evenodd" clip-rule="evenodd" d="M30.5432 43.0953C30.5432 44.0518 31.3133 44.827 32.2636 44.827C33.2139 44.827 33.984 44.0515 33.984 43.0953V15.734C33.984 13.8244 32.4407 12.2706 30.5432 12.2706H23.3418L31.0479 4.46824C31.3721 4.14017 31.8039 3.95922 32.2636 3.95922C32.7236 3.95922 33.1551 4.14017 33.4793 4.46824L41.1854 12.2706H39.4898C38.5395 12.2706 37.7694 13.0458 37.7694 14.0023C37.7694 14.9588 38.5395 15.734 39.4898 15.734H41.3813C42.7385 15.734 43.9532 14.9172 44.4757 13.6529C45.0002 12.3836 44.7176 10.934 43.7556 9.96026L35.9195 2.02629C34.9447 1.03937 33.6463 0.49585 32.2636 0.49585C30.8809 0.49585 29.5825 1.03937 28.6077 2.02629L20.7716 9.96026C19.8099 10.9343 19.5273 12.3836 20.0518 13.6529C20.5743 14.9172 21.7887 15.734 23.1459 15.734H30.5432V43.0953ZM9.50989 43.2966C10.4847 44.2835 11.7831 44.827 13.1658 44.827C14.5486 44.827 15.847 44.2835 16.8218 43.2966L24.6578 35.3626C25.6199 34.3889 25.9021 32.9393 25.3776 31.6699C24.8551 30.4056 23.6407 29.5888 22.2835 29.5888H20.392C19.4417 29.5888 18.6716 30.364 18.6716 31.3205C18.6716 32.277 19.4417 33.0522 20.392 33.0522H22.0876L14.3816 40.8546C14.0573 41.1827 13.6255 41.3636 13.1658 41.3636C12.7061 41.3636 12.2744 41.1827 11.9501 40.8546L4.24407 33.0522H11.4454C13.3426 33.0522 14.8863 31.4984 14.8863 29.5888V2.22754C14.8863 1.27105 14.1161 0.495854 13.1658 0.495854C12.2156 0.495854 11.4454 1.27105 11.4454 2.22754V29.5885H4.04816C2.69097 29.5885 1.47624 30.4056 0.95406 31.6699C0.429191 32.9393 0.711787 34.3885 1.67382 35.3626L9.50989 43.2966Z" fill="white"/>
</svg>
