<svg width="56" height="54" viewBox="0 0 56 54" fill="none" xmlns="http://www.w3.org/2000/svg">
<path fill-rule="evenodd" clip-rule="evenodd" d="M51.9881 19.8907L54.4699 23.1197C56.1857 25.3197 56.1834 28.3874 54.4623 30.584C53.7253 31.525 52.3656 31.6901 51.4248 30.9533C50.4841 30.2165 50.3186 28.8565 51.0556 27.9158C51.5484 27.2866 51.5484 26.408 51.0556 25.7789L51.0435 25.7632L48.58 22.558C47.5938 21.452 47.6134 19.8965 47.6293 18.6369C47.631 18.5011 47.6326 18.3685 47.6326 18.2414V14.1565C47.6326 13.2255 46.6267 12.7967 46.027 12.6241L41.9448 11.4484C40.5873 11.0575 39.4002 10.2031 38.6022 9.04268L36.2091 5.56363C35.7516 4.89849 34.896 4.62455 34.1277 4.89762L30.1138 6.32453C28.7883 6.79559 27.3286 6.79559 26.0035 6.32453L21.9896 4.89762C21.2211 4.62444 20.3655 4.89838 19.9081 5.56363L17.5151 9.04279C16.717 10.2031 15.5298 11.0574 14.1725 11.4484C14.1216 11.463 14.0703 11.4757 14.0185 11.4867L9.76547 12.3802C8.99582 12.6302 8.46017 13.342 8.48354 14.0958C8.4843 14.1183 8.48462 14.1408 8.48462 14.1632V18.3871C8.48462 18.4968 8.48699 18.6115 8.48942 18.7292L8.48992 18.7534L8.48993 18.7537C8.51038 19.7445 8.54123 21.2398 7.59693 22.4564L5.07828 25.7572L5.06162 25.7788C4.56881 26.4078 4.56881 27.2865 5.06162 27.9157L5.07438 27.9321L7.59465 31.2144C8.5346 32.4226 8.51026 33.8244 8.49057 34.9515L8.48994 34.9884C8.48731 35.1413 8.48462 35.2976 8.48462 35.4565V39.6872C8.48462 39.7097 8.4843 39.7322 8.48354 39.7546C8.45801 40.5764 9.92311 41.0223 10.0903 41.0705L14.1725 42.2462C15.5299 42.6371 16.7171 43.4915 17.5151 44.6518L19.908 48.1308C20.3657 48.7961 21.2213 49.0699 21.9896 48.7969L26.0034 47.3699C27.3289 46.8988 28.7886 46.8989 30.1137 47.3699L34.1277 48.7969C34.8958 49.0698 35.7517 48.796 36.2091 48.1308L38.6022 44.6517C39.4003 43.4914 40.5874 42.6371 41.9448 42.2461L46.027 41.0704C46.7737 40.8554 47.6597 39.5667 47.6337 38.7333C47.5965 37.5388 48.5346 36.5405 49.7289 36.5033C50.9192 36.4631 51.9217 37.4042 51.9589 38.5985C52.0471 41.428 49.8789 44.4643 47.2246 45.2287L43.1424 46.4044C42.7455 46.5187 42.3993 46.7672 42.1675 47.104L39.7744 50.5832C38.6117 52.2736 36.7041 53.2284 34.7298 53.2284C34.0445 53.2284 33.3512 53.1134 32.6781 52.8741L28.6643 51.4472C28.2738 51.3084 27.8436 51.3084 27.4527 51.4472L23.439 52.8741C22.7661 53.1133 22.0724 53.2283 21.3873 53.2284C19.4128 53.2285 17.5054 52.2738 16.3426 50.5832L13.9497 47.1041C13.718 46.7671 13.3717 46.5187 12.9747 46.4044L8.89249 45.2287C5.90614 44.3687 4.09505 42.2359 4.15726 39.6576V35.4563C4.15726 35.259 4.16051 35.0653 4.16386 34.876C4.17035 34.5066 4.17901 34.009 4.13346 33.8122L1.64727 30.5741C-0.0652594 28.3788 -0.0660166 25.3189 1.645 23.1229L4.12719 19.8699C4.18041 19.662 4.17003 19.1538 4.16354 18.8428C4.16029 18.6857 4.15726 18.5329 4.15726 18.3871V14.1932C4.08867 11.4424 5.92302 8.98252 8.62949 8.20302C8.68034 8.18842 8.73162 8.17565 8.78344 8.16472L13.0359 7.27129C13.4072 7.1498 13.73 6.90983 13.9497 6.59035L16.3428 3.1112C17.9093 0.833812 20.8275 -0.108085 23.4391 0.820288L27.4529 2.2472C27.8435 2.386 28.2736 2.386 28.6645 2.2472L32.6785 0.820072C35.2899 -0.108301 38.2081 0.833703 39.7747 3.11098L42.1678 6.59013C42.3994 6.92714 42.7456 7.17565 43.1426 7.2899L47.2248 8.4657C50.1456 9.30677 51.9601 11.4874 51.9601 14.1564V18.2413C51.9601 18.3858 51.9582 18.5367 51.9563 18.6912C51.9519 19.0446 51.9448 19.6065 51.9881 19.8907ZM22.4107 39.8448C22.0633 39.8448 21.7109 39.761 21.3838 39.5841C20.3326 39.0159 19.9411 37.703 20.5094 36.652L32.2047 15.0156C32.7727 13.9644 34.0855 13.5727 35.1368 14.1411C36.188 14.7093 36.5795 16.0222 36.0112 17.0733L24.3159 38.7096C23.9246 39.4336 23.1798 39.8448 22.4107 39.8448ZM24.4886 19.2904C24.4886 16.3078 22.0621 13.8812 19.0796 13.8812C16.097 13.8812 13.6704 16.3077 13.6704 19.2904C13.6704 22.2731 16.0969 24.6994 19.0796 24.6994C22.0621 24.6994 24.4886 22.273 24.4886 19.2904ZM19.0796 20.3722C18.483 20.3722 17.9978 19.8868 17.9978 19.2904C17.9978 18.6939 18.4831 18.2086 19.0796 18.2086C19.6761 18.2086 20.1614 18.6939 20.1614 19.2904C20.1614 19.8868 19.676 20.3722 19.0796 20.3722ZM42.3387 34.4349C42.3387 37.4176 39.9121 39.8441 36.9295 39.8441C33.9469 39.8441 31.5205 37.4175 31.5205 34.4349C31.5205 31.4524 33.9469 29.0259 36.9295 29.0259C39.9122 29.0259 42.3387 31.4523 42.3387 34.4349ZM38.0113 34.435C38.0113 33.8386 37.5261 33.3533 36.9295 33.3533C36.3331 33.3533 35.8477 33.8386 35.8477 34.435C35.8477 35.0315 36.333 35.5168 36.9295 35.5168C37.526 35.5168 38.0113 35.0315 38.0113 34.435Z" fill="#24429A"/>
</svg>
