<svg width="26" height="26" viewBox="0 0 26 26" fill="none" xmlns="http://www.w3.org/2000/svg">
<path d="M0.0102539 12.8374C0.0102539 19.741 5.60669 25.3374 12.5103 25.3374C19.4138 25.3374 25.0103 19.741 25.0103 12.8374C25.0103 5.93384 19.4138 0.337402 12.5103 0.337402C5.60669 0.337402 0.0102539 5.93384 0.0102539 12.8374Z" fill="#1BD741"/>
<path d="M4.98975 20.3666L6.04316 16.6252C5.36575 15.4744 5.00909 14.165 5.00909 12.8199C5.00909 8.67828 8.37854 5.30884 12.5202 5.30884C16.6618 5.30884 20.0312 8.67828 20.0312 12.8199C20.0312 16.9615 16.6618 20.3309 12.5202 20.3309C11.2297 20.3309 9.966 20.0006 8.84812 19.3734L4.98975 20.3666ZM9.04538 18.0069L9.27529 18.1473C10.2499 18.7423 11.372 19.0568 12.5202 19.0568C15.9592 19.0568 18.757 16.2589 18.757 12.8199C18.757 9.38084 15.9592 6.58296 12.5202 6.58296C9.0811 6.58296 6.28322 9.38084 6.28322 12.8199C6.28322 14.0182 6.62379 15.1818 7.26802 16.185L7.42285 16.4261L6.81623 18.5807L9.04538 18.0069Z" fill="white"/>
<path d="M10.4102 9.32358L9.92284 9.29701C9.76975 9.28866 9.61959 9.33981 9.50388 9.44033C9.2676 9.64551 8.8898 10.0422 8.77376 10.5591C8.60072 11.3299 8.86814 12.2736 9.56028 13.2174C10.2524 14.1612 11.5422 15.6713 13.8231 16.3163C14.5581 16.5241 15.1362 16.384 15.5823 16.0986C15.9356 15.8726 16.1792 15.5099 16.2669 15.0998L16.3448 14.7363C16.3695 14.6208 16.3108 14.5036 16.2035 14.4541L14.5564 13.6949C14.4494 13.6456 14.3226 13.6768 14.2507 13.77L13.6041 14.6083C13.5552 14.6716 13.4716 14.6967 13.3961 14.6702C12.9533 14.5145 11.4699 13.8933 10.656 12.3255C10.6207 12.2575 10.6295 12.1749 10.6795 12.1169L11.2975 11.402C11.3607 11.329 11.3766 11.2264 11.3387 11.1376L10.6287 9.47652C10.5909 9.38809 10.5061 9.32882 10.4102 9.32358Z" fill="white"/>
</svg>
