<svg width="35" height="36" viewBox="0 0 35 36" fill="none" xmlns="http://www.w3.org/2000/svg">
<path d="M17.5001 35.8887C27.165 35.8887 35.0001 28.0537 35.0001 18.3887C35.0001 8.72369 27.165 0.888672 17.5001 0.888672C7.83508 0.888672 6.10352e-05 8.72369 6.10352e-05 18.3887C6.10352e-05 28.0537 7.83508 35.8887 17.5001 35.8887Z" fill="white"/>
<path d="M21.8996 19.0742H18.7769V30.5142H14.0458V19.0742H11.7957V15.0538H14.0458V12.4521C14.0458 10.5916 14.9296 7.67822 18.819 7.67822L22.3235 7.69288V11.5954H19.7808C19.3637 11.5954 18.7772 11.8038 18.7772 12.6913V15.0575H22.3129L21.8996 19.0742Z" fill="#24429A"/>
</svg>
