<svg width="147" height="129" viewBox="0 0 147 129" fill="none" xmlns="http://www.w3.org/2000/svg">
<path d="M38.2487 116.412H36.8908V111.121H34.5266V116.412H33.1643V109.987H38.2487V116.412Z" fill="white"/>
<path d="M41.6826 113.011H42.1309C42.5498 113.011 42.8633 112.929 43.0713 112.765C43.2793 112.598 43.3833 112.356 43.3833 112.04C43.3833 111.72 43.2954 111.484 43.1196 111.332C42.9468 111.18 42.6743 111.104 42.3022 111.104H41.6826V113.011ZM44.7588 111.991C44.7588 112.683 44.542 113.211 44.1084 113.578C43.6777 113.944 43.064 114.127 42.2671 114.127H41.6826V116.412H40.3203V109.987H42.3726C43.1519 109.987 43.7437 110.156 44.1479 110.493C44.5552 110.827 44.7588 111.326 44.7588 111.991Z" fill="white"/>
<path d="M52.2532 113.191C52.2532 114.254 51.9895 115.072 51.4622 115.643C50.9349 116.214 50.179 116.5 49.1946 116.5C48.2103 116.5 47.4544 116.214 46.927 115.643C46.3997 115.072 46.136 114.251 46.136 113.182C46.136 112.113 46.3997 111.297 46.927 110.734C47.4573 110.169 48.2161 109.886 49.2034 109.886C50.1907 109.886 50.9451 110.17 51.4666 110.739C51.991 111.307 52.2532 112.125 52.2532 113.191ZM47.5643 113.191C47.5643 113.909 47.7005 114.449 47.9729 114.812C48.2454 115.176 48.6526 115.357 49.1946 115.357C50.2815 115.357 50.825 114.635 50.825 113.191C50.825 111.744 50.2845 111.02 49.2034 111.02C48.6614 111.02 48.2527 111.203 47.9773 111.569C47.702 111.933 47.5643 112.473 47.5643 113.191Z" fill="white"/>
<path d="M54.0348 109.987H55.2608V113.09L55.2433 113.92L55.1993 114.865H55.2257L58.192 109.987H59.8224V116.412H58.6095V113.327C58.6095 112.914 58.6358 112.302 58.6886 111.49H58.6534L55.6739 116.412H54.0348V109.987Z" fill="white"/>
<path d="M66.3324 111.49C66.3324 111.903 66.1859 112.245 65.893 112.514C65.6 112.784 65.203 112.955 64.702 113.028V113.055C65.2909 113.113 65.7421 113.276 66.0556 113.542C66.372 113.809 66.5302 114.156 66.5302 114.584C66.5302 115.176 66.2899 115.643 65.8095 115.986C65.3319 116.329 64.6698 116.5 63.8231 116.5C62.8798 116.5 62.1225 116.384 61.5512 116.153V115.01C61.8266 115.142 62.1488 115.246 62.518 115.322C62.89 115.396 63.2372 115.432 63.5595 115.432C64.6405 115.432 65.1811 115.117 65.1811 114.487C65.1811 114.203 65.0067 113.985 64.6581 113.833C64.3124 113.68 63.7997 113.604 63.12 113.604H62.518V112.541H63.0585C63.7382 112.541 64.2333 112.476 64.5438 112.347C64.8544 112.218 65.0097 112.004 65.0097 111.706C65.0097 111.486 64.9115 111.312 64.7152 111.183C64.5219 111.051 64.2304 110.985 63.8407 110.985C63.2372 110.985 62.6542 111.159 62.0917 111.508L61.4984 110.598C61.8646 110.355 62.2528 110.178 62.663 110.066C63.0731 109.952 63.5287 109.895 64.0297 109.895C64.7299 109.895 65.288 110.042 65.704 110.334C66.1229 110.627 66.3324 111.013 66.3324 111.49Z" fill="white"/>
<path d="M68.1799 109.987H70.1794C71.0905 109.987 71.7512 110.118 72.1613 110.378C72.5744 110.636 72.781 111.048 72.781 111.613C72.781 111.997 72.6901 112.312 72.5085 112.558C72.3298 112.804 72.091 112.952 71.7922 113.002V113.046C72.1994 113.137 72.4924 113.307 72.6711 113.556C72.8527 113.805 72.9436 114.136 72.9436 114.549C72.9436 115.135 72.7312 115.592 72.3064 115.92C71.8845 116.248 71.3103 116.412 70.5837 116.412H68.1799V109.987ZM69.5422 112.532H70.3332C70.7023 112.532 70.9689 112.475 71.133 112.36C71.3 112.246 71.3835 112.057 71.3835 111.793C71.3835 111.547 71.2927 111.372 71.111 111.266C70.9323 111.158 70.6481 111.104 70.2585 111.104H69.5422V112.532ZM69.5422 113.613V115.287H70.4299C70.8049 115.287 71.0817 115.215 71.2604 115.072C71.4392 114.928 71.5285 114.708 71.5285 114.413C71.5285 113.879 71.1477 113.613 70.3859 113.613H69.5422Z" fill="white"/>
<path d="M80.5083 113.191C80.5083 114.254 80.2446 115.072 79.7173 115.643C79.1899 116.214 78.4341 116.5 77.4497 116.5C76.4653 116.5 75.7095 116.214 75.1821 115.643C74.6548 115.072 74.3911 114.251 74.3911 113.182C74.3911 112.113 74.6548 111.297 75.1821 110.734C75.7124 110.169 76.4712 109.886 77.4585 109.886C78.4458 109.886 79.2002 110.17 79.7217 110.739C80.2461 111.307 80.5083 112.125 80.5083 113.191ZM75.8193 113.191C75.8193 113.909 75.9556 114.449 76.228 114.812C76.5005 115.176 76.9077 115.357 77.4497 115.357C78.5366 115.357 79.0801 114.635 79.0801 113.191C79.0801 111.744 78.5396 111.02 77.4585 111.02C76.9165 111.02 76.5078 111.203 76.2324 111.569C75.957 111.933 75.8193 112.473 75.8193 113.191Z" fill="white"/>
<path d="M81.4373 115.278H81.9339C82.3587 114.429 82.6941 113.581 82.9402 112.734C83.1863 111.884 83.3694 110.969 83.4895 109.987H87.2337V115.278H88.0906V118.284H86.7767V116.412H82.7513V118.284H81.4373V115.278ZM84.5706 111.121C84.4769 111.792 84.3201 112.502 84.1004 113.252C83.8836 114.002 83.639 114.678 83.3665 115.278H85.8758V111.121H84.5706Z" fill="white"/>
<path d="M92.2628 111.029C91.7501 111.029 91.3531 111.222 91.0719 111.609C90.7906 111.993 90.65 112.529 90.65 113.217C90.65 114.65 91.1876 115.366 92.2628 115.366C92.714 115.366 93.2603 115.253 93.9019 115.028V116.17C93.3746 116.39 92.7857 116.5 92.1353 116.5C91.2008 116.5 90.4859 116.217 89.9908 115.652C89.4957 115.083 89.2481 114.269 89.2481 113.208C89.2481 112.541 89.3697 111.956 89.6129 111.455C89.856 110.951 90.2047 110.566 90.6588 110.299C91.1158 110.03 91.6505 109.895 92.2628 109.895C92.8868 109.895 93.5138 110.046 94.1436 110.348L93.7042 111.455C93.464 111.341 93.2223 111.241 92.9791 111.156C92.7359 111.071 92.4972 111.029 92.2628 111.029Z" fill="white"/>
<path d="M98.2016 116.412H96.8393V111.121H95.0946V109.987H99.9462V111.121H98.2016V116.412Z" fill="white"/>
<path d="M101.385 109.987H103.384C104.296 109.987 104.956 110.118 105.366 110.378C105.779 110.636 105.986 111.048 105.986 111.613C105.986 111.997 105.895 112.312 105.714 112.558C105.535 112.804 105.296 112.952 104.997 113.002V113.046C105.404 113.137 105.697 113.307 105.876 113.556C106.058 113.805 106.149 114.136 106.149 114.549C106.149 115.135 105.936 115.592 105.511 115.92C105.09 116.248 104.515 116.412 103.789 116.412H101.385V109.987ZM102.747 112.532H103.538C103.907 112.532 104.174 112.475 104.338 112.36C104.505 112.246 104.589 112.057 104.589 111.793C104.589 111.547 104.498 111.372 104.316 111.266C104.137 111.158 103.853 111.104 103.464 111.104H102.747V112.532ZM102.747 113.613V115.287H103.635C104.01 115.287 104.287 115.215 104.466 115.072C104.644 114.928 104.734 114.708 104.734 114.413C104.734 113.879 104.353 113.613 103.591 113.613H102.747Z" fill="white"/>
<path d="M113.713 113.191C113.713 114.254 113.45 115.072 112.922 115.643C112.395 116.214 111.639 116.5 110.655 116.5C109.67 116.5 108.915 116.214 108.387 115.643C107.86 115.072 107.596 114.251 107.596 113.182C107.596 112.113 107.86 111.297 108.387 110.734C108.917 110.169 109.676 109.886 110.664 109.886C111.651 109.886 112.405 110.17 112.927 110.739C113.451 111.307 113.713 112.125 113.713 113.191ZM109.024 113.191C109.024 113.909 109.161 114.449 109.433 114.812C109.706 115.176 110.113 115.357 110.655 115.357C111.742 115.357 112.285 114.635 112.285 113.191C112.285 111.744 111.745 111.02 110.664 111.02C110.122 111.02 109.713 111.203 109.438 111.569C109.162 111.933 109.024 112.473 109.024 113.191Z" fill="white"/>
<path d="M20.8306 125.011H21.2788C21.6978 125.011 22.0112 124.929 22.2192 124.765C22.4272 124.598 22.5312 124.356 22.5312 124.04C22.5312 123.72 22.4434 123.484 22.2676 123.332C22.0947 123.18 21.8223 123.104 21.4502 123.104H20.8306V125.011ZM23.9067 123.991C23.9067 124.683 23.6899 125.211 23.2563 125.578C22.8257 125.944 22.2119 126.127 21.415 126.127H20.8306V128.412H19.4683V121.987H21.5205C22.2998 121.987 22.8916 122.156 23.2959 122.493C23.7031 122.827 23.9067 123.326 23.9067 123.991Z" fill="white"/>
<path d="M29.2698 128.412H25.5696V121.987H29.2698V123.104H26.9319V124.514H29.1072V125.63H26.9319V127.287H29.2698V128.412Z" fill="white"/>
<path d="M35.503 123.49C35.503 123.903 35.3565 124.245 35.0636 124.514C34.7706 124.784 34.3736 124.955 33.8727 125.028V125.055C34.4615 125.113 34.9127 125.276 35.2262 125.542C35.5426 125.809 35.7008 126.156 35.7008 126.584C35.7008 127.176 35.4605 127.643 34.9801 127.986C34.5025 128.329 33.8404 128.5 32.9937 128.5C32.0504 128.5 31.2931 128.384 30.7218 128.153V127.01C30.9972 127.142 31.3194 127.246 31.6886 127.322C32.0606 127.396 32.4078 127.432 32.7301 127.432C33.8111 127.432 34.3517 127.117 34.3517 126.487C34.3517 126.203 34.1773 125.985 33.8287 125.833C33.483 125.68 32.9703 125.604 32.2906 125.604H31.6886V124.541H32.2291C32.9088 124.541 33.4039 124.476 33.7145 124.347C34.025 124.218 34.1803 124.004 34.1803 123.706C34.1803 123.486 34.0821 123.312 33.8858 123.183C33.6925 123.051 33.401 122.985 33.0113 122.985C32.4078 122.985 31.8248 123.159 31.2623 123.508L30.669 122.598C31.0353 122.355 31.4234 122.178 31.8336 122.066C32.2437 121.952 32.6993 121.895 33.2003 121.895C33.9005 121.895 34.4586 122.042 34.8746 122.334C35.2936 122.627 35.503 123.013 35.503 123.49Z" fill="white"/>
<path d="M37.3505 121.987H38.5766V125.09L38.559 125.92L38.515 126.865H38.5414L41.5077 121.987H43.1381V128.412H41.9252V125.327C41.9252 124.914 41.9516 124.302 42.0043 123.49H41.9691L38.9896 128.412H37.3505V121.987Z" fill="white"/>
<path d="M50.4743 128.412H49.1164V125.639H46.572V128.412H45.2097V121.987H46.572V124.505H49.1164V121.987H50.4743V128.412Z" fill="white"/>
<path d="M58.3818 125.191C58.3818 126.254 58.1182 127.072 57.5908 127.643C57.0635 128.214 56.3076 128.5 55.3232 128.5C54.3389 128.5 53.583 128.214 53.0557 127.643C52.5283 127.072 52.2646 126.251 52.2646 125.182C52.2646 124.113 52.5283 123.297 53.0557 122.734C53.5859 122.169 54.3447 121.886 55.332 121.886C56.3193 121.886 57.0737 122.17 57.5952 122.739C58.1196 123.307 58.3818 124.125 58.3818 125.191ZM53.6929 125.191C53.6929 125.909 53.8291 126.449 54.1016 126.812C54.374 127.176 54.7812 127.357 55.3232 127.357C56.4102 127.357 56.9536 126.635 56.9536 125.191C56.9536 123.744 56.4131 123.02 55.332 123.02C54.79 123.02 54.3813 123.203 54.106 123.569C53.8306 123.933 53.6929 124.473 53.6929 125.191Z" fill="white"/>
<path d="M60.1634 121.987H62.1629C63.074 121.987 63.7347 122.118 64.1448 122.378C64.5579 122.636 64.7645 123.048 64.7645 123.613C64.7645 123.997 64.6736 124.312 64.492 124.558C64.3133 124.804 64.0745 124.952 63.7757 125.002V125.046C64.1829 125.137 64.4759 125.307 64.6546 125.556C64.8362 125.805 64.9271 126.136 64.9271 126.549C64.9271 127.135 64.7146 127.592 64.2898 127.92C63.868 128.248 63.2938 128.412 62.5672 128.412H60.1634V121.987ZM61.5257 124.532H62.3167C62.6858 124.532 62.9524 124.475 63.1165 124.36C63.2835 124.246 63.367 124.057 63.367 123.793C63.367 123.547 63.2762 123.372 63.0945 123.266C62.9158 123.158 62.6316 123.104 62.242 123.104H61.5257V124.532ZM61.5257 125.613V127.287H62.4134C62.7884 127.287 63.0652 127.215 63.2439 127.072C63.4227 126.928 63.512 126.708 63.512 126.413C63.512 125.879 63.1312 125.613 62.3694 125.613H61.5257Z" fill="white"/>
<path d="M72.4918 125.191C72.4918 126.254 72.2281 127.072 71.7008 127.643C71.1734 128.214 70.4176 128.5 69.4332 128.5C68.4488 128.5 67.693 128.214 67.1656 127.643C66.6383 127.072 66.3746 126.251 66.3746 125.182C66.3746 124.113 66.6383 123.297 67.1656 122.734C67.6959 122.169 68.4547 121.886 69.442 121.886C70.4293 121.886 71.1837 122.17 71.7052 122.739C72.2296 123.307 72.4918 124.125 72.4918 125.191ZM67.8028 125.191C67.8028 125.909 67.9391 126.449 68.2115 126.812C68.484 127.176 68.8912 127.357 69.4332 127.357C70.5201 127.357 71.0636 126.635 71.0636 125.191C71.0636 123.744 70.523 123.02 69.442 123.02C68.9 123.02 68.4913 123.203 68.2159 123.569C67.9405 123.933 67.8028 124.473 67.8028 125.191Z" fill="white"/>
<path d="M74.2733 121.987H75.4994V125.09L75.4818 125.92L75.4379 126.865H75.4643L78.4306 121.987H80.0609V128.412H78.848V125.327C78.848 124.914 78.8744 124.302 78.9271 123.49H78.892L75.9125 128.412H74.2733V121.987ZM79.2963 119.9C79.2406 120.448 79.0341 120.848 78.6767 121.1C78.3192 121.349 77.8036 121.473 77.1298 121.473C76.4354 121.473 75.9213 121.353 75.5873 121.113C75.2562 120.873 75.0702 120.468 75.0292 119.9H76.2289C76.2494 120.202 76.3241 120.414 76.453 120.537C76.5849 120.657 76.8192 120.717 77.1562 120.717C77.452 120.717 77.6718 120.651 77.8153 120.52C77.9618 120.385 78.0512 120.178 78.0834 119.9H79.2963Z" fill="white"/>
<path d="M90.1587 128.412H88.6118L86.2827 125.156V128.412H84.9204V121.987H86.2827V125.099L88.5854 121.987H90.0356L87.6934 125.072L90.1587 128.412Z" fill="white"/>
<path d="M92.7796 125.011H93.2278C93.6468 125.011 93.9603 124.929 94.1683 124.765C94.3763 124.598 94.4803 124.356 94.4803 124.04C94.4803 123.72 94.3924 123.484 94.2166 123.332C94.0437 123.18 93.7713 123.104 93.3992 123.104H92.7796V125.011ZM95.8558 123.991C95.8558 124.683 95.639 125.211 95.2054 125.578C94.7747 125.944 94.1609 126.127 93.3641 126.127H92.7796V128.412H91.4173V121.987H93.4695C94.2488 121.987 94.8406 122.156 95.2449 122.493C95.6521 122.827 95.8558 123.326 95.8558 123.991Z" fill="white"/>
<path d="M103.35 125.191C103.35 126.254 103.087 127.072 102.559 127.643C102.032 128.214 101.276 128.5 100.292 128.5C99.3072 128.5 98.5514 128.214 98.024 127.643C97.4967 127.072 97.233 126.251 97.233 125.182C97.233 124.113 97.4967 123.297 98.024 122.734C98.5543 122.169 99.3131 121.886 100.3 121.886C101.288 121.886 102.042 122.17 102.564 122.739C103.088 123.307 103.35 124.125 103.35 125.191ZM98.6612 125.191C98.6612 125.909 98.7975 126.449 99.0699 126.812C99.3424 127.176 99.7496 127.357 100.292 127.357C101.379 127.357 101.922 126.635 101.922 125.191C101.922 123.744 101.381 123.02 100.3 123.02C99.7584 123.02 99.3497 123.203 99.0743 123.569C98.7989 123.933 98.6612 124.473 98.6612 125.191Z" fill="white"/>
<path d="M109.86 127.278H111.855V121.987H113.213V128.412H105.132V121.987H106.494V127.278H108.489V121.987H109.86V127.278Z" fill="white"/>
<path d="M120.523 128.412H118.976L116.647 125.156V128.412H115.285V121.987H116.647V125.099L118.95 121.987H120.4L118.058 125.072L120.523 128.412Z" fill="white"/>
<path d="M121.782 121.987H123.008V125.09L122.99 125.92L122.946 126.865H122.973L125.939 121.987H127.569V128.412H126.356V125.327C126.356 124.914 126.383 124.302 126.436 123.49H126.4L123.421 128.412H121.782V121.987Z" fill="white"/>
<path fill-rule="evenodd" clip-rule="evenodd" d="M71.321 71.3359V20.8254L75.721 20.8254V71.3359H71.321Z" fill="white"/>
<path fill-rule="evenodd" clip-rule="evenodd" d="M61.186 71.3359V31.2004H65.586V71.3359H61.186Z" fill="white"/>
<path fill-rule="evenodd" clip-rule="evenodd" d="M51.051 71.336V41.6236H55.451V71.336L51.051 71.336Z" fill="white"/>
<path fill-rule="evenodd" clip-rule="evenodd" d="M40.916 71.3359V52.1379H45.316V71.3359H40.916Z" fill="white"/>
<path fill-rule="evenodd" clip-rule="evenodd" d="M30.781 71.3359V58.7255H35.181V71.3359H30.781Z" fill="white"/>
<path fill-rule="evenodd" clip-rule="evenodd" d="M20.646 71.3359V63.4117H25.046V71.3359H20.646Z" fill="white"/>
<path fill-rule="evenodd" clip-rule="evenodd" d="M10.511 71.3359V67.1379H14.911L14.911 71.3359H10.511Z" fill="white"/>
<path fill-rule="evenodd" clip-rule="evenodd" d="M0.375977 71.3359L0.375977 67.1379H4.77598V71.3359H0.375977Z" fill="white"/>
<path fill-rule="evenodd" clip-rule="evenodd" d="M85.856 71.3359V31.2004H81.456V71.3359H85.856Z" fill="white"/>
<path fill-rule="evenodd" clip-rule="evenodd" d="M95.991 71.336V41.6236H91.591V71.336L95.991 71.336Z" fill="white"/>
<path fill-rule="evenodd" clip-rule="evenodd" d="M106.126 71.3359V52.1379H101.726V71.3359H106.126Z" fill="white"/>
<path fill-rule="evenodd" clip-rule="evenodd" d="M116.261 71.3359V58.7255H111.861V71.3359H116.261Z" fill="white"/>
<path fill-rule="evenodd" clip-rule="evenodd" d="M126.396 71.3359V63.4117H121.996V71.3359H126.396Z" fill="white"/>
<path fill-rule="evenodd" clip-rule="evenodd" d="M136.531 71.3359V67.1379H132.131V71.3359H136.531Z" fill="white"/>
<path fill-rule="evenodd" clip-rule="evenodd" d="M146.666 71.3359V67.1379H142.266V71.3359H146.666Z" fill="white"/>
<path d="M85.5669 0.0217306L61.8023 0.0217285V4.42173L85.5669 4.42173V0.0217306Z" fill="#E95836"/>
<path d="M101.552 10.4269H45.1772V14.8269L101.552 14.8269V10.4269Z" fill="#E95836"/>
<path d="M81.4272 20.832H109.833V25.232H81.4272V20.832Z" fill="#E95836"/>
<path d="M65.4897 20.832H37.0835V25.232H65.4897V20.832Z" fill="#E95836"/>
<path d="M33.8022 31.2372H55.5522V35.6372H33.8022V31.2372Z" fill="#E95836"/>
<path d="M113.396 31.2372H91.646V35.6372H113.396V31.2372Z" fill="#E95836"/>
<path d="M33.3022 41.6423H45.4897V46.0423H33.3022V41.6423Z" fill="#E95836"/>
<path d="M113.74 41.6423H101.552V46.0423H113.74V41.6423Z" fill="#E95836"/>
<path d="M6.57178 96.7541L10.0278 86.3541H12.4758L15.7078 96.7541H13.3718L12.4758 93.8421H8.85978L7.91578 96.7541H6.57178ZM9.17978 92.8341H12.1718L10.7478 87.9381H10.7158L9.17978 92.8341Z" fill="white"/>
<path d="M37.3942 96.9301C35.8262 96.9301 34.6315 96.4608 33.8102 95.5221C32.9888 94.5728 32.5782 93.2768 32.5782 91.6341C32.5782 90.5461 32.7648 89.5914 33.1382 88.7701C33.5115 87.9488 34.0555 87.3141 34.7702 86.8661C35.4848 86.4181 36.3328 86.1941 37.3142 86.1941C37.8048 86.1941 38.2848 86.2581 38.7542 86.3861C39.2341 86.5034 39.6448 86.6368 39.9862 86.7861C40.3382 86.9248 40.5142 86.9994 40.5142 87.0101L40.2902 88.1781C40.2155 88.1354 40.0341 88.0554 39.7462 87.9381C39.4582 87.8101 39.1115 87.6874 38.7062 87.5701C38.3115 87.4528 37.9382 87.3941 37.5862 87.3941C36.9888 87.3941 36.5035 87.5274 36.1302 87.7941C35.7568 88.0608 35.4742 88.4981 35.2822 89.1061C35.1008 89.7141 35.0102 90.5301 35.0102 91.5541C35.0102 93.0581 35.2288 94.1301 35.6662 94.7701C36.1035 95.4101 36.7808 95.7301 37.6982 95.7301C38.2102 95.7301 38.6582 95.6234 39.0422 95.4101C39.4368 95.1861 39.7515 94.9461 39.9862 94.6901C40.2315 94.4234 40.3542 94.2741 40.3542 94.2421L41.0582 95.0101C41.0582 95.0634 40.9142 95.2554 40.6262 95.5861C40.3488 95.9168 39.9381 96.2261 39.3941 96.5141C38.8502 96.7914 38.1835 96.9301 37.3942 96.9301Z" fill="white"/>
<path d="M58.4529 96.7541V86.3541H64.2449V87.5061H60.6609V96.7541H58.4529Z" fill="white"/>
<path d="M80.5405 96.7541L83.9965 86.3541H86.4445L89.6765 96.7541H87.3405L86.4445 93.8421H82.8285L81.8845 96.7541H80.5405ZM83.1485 92.8341H86.1405L84.7165 87.9381H84.6845L83.1485 92.8341Z" fill="white"/>
<path d="M107.203 86.3541H110.387C111.571 86.3541 112.488 86.6528 113.139 87.2501C113.8 87.8368 114.131 88.7114 114.131 89.8741C114.131 90.7061 113.95 91.3941 113.587 91.9381C113.224 92.4821 112.76 92.8821 112.195 93.1381C111.63 93.3834 111.043 93.5061 110.435 93.5061H109.411V96.7541H107.203V86.3541ZM110.179 92.4821C110.712 92.4821 111.107 92.3008 111.363 91.9381C111.619 91.5648 111.747 90.9088 111.747 89.9701C111.747 89.0208 111.619 88.3541 111.363 87.9701C111.107 87.5861 110.712 87.3941 110.179 87.3941H109.411V92.4821H110.179Z" fill="white"/>
<path d="M130.87 95.6021H131.942C132.39 94.6634 132.705 93.5168 132.886 92.1621C133.078 90.7968 133.174 88.8608 133.174 86.3541H139.174V95.6021H140.47L140.086 99.5541H138.838L138.486 96.7541H132.79L132.15 99.5541H131.046L130.87 95.6021ZM136.966 95.6021V87.5061H134.47C134.449 89.5648 134.342 91.2074 134.15 92.4341C133.958 93.6501 133.659 94.7061 133.254 95.6021H136.966Z" fill="white"/>
</svg>
