<svg width="147" height="101" viewBox="0 0 147 101" fill="none" xmlns="http://www.w3.org/2000/svg">
<path d="M71.3 72.0303V21.5198H75.7001V72.0303H71.3Z" fill="white"/>
<path d="M61.165 72.0303V31.8948H65.565V72.0303H61.165Z" fill="white"/>
<path d="M51.03 42.3179V72.0302H55.43V42.3179H51.03Z" fill="white"/>
<path d="M40.895 72.0303V52.8323H45.295V72.0303H40.895Z" fill="white"/>
<path d="M30.76 59.4197V72.0301H35.16V59.4197H30.76Z" fill="white"/>
<path d="M20.625 72.0301V64.106H25.025V72.0301H20.625Z" fill="white"/>
<path d="M10.49 67.8323V72.0302H14.89L14.89 67.8323H10.49Z" fill="white"/>
<path d="M0.35498 72.0302V67.8323H4.75498V72.0302H0.35498Z" fill="white"/>
<path d="M85.835 31.8948V72.0303H81.435V31.8948H85.835Z" fill="white"/>
<path d="M95.97 72.0302V42.3179H91.57V72.0302H95.97Z" fill="white"/>
<path d="M106.105 52.8323V72.0303H101.705V52.8323H106.105Z" fill="white"/>
<path d="M116.24 72.0301V59.4197H111.84V72.0301H116.24Z" fill="white"/>
<path d="M126.375 64.106V72.0301H121.975V64.106H126.375Z" fill="white"/>
<path d="M136.51 72.0302V67.8323H132.11V72.0302H136.51Z" fill="white"/>
<path d="M146.645 67.8323V72.0302H142.245V67.8323H146.645Z" fill="white"/>
<path fill-rule="evenodd" clip-rule="evenodd" d="M61.7813 0.716064L85.5459 0.716067V5.11607L61.7813 5.11606V0.716064Z" fill="#E95836"/>
<path fill-rule="evenodd" clip-rule="evenodd" d="M45.1562 11.1212H101.531V15.5212H45.1562V11.1212Z" fill="#E95836"/>
<path fill-rule="evenodd" clip-rule="evenodd" d="M81.4062 21.5264H109.812V25.9264H81.4062V21.5264Z" fill="#E95836"/>
<path fill-rule="evenodd" clip-rule="evenodd" d="M37.0625 21.5264H65.4688V25.9264H37.0625V21.5264Z" fill="#E95836"/>
<path fill-rule="evenodd" clip-rule="evenodd" d="M33.7812 31.9315H55.5312V36.3315H33.7812V31.9315Z" fill="#E95836"/>
<path fill-rule="evenodd" clip-rule="evenodd" d="M91.625 31.9315H113.375V36.3315H91.625V31.9315Z" fill="#E95836"/>
<path fill-rule="evenodd" clip-rule="evenodd" d="M33.2812 42.3367H45.4688V46.7367H33.2812V42.3367Z" fill="#E95836"/>
<path fill-rule="evenodd" clip-rule="evenodd" d="M101.531 42.3367H113.719V46.7367H101.531V42.3367Z" fill="#E95836"/>
<path d="M6.55078 97.4484L10.0068 87.0484H12.4548L15.6868 97.4484H13.3508L12.4548 94.5364H8.83878L7.89478 97.4484H6.55078ZM9.15878 93.5284H12.1508L10.7268 88.6324H10.6948L9.15878 93.5284Z" fill="white"/>
<path d="M37.3732 97.6244C35.8052 97.6244 34.6105 97.1551 33.7892 96.2164C32.9678 95.2671 32.5572 93.9711 32.5572 92.3284C32.5572 91.2404 32.7438 90.2858 33.1172 89.4644C33.4905 88.6431 34.0345 88.0084 34.7492 87.5604C35.4638 87.1124 36.3118 86.8884 37.2932 86.8884C37.7838 86.8884 38.2638 86.9524 38.7332 87.0804C39.2132 87.1978 39.6238 87.3311 39.9652 87.4804C40.3172 87.6191 40.4932 87.6938 40.4932 87.7044L40.2692 88.8724C40.1945 88.8298 40.0132 88.7498 39.7252 88.6324C39.4372 88.5044 39.0905 88.3818 38.6852 88.2644C38.2905 88.1471 37.9172 88.0884 37.5652 88.0884C36.9678 88.0884 36.4825 88.2218 36.1092 88.4884C35.7358 88.7551 35.4532 89.1924 35.2612 89.8004C35.0798 90.4084 34.9892 91.2244 34.9892 92.2484C34.9892 93.7524 35.2078 94.8244 35.6452 95.4644C36.0825 96.1044 36.7598 96.4244 37.6772 96.4244C38.1892 96.4244 38.6372 96.3178 39.0212 96.1044C39.4158 95.8804 39.7305 95.6404 39.9652 95.3844C40.2105 95.1178 40.3332 94.9684 40.3332 94.9364L41.0372 95.7044C41.0372 95.7578 40.8932 95.9498 40.6052 96.2804C40.3278 96.6111 39.9172 96.9204 39.3732 97.2084C38.8292 97.4858 38.1625 97.6244 37.3732 97.6244Z" fill="white"/>
<path d="M58.4319 97.4484V87.0484H64.2239V88.2004H60.6399V97.4484H58.4319Z" fill="white"/>
<path d="M80.5195 97.4484L83.9755 87.0484H86.4235L89.6555 97.4484H87.3195L86.4235 94.5364H82.8075L81.8635 97.4484H80.5195ZM83.1275 93.5284H86.1195L84.6955 88.6324H84.6635L83.1275 93.5284Z" fill="white"/>
<path d="M107.182 87.0484H110.366C111.55 87.0484 112.467 87.3471 113.118 87.9444C113.779 88.5311 114.11 89.4058 114.11 90.5684C114.11 91.4004 113.929 92.0884 113.566 92.6324C113.203 93.1764 112.739 93.5764 112.174 93.8324C111.609 94.0778 111.022 94.2004 110.414 94.2004H109.39V97.4484H107.182V87.0484ZM110.158 93.1764C110.691 93.1764 111.086 92.9951 111.342 92.6324C111.598 92.2591 111.726 91.6031 111.726 90.6644C111.726 89.7151 111.598 89.0484 111.342 88.6644C111.086 88.2804 110.691 88.0884 110.158 88.0884H109.39V93.1764H110.158Z" fill="white"/>
<path d="M130.849 96.2964H131.921C132.369 95.3578 132.684 94.2111 132.865 92.8564C133.057 91.4911 133.153 89.5551 133.153 87.0484H139.153V96.2964H140.449L140.065 100.248H138.817L138.465 97.4484H132.769L132.129 100.248H131.025L130.849 96.2964ZM136.945 96.2964V88.2004H134.449C134.428 90.2591 134.321 91.9018 134.129 93.1284C133.937 94.3444 133.638 95.4004 133.233 96.2964H136.945Z" fill="white"/>
</svg>
