<svg width="197" height="31" viewBox="0 0 197 31" fill="none" xmlns="http://www.w3.org/2000/svg">
<path d="M27.6428 27.7867V8.1059H29.3572V27.7867H27.6428Z" fill="white"/>
<path d="M23.6938 27.7866V12.1484H25.4082V27.7866H23.6938Z" fill="white"/>
<path d="M19.7449 16.2096V27.7866H21.4593V16.2096H19.7449Z" fill="white"/>
<path d="M15.7959 27.7867V20.3064H17.5103V27.7867H15.7959Z" fill="white"/>
<path d="M11.8469 22.8731V27.7866H13.5613V22.8731H11.8469Z" fill="white"/>
<path d="M7.89795 27.7866V24.699H9.61235V27.7866H7.89795Z" fill="white"/>
<path d="M3.94897 26.151V27.7866H5.66338L5.66338 26.151H3.94897Z" fill="white"/>
<path d="M0 27.7866V26.151H1.7144V27.7866H0Z" fill="white"/>
<path d="M33.3062 12.1484V27.7866H31.5918V12.1484H33.3062Z" fill="white"/>
<path d="M37.2551 27.7866V16.2096H35.5407V27.7866H37.2551Z" fill="white"/>
<path d="M41.2041 20.3064V27.7867H39.4897V20.3064H41.2041Z" fill="white"/>
<path d="M45.1531 27.7866V22.8731H43.4387V27.7866H45.1531Z" fill="white"/>
<path d="M49.1021 24.699V27.7866H47.3876V24.699H49.1021Z" fill="white"/>
<path d="M53.051 27.7866V26.151H51.3366V27.7866H53.051Z" fill="white"/>
<path d="M57 26.151V27.7866H55.2856V26.151H57Z" fill="white"/>
<path fill-rule="evenodd" clip-rule="evenodd" d="M23.9339 0L33.1935 8.09496e-07V1.7144L23.9339 1.7144V0Z" fill="#E95836"/>
<path fill-rule="evenodd" clip-rule="evenodd" d="M17.4562 4.05423H39.4219V5.76863H17.4562V4.05423Z" fill="#E95836"/>
<path fill-rule="evenodd" clip-rule="evenodd" d="M31.5805 8.10846H42.6486V9.82286H31.5805V8.10846Z" fill="#E95836"/>
<path fill-rule="evenodd" clip-rule="evenodd" d="M14.3025 8.10846H25.3707V9.82286H14.3025V8.10846Z" fill="#E95836"/>
<path fill-rule="evenodd" clip-rule="evenodd" d="M13.024 12.1627H21.4986V13.8771H13.024V12.1627Z" fill="#E95836"/>
<path fill-rule="evenodd" clip-rule="evenodd" d="M35.5621 12.1627H44.0367V13.8771H35.5621V12.1627Z" fill="#E95836"/>
<path fill-rule="evenodd" clip-rule="evenodd" d="M12.8292 16.2169H17.5779V17.9313H12.8292V16.2169Z" fill="#E95836"/>
<path fill-rule="evenodd" clip-rule="evenodd" d="M39.4219 16.2169H44.1706V17.9313H39.4219V16.2169Z" fill="#E95836"/>
<path d="M67 16.485L70.2005 7.14371H72.4675L75.4606 16.485H73.2973L72.4675 13.8695H69.1189L68.2446 16.485H67ZM69.4152 12.9641H72.186L70.8673 8.56647H70.8377L69.4152 12.9641Z" fill="white"/>
<path d="M95.5438 16.6431C94.0918 16.6431 92.9854 16.2216 92.2248 15.3784C91.4642 14.5257 91.0839 13.3617 91.0839 11.8862C91.0839 10.909 91.2567 10.0515 91.6025 9.31377C91.9482 8.57605 92.452 8.00599 93.1138 7.60359C93.7757 7.2012 94.561 7 95.4698 7C95.9242 7 96.3687 7.05749 96.8033 7.17246C97.2478 7.27784 97.6281 7.3976 97.9442 7.53174C98.2702 7.65629 98.4332 7.72335 98.4332 7.73293L98.2258 8.78204C98.1566 8.74371 97.9887 8.67186 97.722 8.56647C97.4553 8.4515 97.1342 8.34132 96.7589 8.23593C96.3934 8.13054 96.0476 8.07784 95.7217 8.07784C95.1685 8.07784 94.719 8.1976 94.3733 8.43713C94.0276 8.67665 93.7658 9.06946 93.588 9.61557C93.42 10.1617 93.3361 10.8946 93.3361 11.8144C93.3361 13.1653 93.5386 14.1281 93.9436 14.703C94.3486 15.2778 94.9759 15.5653 95.8254 15.5653C96.2995 15.5653 96.7144 15.4695 97.07 15.2778C97.4355 15.0766 97.7269 14.8611 97.9442 14.6311C98.1714 14.3916 98.285 14.2575 98.285 14.2287L98.937 14.9186C98.937 14.9665 98.8036 15.1389 98.5369 15.4359C98.2801 15.7329 97.8998 16.0108 97.396 16.2695C96.8922 16.5186 96.2748 16.6431 95.5438 16.6431Z" fill="white"/>
<path d="M115.046 16.485V7.14371H120.41V8.17844H117.091V16.485H115.046Z" fill="white"/>
<path d="M135.501 16.485L138.701 7.14371H140.968L143.961 16.485H141.798L140.968 13.8695H137.62L136.745 16.485H135.501ZM137.916 12.9641H140.687L139.368 8.56647H139.338L137.916 12.9641Z" fill="white"/>
<path d="M160.192 7.14371H163.141C164.237 7.14371 165.087 7.41198 165.689 7.9485C166.302 8.47545 166.608 9.26108 166.608 10.3054C166.608 11.0527 166.44 11.6707 166.104 12.1593C165.768 12.6479 165.339 13.0072 164.815 13.2371C164.291 13.4575 163.748 13.5677 163.185 13.5677H162.237V16.485H160.192V7.14371ZM162.948 12.6479C163.442 12.6479 163.807 12.485 164.044 12.1593C164.282 11.824 164.4 11.2347 164.4 10.3916C164.4 9.53892 164.282 8.94012 164.044 8.59521C163.807 8.2503 163.442 8.07784 162.948 8.07784H162.237V12.6479H162.948Z" fill="white"/>
<path d="M182.11 15.4503H183.102C183.517 14.6072 183.809 13.5772 183.977 12.3605C184.154 11.1341 184.243 9.39521 184.243 7.14371H189.8V15.4503H191L190.644 19H189.489L189.163 16.485H183.888L183.295 19H182.273L182.11 15.4503ZM187.755 15.4503V8.17844H185.444C185.424 10.0275 185.325 11.503 185.147 12.6048C184.969 13.697 184.693 14.6455 184.317 15.4503H187.755Z" fill="white"/>
<path d="M66.582 28V23.716H69.798V28H69.264V24.19H67.122V28H66.582ZM72.5547 23.716C73.1147 23.716 73.5227 23.826 73.7787 24.046C74.0347 24.266 74.1627 24.576 74.1627 24.976C74.1627 25.212 74.1087 25.434 74.0007 25.642C73.8967 25.846 73.7187 26.012 73.4667 26.14C73.2187 26.268 72.8807 26.332 72.4527 26.332H71.9607V28H71.4207V23.716H72.5547ZM72.5067 24.178H71.9607V25.87H72.3927C72.8007 25.87 73.1047 25.804 73.3047 25.672C73.5047 25.54 73.6047 25.316 73.6047 25C73.6047 24.724 73.5167 24.518 73.3407 24.382C73.1647 24.246 72.8867 24.178 72.5067 24.178ZM79.2415 25.852C79.2415 26.296 79.1655 26.684 79.0135 27.016C78.8655 27.344 78.6455 27.6 78.3535 27.784C78.0615 27.968 77.6995 28.06 77.2675 28.06C76.8235 28.06 76.4535 27.968 76.1575 27.784C75.8655 27.6 75.6475 27.342 75.5035 27.01C75.3595 26.678 75.2875 26.29 75.2875 25.846C75.2875 25.406 75.3595 25.022 75.5035 24.694C75.6475 24.366 75.8655 24.11 76.1575 23.926C76.4535 23.742 76.8255 23.65 77.2735 23.65C77.7015 23.65 78.0615 23.742 78.3535 23.926C78.6455 24.106 78.8655 24.362 79.0135 24.694C79.1655 25.022 79.2415 25.408 79.2415 25.852ZM75.8575 25.852C75.8575 26.392 75.9715 26.818 76.1995 27.13C76.4275 27.438 76.7835 27.592 77.2675 27.592C77.7555 27.592 78.1115 27.438 78.3355 27.13C78.5595 26.818 78.6715 26.392 78.6715 25.852C78.6715 25.312 78.5595 24.89 78.3355 24.586C78.1115 24.278 77.7575 24.124 77.2735 24.124C76.7895 24.124 76.4315 24.278 76.1995 24.586C75.9715 24.89 75.8575 25.312 75.8575 25.852ZM80.647 23.716H81.151V26.068C81.151 26.2 81.149 26.348 81.145 26.512C81.141 26.676 81.135 26.826 81.127 26.962C81.123 27.098 81.117 27.198 81.109 27.262H81.133L83.491 23.716H84.091V28H83.587V25.672C83.587 25.524 83.589 25.366 83.593 25.198C83.601 25.03 83.609 24.876 83.617 24.736C83.625 24.596 83.631 24.496 83.635 24.436H83.611L81.247 28H80.647V23.716ZM88.2285 24.718C88.2285 25.01 88.1365 25.242 87.9525 25.414C87.7685 25.582 87.5225 25.69 87.2145 25.738V25.762C87.5745 25.81 87.8485 25.922 88.0365 26.098C88.2245 26.274 88.3185 26.504 88.3185 26.788C88.3185 27.164 88.1745 27.47 87.8865 27.706C87.5985 27.942 87.1665 28.06 86.5905 28.06C86.3585 28.06 86.1365 28.042 85.9245 28.006C85.7165 27.974 85.5225 27.914 85.3425 27.826V27.334C85.5305 27.422 85.7345 27.492 85.9545 27.544C86.1785 27.592 86.3885 27.616 86.5845 27.616C86.9685 27.616 87.2585 27.544 87.4545 27.4C87.6545 27.256 87.7545 27.052 87.7545 26.788C87.7545 26.516 87.6385 26.318 87.4065 26.194C87.1745 26.07 86.8505 26.008 86.4345 26.008H85.8225V25.558H86.4045C86.8285 25.558 87.1445 25.488 87.3525 25.348C87.5645 25.204 87.6705 25.012 87.6705 24.772C87.6705 24.556 87.5905 24.39 87.4305 24.274C87.2705 24.158 87.0625 24.1 86.8065 24.1C86.5385 24.1 86.3145 24.134 86.1345 24.202C85.9585 24.27 85.7865 24.358 85.6185 24.466L85.3605 24.1C85.5285 23.976 85.7345 23.872 85.9785 23.788C86.2265 23.7 86.5045 23.656 86.8125 23.656C87.2765 23.656 87.6285 23.756 87.8685 23.956C88.1085 24.156 88.2285 24.41 88.2285 24.718ZM89.6738 23.716H90.8978C91.4338 23.716 91.8378 23.796 92.1098 23.956C92.3858 24.112 92.5238 24.386 92.5238 24.778C92.5238 25.03 92.4538 25.24 92.3138 25.408C92.1738 25.572 91.9718 25.678 91.7078 25.726V25.756C91.8878 25.784 92.0498 25.836 92.1938 25.912C92.3418 25.988 92.4578 26.096 92.5418 26.236C92.6258 26.376 92.6678 26.558 92.6678 26.782C92.6678 27.17 92.5338 27.47 92.2658 27.682C92.0018 27.894 91.6398 28 91.1798 28H89.6738V23.716ZM90.2138 25.54H91.0058C91.3738 25.54 91.6258 25.482 91.7618 25.366C91.8978 25.246 91.9658 25.07 91.9658 24.838C91.9658 24.602 91.8818 24.434 91.7138 24.334C91.5498 24.23 91.2858 24.178 90.9218 24.178H90.2138V25.54ZM90.2138 25.99V27.544H91.0778C91.4578 27.544 91.7218 27.47 91.8698 27.322C92.0178 27.174 92.0918 26.98 92.0918 26.74C92.0918 26.516 92.0138 26.336 91.8578 26.2C91.7058 26.06 91.4318 25.99 91.0358 25.99H90.2138ZM97.7641 25.852C97.7641 26.296 97.6881 26.684 97.5361 27.016C97.3881 27.344 97.1681 27.6 96.8761 27.784C96.5841 27.968 96.2221 28.06 95.7901 28.06C95.3461 28.06 94.9761 27.968 94.6801 27.784C94.3881 27.6 94.1701 27.342 94.0261 27.01C93.8821 26.678 93.8101 26.29 93.8101 25.846C93.8101 25.406 93.8821 25.022 94.0261 24.694C94.1701 24.366 94.3881 24.11 94.6801 23.926C94.9761 23.742 95.3481 23.65 95.7961 23.65C96.2241 23.65 96.5841 23.742 96.8761 23.926C97.1681 24.106 97.3881 24.362 97.5361 24.694C97.6881 25.022 97.7641 25.408 97.7641 25.852ZM94.3801 25.852C94.3801 26.392 94.4941 26.818 94.7221 27.13C94.9501 27.438 95.3061 27.592 95.7901 27.592C96.2781 27.592 96.6341 27.438 96.8581 27.13C97.0821 26.818 97.1941 26.392 97.1941 25.852C97.1941 25.312 97.0821 24.89 96.8581 24.586C96.6341 24.278 96.2801 24.124 95.7961 24.124C95.3121 24.124 94.9541 24.278 94.7221 24.586C94.4941 24.89 94.3801 25.312 94.3801 25.852ZM101.932 23.716V27.52H102.478V29.128H101.962V28H99.0165V29.128H98.5005V27.52H98.8305C98.9745 27.272 99.1105 26.994 99.2385 26.686C99.3705 26.378 99.4865 26.056 99.5865 25.72C99.6865 25.38 99.7685 25.04 99.8325 24.7C99.8965 24.36 99.9365 24.032 99.9525 23.716H101.932ZM101.398 24.202H100.426C100.41 24.434 100.37 24.696 100.306 24.988C100.246 25.28 100.168 25.58 100.072 25.888C99.9805 26.192 99.8765 26.486 99.7605 26.77C99.6485 27.054 99.5285 27.304 99.4005 27.52H101.398V24.202ZM105.481 24.13C105.021 24.13 104.659 24.284 104.395 24.592C104.131 24.9 103.999 25.322 103.999 25.858C103.999 26.39 104.121 26.812 104.365 27.124C104.613 27.432 104.983 27.586 105.475 27.586C105.663 27.586 105.841 27.57 106.009 27.538C106.177 27.506 106.341 27.466 106.501 27.418V27.886C106.341 27.946 106.175 27.99 106.003 28.018C105.835 28.046 105.633 28.06 105.397 28.06C104.961 28.06 104.597 27.97 104.305 27.79C104.013 27.61 103.793 27.354 103.645 27.022C103.501 26.69 103.429 26.3 103.429 25.852C103.429 25.42 103.507 25.04 103.663 24.712C103.823 24.38 104.057 24.122 104.365 23.938C104.673 23.75 105.047 23.656 105.487 23.656C105.939 23.656 106.333 23.74 106.669 23.908L106.453 24.364C106.321 24.304 106.173 24.25 106.009 24.202C105.849 24.154 105.673 24.13 105.481 24.13ZM109.242 28H108.702V24.19H107.364V23.716H110.574V24.19H109.242V28ZM111.67 23.716H112.894C113.43 23.716 113.834 23.796 114.106 23.956C114.382 24.112 114.52 24.386 114.52 24.778C114.52 25.03 114.45 25.24 114.31 25.408C114.17 25.572 113.968 25.678 113.704 25.726V25.756C113.884 25.784 114.046 25.836 114.19 25.912C114.338 25.988 114.454 26.096 114.538 26.236C114.622 26.376 114.664 26.558 114.664 26.782C114.664 27.17 114.53 27.47 114.262 27.682C113.998 27.894 113.636 28 113.176 28H111.67V23.716ZM112.21 25.54H113.002C113.37 25.54 113.622 25.482 113.758 25.366C113.894 25.246 113.962 25.07 113.962 24.838C113.962 24.602 113.878 24.434 113.71 24.334C113.546 24.23 113.282 24.178 112.918 24.178H112.21V25.54ZM112.21 25.99V27.544H113.074C113.454 27.544 113.718 27.47 113.866 27.322C114.014 27.174 114.088 26.98 114.088 26.74C114.088 26.516 114.01 26.336 113.854 26.2C113.702 26.06 113.428 25.99 113.032 25.99H112.21ZM119.76 25.852C119.76 26.296 119.684 26.684 119.532 27.016C119.384 27.344 119.164 27.6 118.872 27.784C118.58 27.968 118.218 28.06 117.786 28.06C117.342 28.06 116.972 27.968 116.676 27.784C116.384 27.6 116.166 27.342 116.022 27.01C115.878 26.678 115.806 26.29 115.806 25.846C115.806 25.406 115.878 25.022 116.022 24.694C116.166 24.366 116.384 24.11 116.676 23.926C116.972 23.742 117.344 23.65 117.792 23.65C118.22 23.65 118.58 23.742 118.872 23.926C119.164 24.106 119.384 24.362 119.532 24.694C119.684 25.022 119.76 25.408 119.76 25.852ZM116.376 25.852C116.376 26.392 116.49 26.818 116.718 27.13C116.946 27.438 117.302 27.592 117.786 27.592C118.274 27.592 118.63 27.438 118.854 27.13C119.078 26.818 119.19 26.392 119.19 25.852C119.19 25.312 119.078 24.89 118.854 24.586C118.63 24.278 118.276 24.124 117.792 24.124C117.308 24.124 116.95 24.278 116.718 24.586C116.49 24.89 116.376 25.312 116.376 25.852ZM124.302 23.716C124.862 23.716 125.27 23.826 125.526 24.046C125.782 24.266 125.91 24.576 125.91 24.976C125.91 25.212 125.856 25.434 125.748 25.642C125.644 25.846 125.466 26.012 125.214 26.14C124.966 26.268 124.628 26.332 124.2 26.332H123.708V28H123.168V23.716H124.302ZM124.254 24.178H123.708V25.87H124.14C124.548 25.87 124.852 25.804 125.052 25.672C125.252 25.54 125.352 25.316 125.352 25C125.352 24.724 125.264 24.518 125.088 24.382C124.912 24.246 124.634 24.178 124.254 24.178ZM129.645 28H127.251V23.716H129.645V24.19H127.791V25.528H129.537V25.996H127.791V27.526H129.645V28ZM133.567 24.718C133.567 25.01 133.475 25.242 133.291 25.414C133.107 25.582 132.861 25.69 132.553 25.738V25.762C132.913 25.81 133.187 25.922 133.375 26.098C133.563 26.274 133.657 26.504 133.657 26.788C133.657 27.164 133.513 27.47 133.225 27.706C132.937 27.942 132.505 28.06 131.929 28.06C131.697 28.06 131.475 28.042 131.263 28.006C131.055 27.974 130.861 27.914 130.681 27.826V27.334C130.869 27.422 131.073 27.492 131.293 27.544C131.517 27.592 131.727 27.616 131.923 27.616C132.307 27.616 132.597 27.544 132.793 27.4C132.993 27.256 133.093 27.052 133.093 26.788C133.093 26.516 132.977 26.318 132.745 26.194C132.513 26.07 132.189 26.008 131.773 26.008H131.161V25.558H131.743C132.167 25.558 132.483 25.488 132.691 25.348C132.903 25.204 133.009 25.012 133.009 24.772C133.009 24.556 132.929 24.39 132.769 24.274C132.609 24.158 132.401 24.1 132.145 24.1C131.877 24.1 131.653 24.134 131.473 24.202C131.297 24.27 131.125 24.358 130.957 24.466L130.699 24.1C130.867 23.976 131.073 23.872 131.317 23.788C131.565 23.7 131.843 23.656 132.151 23.656C132.615 23.656 132.967 23.756 133.207 23.956C133.447 24.156 133.567 24.41 133.567 24.718ZM135.018 23.716H135.522V26.068C135.522 26.2 135.52 26.348 135.516 26.512C135.512 26.676 135.506 26.826 135.498 26.962C135.494 27.098 135.488 27.198 135.48 27.262H135.504L137.862 23.716H138.462V28H137.958V25.672C137.958 25.524 137.96 25.366 137.964 25.198C137.972 25.03 137.98 24.876 137.988 24.736C137.996 24.596 138.002 24.496 138.006 24.436H137.982L135.618 28H135.018V23.716ZM143.344 28H142.804V26.002H140.608V28H140.068V23.716H140.608V25.528H142.804V23.716H143.344V28ZM148.703 25.852C148.703 26.296 148.627 26.684 148.475 27.016C148.327 27.344 148.107 27.6 147.815 27.784C147.523 27.968 147.161 28.06 146.729 28.06C146.285 28.06 145.915 27.968 145.619 27.784C145.327 27.6 145.109 27.342 144.965 27.01C144.821 26.678 144.749 26.29 144.749 25.846C144.749 25.406 144.821 25.022 144.965 24.694C145.109 24.366 145.327 24.11 145.619 23.926C145.915 23.742 146.287 23.65 146.735 23.65C147.163 23.65 147.523 23.742 147.815 23.926C148.107 24.106 148.327 24.362 148.475 24.694C148.627 25.022 148.703 25.408 148.703 25.852ZM145.319 25.852C145.319 26.392 145.433 26.818 145.661 27.13C145.889 27.438 146.245 27.592 146.729 27.592C147.217 27.592 147.573 27.438 147.797 27.13C148.021 26.818 148.133 26.392 148.133 25.852C148.133 25.312 148.021 24.89 147.797 24.586C147.573 24.278 147.219 24.124 146.735 24.124C146.251 24.124 145.893 24.278 145.661 24.586C145.433 24.89 145.319 25.312 145.319 25.852ZM150.103 23.716H151.327C151.863 23.716 152.267 23.796 152.539 23.956C152.815 24.112 152.953 24.386 152.953 24.778C152.953 25.03 152.883 25.24 152.743 25.408C152.603 25.572 152.401 25.678 152.137 25.726V25.756C152.317 25.784 152.479 25.836 152.623 25.912C152.771 25.988 152.887 26.096 152.971 26.236C153.055 26.376 153.097 26.558 153.097 26.782C153.097 27.17 152.963 27.47 152.695 27.682C152.431 27.894 152.069 28 151.609 28H150.103V23.716ZM150.643 25.54H151.435C151.803 25.54 152.055 25.482 152.191 25.366C152.327 25.246 152.395 25.07 152.395 24.838C152.395 24.602 152.311 24.434 152.143 24.334C151.979 24.23 151.715 24.178 151.351 24.178H150.643V25.54ZM150.643 25.99V27.544H151.507C151.887 27.544 152.151 27.47 152.299 27.322C152.447 27.174 152.521 26.98 152.521 26.74C152.521 26.516 152.443 26.336 152.287 26.2C152.135 26.06 151.861 25.99 151.465 25.99H150.643ZM158.193 25.852C158.193 26.296 158.117 26.684 157.965 27.016C157.817 27.344 157.597 27.6 157.305 27.784C157.013 27.968 156.651 28.06 156.219 28.06C155.775 28.06 155.405 27.968 155.109 27.784C154.817 27.6 154.599 27.342 154.455 27.01C154.311 26.678 154.239 26.29 154.239 25.846C154.239 25.406 154.311 25.022 154.455 24.694C154.599 24.366 154.817 24.11 155.109 23.926C155.405 23.742 155.777 23.65 156.225 23.65C156.653 23.65 157.013 23.742 157.305 23.926C157.597 24.106 157.817 24.362 157.965 24.694C158.117 25.022 158.193 25.408 158.193 25.852ZM154.809 25.852C154.809 26.392 154.923 26.818 155.151 27.13C155.379 27.438 155.735 27.592 156.219 27.592C156.707 27.592 157.063 27.438 157.287 27.13C157.511 26.818 157.623 26.392 157.623 25.852C157.623 25.312 157.511 24.89 157.287 24.586C157.063 24.278 156.709 24.124 156.225 24.124C155.741 24.124 155.383 24.278 155.151 24.586C154.923 24.89 154.809 25.312 154.809 25.852ZM159.599 23.716H160.103V26.068C160.103 26.2 160.101 26.348 160.097 26.512C160.093 26.676 160.087 26.826 160.079 26.962C160.075 27.098 160.069 27.198 160.061 27.262H160.085L162.443 23.716H163.043V28H162.539V25.672C162.539 25.524 162.541 25.366 162.545 25.198C162.553 25.03 162.561 24.876 162.569 24.736C162.577 24.596 162.583 24.496 162.587 24.436H162.563L160.199 28H159.599V23.716ZM162.515 22.384C162.487 22.684 162.385 22.912 162.209 23.068C162.037 23.22 161.761 23.296 161.381 23.296C160.989 23.296 160.711 23.22 160.547 23.068C160.387 22.916 160.297 22.688 160.277 22.384H160.769C160.789 22.6 160.845 22.746 160.937 22.822C161.033 22.894 161.185 22.93 161.393 22.93C161.577 22.93 161.721 22.892 161.825 22.816C161.933 22.736 161.997 22.592 162.017 22.384H162.515ZM169.783 28H169.135L167.197 25.828V28H166.657V23.716H167.197V25.792L169.087 23.716H169.699L167.839 25.798L169.783 28ZM171.95 23.716C172.51 23.716 172.918 23.826 173.174 24.046C173.43 24.266 173.558 24.576 173.558 24.976C173.558 25.212 173.504 25.434 173.396 25.642C173.292 25.846 173.114 26.012 172.862 26.14C172.614 26.268 172.276 26.332 171.848 26.332H171.356V28H170.816V23.716H171.95ZM171.902 24.178H171.356V25.87H171.788C172.196 25.87 172.5 25.804 172.7 25.672C172.9 25.54 173 25.316 173 25C173 24.724 172.912 24.518 172.736 24.382C172.56 24.246 172.282 24.178 171.902 24.178ZM178.636 25.852C178.636 26.296 178.56 26.684 178.408 27.016C178.26 27.344 178.04 27.6 177.748 27.784C177.456 27.968 177.094 28.06 176.662 28.06C176.218 28.06 175.848 27.968 175.552 27.784C175.26 27.6 175.042 27.342 174.898 27.01C174.754 26.678 174.682 26.29 174.682 25.846C174.682 25.406 174.754 25.022 174.898 24.694C175.042 24.366 175.26 24.11 175.552 23.926C175.848 23.742 176.22 23.65 176.668 23.65C177.096 23.65 177.456 23.742 177.748 23.926C178.04 24.106 178.26 24.362 178.408 24.694C178.56 25.022 178.636 25.408 178.636 25.852ZM175.252 25.852C175.252 26.392 175.366 26.818 175.594 27.13C175.822 27.438 176.178 27.592 176.662 27.592C177.15 27.592 177.506 27.438 177.73 27.13C177.954 26.818 178.066 26.392 178.066 25.852C178.066 25.312 177.954 24.89 177.73 24.586C177.506 24.278 177.152 24.124 176.668 24.124C176.184 24.124 175.826 24.278 175.594 24.586C175.366 24.89 175.252 25.312 175.252 25.852ZM185.088 28H180.036V23.716H180.576V27.52H182.286V23.716H182.826V27.52H184.542V23.716H185.088V28ZM189.835 28H189.187L187.249 25.828V28H186.709V23.716H187.249V25.792L189.139 23.716H189.751L187.891 25.798L189.835 28ZM190.874 23.716H191.378V26.068C191.378 26.2 191.376 26.348 191.372 26.512C191.368 26.676 191.362 26.826 191.354 26.962C191.35 27.098 191.344 27.198 191.336 27.262H191.36L193.718 23.716H194.318V28H193.814V25.672C193.814 25.524 193.816 25.366 193.82 25.198C193.828 25.03 193.836 24.876 193.844 24.736C193.852 24.596 193.858 24.496 193.862 24.436H193.838L191.474 28H190.874V23.716Z" fill="white"/>
</svg>
