<svg width="93" height="46" viewBox="0 0 93 46" fill="none" xmlns="http://www.w3.org/2000/svg">
<path d="M45.1189 45.2846V13.574H47.8812V45.2846H45.1189Z" fill="white"/>
<path d="M38.7561 45.2846V20.0875H41.5184V45.2846H38.7561Z" fill="white"/>
<path d="M32.3933 26.6311V45.2846H35.1557V26.6311H32.3933Z" fill="white"/>
<path d="M26.0306 45.2846V33.2321H28.7929V45.2846H26.0306Z" fill="white"/>
<path d="M19.6678 37.3676V45.2845H22.4301V37.3676H19.6678Z" fill="white"/>
<path d="M13.305 45.2845V40.3097H16.0673V45.2845H13.305Z" fill="white"/>
<path d="M6.94224 42.6491V45.2846H9.70457L9.70457 42.6491H6.94224Z" fill="white"/>
<path d="M0.579468 45.2846V42.6491H3.34179V45.2846H0.579468Z" fill="white"/>
<path d="M54.2439 20.0875V45.2846H51.4816V20.0875H54.2439Z" fill="white"/>
<path d="M60.6067 45.2846V26.6311H57.8444V45.2846H60.6067Z" fill="white"/>
<path d="M66.9695 33.2321V45.2846H64.2071V33.2321H66.9695Z" fill="white"/>
<path d="M73.3322 45.2845V37.3676H70.5699V45.2845H73.3322Z" fill="white"/>
<path d="M79.695 40.3097V45.2845H76.9327V40.3097H79.695Z" fill="white"/>
<path d="M86.0578 45.2846V42.6491H83.2955V45.2846H86.0578Z" fill="white"/>
<path d="M92.4206 42.6491V45.2846H89.6582V42.6491H92.4206Z" fill="white"/>
<path fill-rule="evenodd" clip-rule="evenodd" d="M39.143 0.513428L54.0624 0.513429V3.27575L39.143 3.27575V0.513428Z" fill="#E95836"/>
<path fill-rule="evenodd" clip-rule="evenodd" d="M28.7058 7.0458H64.0981V9.80812H28.7058V7.0458Z" fill="#E95836"/>
<path fill-rule="evenodd" clip-rule="evenodd" d="M51.4636 13.5782H69.297V16.3405H51.4636V13.5782Z" fill="#E95836"/>
<path fill-rule="evenodd" clip-rule="evenodd" d="M23.6245 13.5782H41.458V16.3405H23.6245V13.5782Z" fill="#E95836"/>
<path fill-rule="evenodd" clip-rule="evenodd" d="M21.5645 20.1105H35.2192V22.8729H21.5645V20.1105Z" fill="#E95836"/>
<path fill-rule="evenodd" clip-rule="evenodd" d="M57.8789 20.1105H71.5336V22.8729H57.8789V20.1105Z" fill="#E95836"/>
<path fill-rule="evenodd" clip-rule="evenodd" d="M21.2506 26.6429H28.9019V29.4052H21.2506V26.6429Z" fill="#E95836"/>
<path fill-rule="evenodd" clip-rule="evenodd" d="M64.0981 26.6429H71.7494V29.4052H64.0981V26.6429Z" fill="#E95836"/>
</svg>
